<?xml version="1.0" encoding="UTF-8" standalone="no"?>
<!-- Created with Inkscape (http://www.inkscape.org/) -->

<svg
   xmlns:dc="http://purl.org/dc/elements/1.1/"
   xmlns:cc="http://creativecommons.org/ns#"
   xmlns:rdf="http://www.w3.org/1999/02/22-rdf-syntax-ns#"
   xmlns:svg="http://www.w3.org/2000/svg"
   xmlns="http://www.w3.org/2000/svg"
   version="1.1"
   width="892.91339"
   height="406.41733"
   id="svg12056">
  <defs
     id="defs12058">
    <clipPath
       id="clipPath11442">
      <path
         d="m 505.275,23.877 68.611,0 0,30.973 -68.611,0 0,-30.973 z"
         id="path11444" />
    </clipPath>
  </defs>
  <metadata
     id="metadata12061">
    <rdf:RDF>
      <cc:Work
         rdf:about="">
        <dc:format>image/svg+xml</dc:format>
        <dc:type
           rdf:resource="http://purl.org/dc/dcmitype/StillImage" />
        <dc:title></dc:title>
      </cc:Work>
    </rdf:RDF>
  </metadata>
  <g
     transform="translate(201.90727,-84.653173)"
     id="layer1">
    <g
       transform="matrix(12.920574,0,0,-12.920574,-6727.4737,795.95094)"
       id="g11438">
      <g
         clip-path="url(#clipPath11442)"
         id="g11440">
        <g
           transform="translate(525.0403,26.0756)"
           id="g11446">
          <path
             d="m 0,0 0,5.958 -0.78,0 0.05,-4.648 -0.01,0 -2.769,4.648 -0.869,0 0,-6.018 0.779,0 -0.05,4.728 0.01,0 L -0.79,-0.15 0,0 z m 5.318,-0.009 -0.14,1.029 0,3.679 -0.94,-0.131 0.14,-1.029 0,-2.549 C 4.089,0.72 3.768,0.53 3.318,0.53 2.689,0.53 2.429,0.89 2.429,1.58 l 0,3.119 -0.94,-0.131 0.14,-1.029 0,-2.239 c 0,-0.96 0.63,-1.47 1.42,-1.47 0.579,0 1.04,0.24 1.389,0.57 l 0.01,0 0.08,-0.54 0.79,0.131 z m -0.56,5.797 c 0,0.3 -0.24,0.53 -0.53,0.53 -0.29,0 -0.529,-0.23 -0.529,-0.53 0,-0.31 0.239,-0.53 0.529,-0.53 0.29,0 0.53,0.22 0.53,0.53 m -1.649,0 c 0,0.3 -0.23,0.53 -0.52,0.53 -0.29,0 -0.53,-0.23 -0.53,-0.53 0,-0.31 0.24,-0.53 0.53,-0.53 0.29,0 0.52,0.22 0.52,0.53 m 5.768,-1.859 0,0.79 c -0.62,0 -1.04,-0.3 -1.36,-0.66 l -0.01,0 -0.08,0.64 -0.79,-0.131 0.14,-1.029 0,-3.599 0.8,0 0,3.519 c 0.36,0.33 0.76,0.47 1.3,0.47 m 4.528,-3.989 0,3.319 c 0,0.959 -0.63,1.469 -1.42,1.469 -0.579,0 -1.039,-0.24 -1.389,-0.579 l -0.01,0 -0.08,0.55 -0.79,-0.131 0.14,-1.029 0,-3.599 0.8,0 0,3.629 c 0.29,0.26 0.61,0.45 1.059,0.45 0.63,0 0.89,-0.35 0.89,-1.04 l 0,-3.039 0.8,0 z m 5.278,2.619 c 0,1.38 -0.58,2.169 -1.68,2.169 -0.529,0 -0.929,-0.219 -1.229,-0.47 l -0.01,0 0,2.51 -0.94,-0.13 0.14,-1.03 0,-5.548 c 0.28,-0.11 0.86,-0.219 1.43,-0.219 1.479,0 2.289,1.159 2.289,2.718 m -0.8,-0.289 c 0,-0.95 -0.49,-1.74 -1.419,-1.74 -0.31,0 -0.51,0.03 -0.7,0.08 l 0,3.009 c 0.24,0.21 0.54,0.38 0.959,0.38 0.91,0 1.16,-0.7 1.16,-1.729 m 5.328,-2.08 -0.28,0.63 c -0.34,-0.17 -0.639,-0.28 -1.029,-0.28 -1.02,0 -1.47,0.6 -1.48,1.85 l 2.749,0 0,0.559 c 0,1.03 -0.46,1.779 -1.589,1.779 -1.18,0 -1.939,-0.969 -1.939,-2.419 0,-1.549 0.709,-2.479 2.089,-2.479 0.569,0 1.03,0.11 1.479,0.36 m -0.789,2.759 -1.96,0 c 0.1,0.67 0.48,1.14 1.08,1.14 0.62,0 0.88,-0.44 0.88,-1.14 m 4.078,0.98 0,0.79 c -0.62,0 -1.04,-0.3 -1.36,-0.66 l -0.01,0 -0.08,0.64 -0.789,-0.131 0.139,-1.029 0,-3.599 0.8,0 0,3.519 c 0.36,0.33 0.76,0.47 1.3,0.47 m 4.798,0.1 0,0.699 -1.419,-0.219 c -0.26,0.159 -0.59,0.239 -0.95,0.239 -0.97,0 -1.669,-0.629 -1.669,-1.579 0,-0.61 0.249,-1.069 0.679,-1.34 0,0 -0.6,-0.309 -0.6,-0.919 0,-0.32 0.131,-0.529 0.33,-0.66 0,0 -0.629,-0.38 -0.629,-1.15 0,-0.819 0.599,-1.299 1.579,-1.299 1.709,0 2.649,1.039 2.649,1.959 0,0.73 -0.48,0.98 -1.299,0.98 l -1.34,0 c -0.32,0 -0.55,0.06 -0.55,0.37 0,0.359 0.32,0.54 0.32,0.54 0.16,-0.04 0.34,-0.07 0.53,-0.07 0.959,0 1.649,0.639 1.649,1.589 0,0.34 -0.08,0.62 -0.22,0.86 l 0.94,0 z m -1.47,-0.86 c 0,-0.64 -0.389,-0.989 -0.899,-0.989 -0.55,0 -0.92,0.33 -0.92,0.989 0,0.63 0.4,0.98 0.92,0.98 0.54,0 0.899,-0.33 0.899,-0.98 m 0.74,-3.529 c 0,-0.509 -0.62,-1.189 -1.769,-1.189 -0.72,0 -1.05,0.29 -1.05,0.829 0,0.5 0.38,0.8 0.38,0.8 0.13,-0.02 0.26,-0.03 0.4,-0.03 l 1.26,0 c 0.489,0 0.779,-0.07 0.779,-0.41"
             id="path11448"
             style="fill:#1b6e44;fill-opacity:1;fill-rule:nonzero;stroke:none" />
        </g>
        <g
           transform="translate(539.1843,41.3202)"
           id="g11450">
          <path
             d="m 0,0 0,0.71 -4.198,0 0,-0.71 1.679,0 0,-5.308 0.84,0 0,5.308 L 0,0 z M 1.869,0.59 C 1.869,0.92 1.61,1.17 1.3,1.17 0.98,1.17 0.72,0.92 0.72,0.59 0.72,0.26 0.98,0.01 1.3,0.01 c 0.31,0 0.569,0.25 0.569,0.58 m -0.18,-5.898 0,4.758 -0.939,-0.13 0.14,-1.029 0,-3.599 0.799,0 z m 4.849,0.25 -0.28,0.63 c -0.34,-0.17 -0.64,-0.28 -1.03,-0.28 -1.02,0 -1.469,0.599 -1.479,1.849 l 2.749,0 0,0.56 c 0,1.029 -0.46,1.779 -1.59,1.779 -1.179,0 -1.939,-0.969 -1.939,-2.419 0,-1.549 0.71,-2.479 2.089,-2.479 0.57,0 1.03,0.11 1.48,0.36 m -0.79,2.759 -1.959,0 c 0.1,0.67 0.479,1.139 1.079,1.139 0.62,0 0.88,-0.439 0.88,-1.139 m 4.078,0.98 0,0.789 c -0.619,0 -1.04,-0.3 -1.359,-0.659 l -0.01,0 -0.08,0.639 -0.79,-0.13 0.14,-1.029 0,-3.599 0.8,0 0,3.519 c 0.36,0.33 0.76,0.47 1.299,0.47 m 4.799,0.099 0,0.7 -1.419,-0.22 c -0.261,0.16 -0.591,0.24 -0.951,0.24 -0.969,0 -1.669,-0.63 -1.669,-1.579 0,-0.61 0.25,-1.07 0.68,-1.34 0,0 -0.6,-0.31 -0.6,-0.919 0,-0.32 0.13,-0.53 0.33,-0.66 0,0 -0.63,-0.38 -0.63,-1.15 0,-0.819 0.6,-1.299 1.579,-1.299 1.71,0 2.649,1.039 2.649,1.959 0,0.73 -0.479,0.98 -1.299,0.98 l -1.339,0 c -0.32,0 -0.55,0.059 -0.55,0.369 0,0.36 0.32,0.54 0.32,0.54 0.16,-0.04 0.34,-0.07 0.529,-0.07 0.96,0 1.65,0.64 1.65,1.59 0,0.339 -0.08,0.62 -0.22,0.859 l 0.94,0 z m -1.47,-0.859 c 0,-0.64 -0.39,-0.99 -0.9,-0.99 -0.549,0 -0.919,0.33 -0.919,0.99 0,0.63 0.4,0.98 0.919,0.98 0.54,0 0.9,-0.331 0.9,-0.98 m 0.74,-3.529 c 0,-0.51 -0.62,-1.19 -1.77,-1.19 -0.719,0 -1.049,0.29 -1.049,0.83 0,0.5 0.38,0.8 0.38,0.8 0.13,-0.02 0.259,-0.03 0.399,-0.03 l 1.26,0 c 0.49,0 0.78,-0.07 0.78,-0.41 m 4.846,0.35 -0.15,1.029 0,2.23 c 0,0.929 -0.63,1.479 -1.57,1.479 -0.599,0 -1.029,-0.16 -1.449,-0.41 l 0.29,-0.59 c 0.31,0.151 0.58,0.27 0.969,0.27 0.77,0 0.97,-0.459 0.97,-1.109 l 0,-0.42 -0.84,-0.09 c -0.949,-0.1 -1.609,-0.51 -1.609,-1.349 0,-0.74 0.46,-1.21 1.24,-1.21 0.56,0 0.929,0.27 1.269,0.59 l 0.01,0 0.07,-0.55 0.8,0.13 z m -0.94,0.92 c -0.26,-0.23 -0.55,-0.43 -1.02,-0.43 -0.4,0 -0.639,0.26 -0.639,0.65 0,0.429 0.329,0.619 0.929,0.699 l 0.73,0.1 0,-1.019 z m 4.498,3.019 0,0.789 c -0.619,0 -1.039,-0.3 -1.359,-0.659 l -0.01,0 -0.08,0.639 -0.79,-0.13 0.14,-1.029 0,-3.599 0.8,0 0,3.519 c 0.359,0.33 0.759,0.47 1.299,0.47 m 3.487,-3.799 -0.26,0.61 c -0.139,-0.09 -0.329,-0.19 -0.579,-0.19 -0.46,0 -0.62,0.2 -0.62,0.829 l 0,2.59 1.31,0 0,0.649 -1.31,0 0,0.9 -0.79,-0.1 0,-0.78 -0.69,-0.14 0,-0.529 0.69,0 0,-2.86 c 0,-0.799 0.46,-1.269 1.18,-1.269 0.51,0 0.78,0.13 1.069,0.29 m 4.177,0.06 -0.28,0.63 c -0.339,-0.17 -0.639,-0.28 -1.029,-0.28 -1.02,0 -1.47,0.599 -1.48,1.849 l 2.749,0 0,0.56 c 0,1.029 -0.46,1.779 -1.589,1.779 -1.18,0 -1.94,-0.969 -1.94,-2.419 0,-1.549 0.71,-2.479 2.09,-2.479 0.569,0 1.029,0.11 1.479,0.36 m -0.789,2.759 -1.96,0 c 0.1,0.67 0.48,1.139 1.08,1.139 0.62,0 0.88,-0.439 0.88,-1.139 m 5.528,-3.009 0,3.319 c 0,0.959 -0.63,1.469 -1.42,1.469 -0.58,0 -1.039,-0.24 -1.39,-0.579 l -0.009,0 -0.081,0.549 -0.789,-0.13 0.14,-1.029 0,-3.599 0.8,0 0,3.629 c 0.29,0.26 0.609,0.45 1.059,0.45 0.63,0 0.89,-0.35 0.89,-1.04 l 0,-3.039 0.8,0"
             id="path11452"
             style="fill:#1b6e44;fill-opacity:1;fill-rule:nonzero;stroke:none" />
        </g>
        <g
           transform="translate(524.3589,53.9598)"
           id="g11454">
          <path
             d="m 0,0 c 0.916,-0.305 1.832,-0.661 2.544,-1.272 0.637,-0.127 0.84,-0.814 1.4,-1.17 0.127,-0.153 0.28,-0.306 0.483,-0.382 C 5.012,-2.875 5.521,-3.435 5.7,-3.892 5.674,-4.045 5.7,-4.173 5.827,-4.274 6.132,-4.249 6.081,-4.631 6.31,-4.681 6.488,-5.14 5.954,-5.7 6.412,-6.132 6.234,-6.361 6.59,-6.513 6.666,-6.641 6.387,-7.2 6.234,-7.913 6.438,-8.524 c 0,-0.229 -0.229,-0.508 -0.026,-0.712 -0.28,-0.356 -0.661,-0.839 -0.611,-1.399 -0.153,-0.662 -0.305,-1.425 -0.56,-2.113 -0.025,-0.101 -0.101,-0.228 -0.152,-0.33 0.076,-0.382 -0.407,-0.687 -0.051,-1.069 -0.051,-0.28 -0.153,-0.636 0,-0.941 -0.382,-0.153 -0.076,-0.662 -0.254,-0.917 0.076,-0.305 0.432,-0.533 0.254,-0.915 l -0.28,-0.382 c 0.127,-0.179 -0.229,-0.357 -0.153,-0.559 0.102,-0.306 -0.305,-0.281 -0.508,-0.23 -0.28,0.051 -0.585,0.153 -0.84,-0.101 -0.203,-0.026 -0.407,0.076 -0.535,-0.102 l -0.763,0.178 -0.153,-0.153 c -0.33,0.077 -0.686,-0.05 -1.017,0.127 0,0.433 -0.051,0.713 -0.102,1.171 0.051,0.636 -0.178,1.297 -0.026,1.933 -0.152,0.153 0,0.433 -0.152,0.611 0.229,0.433 0,1.069 0.025,1.629 0.051,1.094 -0.102,2.087 0,3.155 -0.051,0.484 0.127,1.094 0.026,1.577 0.178,0.305 -0.178,0.662 0.051,0.993 l -0.128,0.051 c 0.026,0.585 -0.025,1.246 -0.585,1.577 -0.483,0.967 -1.552,1.527 -2.646,1.425 -0.407,-0.127 -0.814,-0.331 -1.247,-0.458 -0.229,-0.203 -0.56,-0.356 -0.89,-0.305 0,-0.153 -0.179,-0.254 -0.28,-0.306 -0.204,0.102 -0.28,-0.178 -0.382,-0.228 -0.483,-0.687 -0.509,-1.604 -1.12,-2.189 -0.508,-0.967 -0.457,-2.01 -1.297,-2.798 0.102,-0.586 -0.076,-1.145 0.178,-1.68 l -0.127,0 c -0.102,-0.432 0,-0.865 0.102,-1.298 -0.153,-0.509 0.203,-0.966 0.076,-1.45 0.203,-0.382 0.051,-0.891 0.432,-1.196 0.026,-0.407 0.026,-0.737 -0.28,-0.992 -0.152,-0.433 -0.152,-0.941 -0.076,-1.399 0.305,-0.459 -0.203,-0.968 0.051,-1.375 0.229,-0.229 0.076,-0.636 0.229,-0.865 -0.204,-0.178 0,-0.407 -0.153,-0.585 0.178,-0.127 0.052,-0.33 0.052,-0.459 -0.637,-0.508 -1.553,-0.304 -2.291,-0.355 -0.483,-0.153 -0.992,0.153 -1.475,0 -0.204,0.177 -0.535,-0.051 -0.688,0.203 -0.483,0.229 -1.221,-0.356 -1.552,0.305 0.077,0.408 -0.076,0.891 -0.229,1.247 -0.177,0.56 0.204,1.12 -0.05,1.655 0,0.585 0.025,1.144 0.152,1.73 -0.152,0.28 -0.025,0.636 -0.178,0.89 0,0.229 0.076,0.433 -0.101,0.585 0.203,0.662 -0.357,1.17 -0.128,1.832 -0.254,0.357 0.025,0.916 -0.204,1.298 0.026,0.127 0.026,0.203 0,0.306 0.052,0.305 0.026,0.585 -0.025,0.89 0.102,0.077 0.025,0.204 0.025,0.306 -0.152,0.101 -0.025,0.33 0,0.407 -0.076,0.305 -0.33,0.534 -0.305,0.89 -0.203,0.127 -0.076,0.433 -0.203,0.56 0,0.101 0,0.204 -0.077,0.254 0,0.357 -0.101,0.509 -0.101,0.839 -0.357,0.331 0.076,0.891 -0.28,1.248 -0.077,0.381 -0.026,0.712 -0.153,1.068 -0.025,0.509 -0.356,0.967 -0.331,1.501 -0.127,0.306 -0.127,0.688 -0.178,0.993 0.127,0.916 -0.763,1.604 -0.61,2.545 0.101,0.381 0.509,0.661 0.839,0.737 -0.025,0.178 0.178,0.051 0.255,0.128 0.152,-0.179 0.458,-0.153 0.687,-0.204 0.28,0.33 0.661,0.051 0.966,0.28 0.408,0 0.84,-0.076 1.298,-0.026 l 0,0.051 c 0.662,-0.254 1.4,-0.127 2.087,-0.382 0.737,-0.229 1.145,-0.992 2.061,-0.661 0.89,0.229 1.679,0.738 2.569,1.043 0.357,0 0.687,0.152 1.018,0.229 0.993,0.102 1.96,-0.178 2.926,-0.204 C -1.17,0.459 -0.559,0.23 0,0"
             id="path11456"
             style="fill:#80cc28;fill-opacity:1;fill-rule:nonzero;stroke:none" />
        </g>
        <g
           transform="translate(507.3366,49.889)"
           id="g11458">
          <path
             d="m 0,0 c 0.203,-0.152 0.152,-0.56 0.356,-0.84 -0.051,-0.305 -0.56,-0.229 -0.28,-0.585 0.127,-0.28 0.076,-0.687 0.102,-0.967 -0.204,-0.559 -1.018,-0.254 -1.451,-0.458 -0.203,0.077 -0.508,0.178 -0.406,0.484 -0.026,0.152 0.05,0.382 -0.051,0.509 -0.128,0.076 0,0.228 -0.102,0.33 -0.229,0.23 0,0.407 -0.178,0.636 0.152,0.077 0.229,0.382 0.204,0.535 0.304,0.204 0.686,0.254 0.966,0.407 C -0.509,0.127 -0.28,-0.33 0,0"
             id="path11460"
             style="fill:#ed192e;fill-opacity:1;fill-rule:nonzero;stroke:none" />
        </g>
      </g>
    </g>
  </g>
</svg>
