<?xml version="1.0" standalone="no"?>
<!DOCTYPE svg PUBLIC "-//W3C//DTD SVG 1.1//EN" "http://www.w3.org/Graphics/SVG/1.1/DTD/svg11.dtd" >
<svg>
<metadata>
Created by FontForge 20090914 at Mon Jan 29 19:59:27 2018
 By www-data
Copyright (c) 2010, 2011, Denis Masharov &#60;denis.masharov@gmail.com&#62;, Vladimir Rabdu. This Font Software is licensed under the SIL Open Font License, Version 1.1. This license is available with a FAQ at: http://scripts.sil.org/OFL
</metadata>
<defs>
<font id="RuslanDisplay" horiz-adv-x="701" >
  <font-face 
    font-family="Ruslan Display"
    font-weight="400"
    font-stretch="normal"
    units-per-em="1000"
    panose-1="2 0 0 0 0 0 0 0 0 0"
    ascent="800"
    descent="-200"
    x-height="499.999"
    cap-height="500"
    bbox="-60 -397.001 1054 687.998"
    underline-thickness="50"
    underline-position="-50"
    unicode-range="U+000D-U+2212"
  />
<missing-glyph horiz-adv-x="500" 
 />
    <glyph glyph-name=".notdef" horiz-adv-x="500" 
 />
    <glyph glyph-name="NULL" horiz-adv-x="0" 
 />
    <glyph glyph-name="NULL" horiz-adv-x="0" 
 />
    <glyph glyph-name="CR" unicode="&#xd;" horiz-adv-x="350" 
 />
    <glyph glyph-name="space" unicode=" " horiz-adv-x="350" 
 />
    <glyph glyph-name="exclam" unicode="!" horiz-adv-x="302" 
d="M15 549l268.001 -32c-3.33301 -64.667 -14.333 -133.5 -33 -206.5s-39.334 -130.5 -62.001 -172.5c-40 2.66699 -73.333 8 -100 16c-4.66699 146 -29 277.667 -73 395zM190.001 92l33.002 -0.000976562c-10 -39.333 -21.667 -71.666 -35 -96.999
c-7.33301 -0.666992 -28.833 -1 -64.5 -1s-65.834 2 -90.501 6c13.333 30 20.666 64 21.999 102c38 -6.66699 83 -10 135 -10z" />
    <glyph glyph-name="quotedbl" unicode="&#x22;" horiz-adv-x="231" 
d="M145 353c4.66699 56 7 90 7 102s-2.66699 51.667 -8 119h67c-3.33301 -31.333 -5 -67 -5 -107s2 -78 6 -114h-67zM22 353c4.66699 56 7 90 7 102s-2.66699 51.667 -8 119h67c-3.33301 -32 -5 -67.833 -5 -107.5s2 -77.5 6 -113.5h-67z" />
    <glyph glyph-name="numbersign" unicode="#" horiz-adv-x="383" 
d="M173 167l-36.9971 -1.00098c-4.66699 -29.333 -10 -68 -16 -116h-67c6 25.333 14.333 63.333 25 114c-30.667 -1.33301 -54.334 -2.66602 -71.001 -3.99902l12 67l71 -3c3.33301 16 7.66602 40 12.999 72c-30.667 -1.33301 -53.334 -2.66602 -68.001 -3.99902
c2.66699 12 7 34.333 13 67l66 -3c8 50.667 13.667 88.334 17 113.001h67c-12 -50.667 -20.667 -88.667 -26 -114c8 -0.666992 20.167 -1 36.5 -1s28.5 0.333008 36.5 1c3.33301 17.333 6.83301 38.5 10.5 63.5l7.5 50.5h67l-26 -113l72 3c-6 -32.667 -10.333 -55 -13 -67
c-15.333 1.33301 -39 2.66602 -71 3.99902c-6.66699 -32 -11.334 -56 -14.001 -72l69 3l-12 -67c-14 1.33301 -36.333 2.66602 -67 3.99902c-8 -50.667 -13.333 -88.667 -16 -114h-68c6.66699 25.333 15.334 64 26.001 116zM146.003 222.999c8 -0.666992 20.5 -1 37.5 -1
s29.833 0.333008 38.5 1c2.66699 16.667 7.33398 41.667 14.001 75h-76c-6.66699 -33.333 -11.334 -58.333 -14.001 -75z" />
    <glyph glyph-name="dollar" unicode="$" horiz-adv-x="652" 
d="M236 -58l2.00391 36.002c-92.667 2 -168 9.66699 -226 23c13.333 62.667 24.666 106.667 33.999 132c44.667 2 87.667 3.33301 129 4c-7.33301 -18.667 -11 -33.667 -11 -45c0 -32 27.667 -48 83 -48s105.666 3.66699 150.999 11c-18 19.333 -45.5 41.666 -82.5 66.999
l-102 68.5c-31 20.333 -62 48 -93 83s-53.167 73.167 -66.5 114.5c20.667 41.333 42.667 78.333 66 111c38 8 77.333 14 118 18c-1.33301 9.33301 -2 23.666 -2 42.999h64c-0.666992 -8.66699 -1 -21.667 -1 -39c24 1.33301 42.667 2 56 2c-0.666992 8 -1 20.333 -1 37h63
l-1 -38c71.333 -3.33301 137 -11 197 -23c-11.333 -55.333 -21.333 -95.333 -30 -120l-65 -2.5c-26.667 -1 -48 -1.83301 -64 -2.5c6.66699 18.667 10 32.334 10 41.001c0 16.667 -7.33301 27.667 -22 33s-42.667 8 -84 8s-78 -3.66699 -110 -11
c32.667 -47.333 81 -85 145 -113l83 -36c70 -28.667 125.333 -66.334 166 -113.001c-15.333 -68 -40 -128.667 -74 -182c-36.667 -10 -87.334 -17 -152.001 -21c0 -17.333 0.333008 -30 1 -38h-63c0 16 0.333008 28 1 36c-12.667 -0.666992 -31.334 -1 -56.001 -1
c0 -16 0.333008 -27.667 1 -35h-64z" />
    <glyph glyph-name="percent" unicode="%" horiz-adv-x="540" 
d="M372 204c-4.66699 -18.667 -7 -38.833 -7 -60.5s4.83301 -45.334 14.5 -71.001s22.167 -43.5 37.5 -53.5c7.33301 16.667 11 36.834 11 60.501s-5 47.5 -15 71.5s-23.667 41.667 -41 53zM124 -35.999l-40.001 23l319 552l40 -23
c-115.333 -188 -221.666 -372 -318.999 -552zM114.999 476.001c-4.66699 -18.667 -7 -39.001 -7 -61.001s4.83301 -45.833 14.5 -71.5s22.167 -43.5 37.5 -53.5c7.33301 16.667 11 36.834 11 60.501s-5 47.5 -15 71.5s-23.667 42 -41 54zM44.999 268
c-27.333 37.333 -41 75.167 -41 113.5s15.667 70.666 47 96.999s71.666 39.5 120.999 39.5c22 0 45 -3 69 -9c22.667 -29.333 34 -63.166 34 -101.499s-16 -73 -48 -104s-71.333 -46.5 -118 -46.5c-19.333 0 -40.666 3.66699 -63.999 11zM302.999 -3.99902
c-27.333 36 -40.999 73.499 -40.999 112.499s15.833 71.833 47.5 98.5s72.167 40 121.5 40c21.333 0 44 -3 68 -9c22.667 -30.667 34 -64.667 34 -102s-16.333 -71.666 -49 -102.999s-72.334 -47 -119.001 -47c-21.333 0 -42 3.33301 -62 10z" />
    <glyph glyph-name="ampersand" unicode="&#x26;" horiz-adv-x="745" 
d="M108 433c16 40.667 36.332 75.333 60.999 104h229c24.667 -30 42 -63 52 -99c-7.33301 -17.333 -18.833 -32 -34.5 -44l-31 -24c-5 -4 -15.333 -11 -31 -21s-23.834 -15.333 -24.501 -16c26 -37.333 62.333 -77 109 -119c2.66699 6.66699 9.33398 25.667 20.001 57h107
c-14.667 -36.667 -35 -72.334 -61 -107.001c73.333 -62 152 -116.667 236 -164h-281c-19.333 12.667 -40.666 29 -63.999 49c-12.667 -11.333 -33 -27.666 -61 -48.999h-238c-39.333 36 -69.333 94 -90 174c34 47.333 92 92 174 134c-25.333 38 -49.333 79.667 -72 125z
M215.999 253.999c-11.333 -12 -17 -28.5 -17 -49.5s11.667 -46.333 35 -76s49.333 -54.5 78 -74.5c14 10.667 27 22.667 39 36c-44.667 45.333 -89.667 100 -135 164zM296.999 373.999c16 11.333 24 25.333 24 42s-9 33.167 -27 49.5s-38 26.833 -60 31.5
c14.667 -44.667 35.667 -85.667 63 -123z" />
    <glyph glyph-name="quotesingle" unicode="'" horiz-adv-x="128" 
d="M31 353c4.66699 56 7 90 7 102s-2.66699 51.667 -8 119h67c-3.33301 -32 -5 -67.833 -5 -107.5s2 -77.5 6 -113.5h-67z" />
    <glyph glyph-name="parenleft" unicode="(" horiz-adv-x="203" 
d="M131 294c0 -146.667 24.333 -282.665 73 -407.998c-26.667 3.33301 -64 10 -112 20c-58 89.333 -87 201.666 -87 336.999s32.333 256 97 362h67c-25.333 -100.667 -38 -204.334 -38 -311.001z" />
    <glyph glyph-name="parenright" unicode=")" horiz-adv-x="207" 
d="M73 197c0 146.667 -24.333 282.668 -73 408.001c20 -2.66699 57.333 -9.33398 112 -20.001c58 -88.667 87 -200.834 87 -336.501s-32.333 -256.5 -97 -362.5h-67c25.333 100.667 38 204.334 38 311.001z" />
    <glyph glyph-name="asterisk" unicode="*" horiz-adv-x="273" 
d="M9 232l-0.000976562 53c30 -2 60 -3 90 -3l-48 76l46 26c8.66699 -18.667 22.334 -46 41.001 -82c16 28.667 30 56 42 82l46 -26c-21.333 -32 -37.333 -57.333 -48 -76l90 3v-53c-20.667 2 -51.334 3.66699 -92.001 5c21.333 -34.667 38 -60.334 50 -77.001l-46 -26
c-15.333 30.667 -29.333 57 -42 79l-41 -79c-10.667 5.33301 -26 14 -46 26c18.667 26.667 35.334 52.334 50.001 77.001c-40 -1.33301 -70.667 -3 -92 -5z" />
    <glyph glyph-name="plus" unicode="+" horiz-adv-x="272" 
d="M157 229c0 -32 1.66602 -68.001 4.99902 -108.001h-53c1.33301 24 2.66602 60 3.99902 108c-31.333 0 -67 -1.66699 -107 -5v53c24.667 -1.33301 60.334 -2.66602 107.001 -3.99902c-1.33301 46.667 -2.66602 82.334 -3.99902 107.001h53
c-3.33301 -40 -5 -75.667 -5 -107c48 1.33301 84 2.66602 108 3.99902v-53c-40 3.33301 -76 5 -108 5z" />
    <glyph glyph-name="comma" unicode="," horiz-adv-x="215" 
d="M112 -6c-42 0 -73.998 2 -95.998 6c13.333 30 20.666 64 21.999 102c41.333 -7.33301 97.333 -11 168 -11c-12 -66 -35.333 -125.667 -70 -179c-16.667 2 -32.334 5 -47.001 9c15.333 26 23 50.333 23 73z" />
    <glyph glyph-name="hyphen" unicode="-" horiz-adv-x="381" 
d="M93 305l66.999 -1c102.667 0 171.334 5.66699 206.001 17c-21.333 -34.667 -46.333 -67 -75 -97h-30c-100.667 0 -183.667 7 -249 21l15 13c28.667 25.333 50.667 41 66 47z" />
    <glyph glyph-name="period" unicode="." horiz-adv-x="219" 
d="M173 -5c-7.33301 -0.666992 -28.499 -1.00098 -63.499 -1.00098s-65.5 2 -91.5 6c13.333 30.667 20.666 64.667 21.999 102c38 -6.66699 94 -10 168 -10c-9.33301 -37.333 -21 -69.666 -35 -96.999z" />
    <glyph glyph-name="slash" unicode="/" horiz-adv-x="372" 
d="M284 587c52 13.333 96.667 20 134 20c-108 -190 -223 -423.667 -345 -701l-10 -2c-49.333 -12 -90.333 -18 -123 -18c112 198 226.667 431.667 344 701z" />
    <glyph glyph-name="zero" unicode="0" horiz-adv-x="658" 
d="M123 3c-59.333 76.667 -88.999 154.833 -88.999 234.5s33.333 147.167 100 202.5s152 83 256 83c55.333 0 110.333 -8.33301 165 -25c48 -60 72 -125 72 -195c0 -87.333 -35.833 -163.333 -107.5 -228s-157.834 -97 -258.501 -97c-44 0 -90 8.33301 -138 25z
M275.001 435.999c-23.333 -40 -35 -87.166 -35 -141.499s11.833 -104.333 35.5 -150s56.167 -78.167 97.5 -97.5c31.333 40 47 86.333 47 139s-12.833 101.667 -38.5 147s-61.167 79.666 -106.5 102.999z" />
    <glyph glyph-name="one" unicode="1" horiz-adv-x="432" 
d="M383 358c0 -132.667 -7 -252.001 -21 -358.001h-227c3.33301 56.667 5 110.167 5 160.5s-3.66699 104.833 -11 163.5c-18.667 -14.667 -41 -30 -67 -46c-20 36 -35 62.333 -45 79c92.667 34.667 174.667 82.334 246 143.001h118c1.33301 -62.667 2 -110 2 -142z" />
    <glyph glyph-name="two" unicode="2" horiz-adv-x="569" 
d="M201 71c32.667 -4 67.999 -6.00195 105.999 -6.00195s67.333 7.33301 88 22s36.334 36.667 47.001 66l95 -5c-9.33301 -60 -22.666 -109.333 -39.999 -148h-475l7 6c150.667 144 226 258 226 342c0 37.333 -16.333 68.666 -49 93.999
c-35.333 -25.333 -61 -56.666 -77 -93.999c-10 2.66699 -25.5 7.33398 -46.5 14.001l-48.5 15c34 54 73.667 95 119 123h272c49.333 -37.333 83.666 -82.666 102.999 -135.999c-26 -48.667 -67.5 -98.5 -124.5 -149.5s-124.5 -98.833 -202.5 -143.5z" />
    <glyph glyph-name="three" unicode="3" horiz-adv-x="508" 
d="M272 429c-11.333 4 -29.8301 5.99902 -55.4971 5.99902s-45.834 -1.66699 -60.501 -5s-25.5 -9.16602 -32.5 -17.499s-11.5 -15.166 -13.5 -20.499c-2.66699 -5.33301 -6 -17.666 -10 -36.999c-20 0 -48 0.666992 -84 2c10 51.333 20.667 99 32 143h444
c-38 -80 -105.667 -149 -203 -207c83.333 -23.333 153.666 -55 210.999 -95c-35.333 -80 -84.333 -146 -147 -198h-313c44.667 28 90.667 64.667 138 110s80 84.666 98 117.999c-15.333 10.667 -35.333 21.667 -60 33s-46.334 19 -65.001 23
c50.667 29.333 91 77.666 121 144.999z" />
    <glyph glyph-name="four" unicode="4" horiz-adv-x="590" 
d="M269 141l0.00195312 16.002c0 33.333 -3.66699 73 -11 119h251c0 -20 -3 -64.667 -9 -134c30.667 6 60 17.333 88 34c-13.333 -32.667 -28 -66.334 -44 -101.001h-50l-9 -75h-230c2.66699 11.333 6 36.333 10 75h-225c-6 36 -11.667 65.333 -17 88
c41.333 41.333 77.166 94 107.499 158s49.833 123.667 58.5 179h218c-24 -60.667 -66.333 -121.334 -127 -182.001c-42.667 -44 -94.334 -92 -155.001 -144l-18 -15c44.667 -12 98.667 -18 162 -18z" />
    <glyph glyph-name="five" unicode="5" horiz-adv-x="485" 
d="M360 500c29.333 0 69.9971 7.66602 121.997 22.999c-8 -12.667 -16.167 -27.334 -24.5 -44.001s-15.166 -29.667 -20.499 -39c-14.667 -3.33301 -31.667 -5 -51 -5h-152c-16 -31.333 -28 -71 -36 -119c45.333 0 95.5 -4 150.5 -12s99.5 -19 133.5 -33
c-30 -107.333 -78.667 -197.666 -146 -270.999h-313c100.667 64.667 172.334 142.667 215.001 234c-26.667 10.667 -62.167 19.667 -106.5 27s-85.166 11 -122.499 11v7c0 39.333 3.5 79.833 10.5 121.5s16.5 74.834 28.5 99.501h312z" />
    <glyph glyph-name="six" unicode="6" horiz-adv-x="540" 
d="M32 215c0 118 33.334 213 100.001 285h300c-66.667 -40.667 -114 -101 -142 -181c67.333 -2.66699 142.666 -17 225.999 -43c13.333 -35.333 20 -76.833 20 -124.5s-14.333 -98.167 -43 -151.5h-407c-16 20.667 -29 50.5 -39 89.5s-15 80.833 -15 125.5zM274.001 264
c-8 -35.333 -12 -70.501 -12 -105.501s3 -66.167 9 -93.5c19.333 22.667 36 49.834 50 81.501s21.667 59.5 23 83.5c-16.667 14.667 -40 26 -70 34z" />
    <glyph glyph-name="seven" unicode="7" horiz-adv-x="547" 
d="M226 435l-16.0029 -0.00195312c-36.667 0 -63.167 -5.66699 -79.5 -17s-27.833 -32.666 -34.5 -63.999l-84 3c4 24.667 14 69.334 30 134.001l2 9h496c-23.333 -90 -52.166 -180.833 -86.499 -272.5s-68.166 -167.5 -101.499 -227.5h-311
c106.667 106 194.334 249 263.001 429c-25.333 4 -51.333 6 -78 6z" />
    <glyph glyph-name="eight" unicode="8" horiz-adv-x="532" 
d="M455 0l-368.999 0.000976562c-36.667 48 -64 100.667 -82 158c38 46 82 84.667 132 116c-30.667 40.667 -55.334 83.667 -74.001 129c28 43.333 54.333 76 79 98h262c36.667 -36.667 58.667 -76.334 66 -119.001c-21.333 -39.333 -46.333 -71 -75 -95
c28 -13.333 54.167 -33.333 78.5 -60s42.5 -55 54.5 -85c-17.333 -58.667 -41.333 -106 -72 -142zM172.001 175.001c0 -32 12.3311 -57.5 36.998 -76.5s53.334 -29.833 86.001 -32.5c-4 24.667 -16.167 51 -36.5 79s-46.166 53.667 -77.499 77c-6 -17.333 -9 -33 -9 -47z
M338.999 345.001c0 22.667 -9.33105 42.833 -27.998 60.5s-48.334 27.5 -89.001 29.5c15.333 -54 51.666 -94.667 108.999 -122c5.33301 9.33301 8 20 8 32z" />
    <glyph glyph-name="nine" unicode="9" horiz-adv-x="553" 
d="M531 286c0 -121.333 -33.333 -216.667 -100 -286h-300c66.667 42 114 102.333 142 181c-64.667 2.66699 -139.667 17 -225 43c-13.333 35.333 -20 77.166 -20 125.499s14 98.5 42 150.5h408c16 -20.667 28.833 -50.167 38.5 -88.5s14.5 -80.166 14.5 -125.499z
M289 236.999c8.66699 39.333 12.998 75.667 12.998 109s-3 63 -9 89c-19.333 -22 -36.166 -49 -50.499 -81s-22.166 -59.667 -23.499 -83c14 -14 37.333 -25.333 70 -34z" />
    <glyph glyph-name="colon" unicode=":" horiz-adv-x="205" 
d="M165 92l32.999 -0.000976562c-10 -39.333 -21.667 -71.666 -35 -96.999c-7.33301 -0.666992 -28.666 -1 -63.999 -1s-65.666 2 -90.999 6c13.333 30 20.666 64 21.999 102c38.667 -6.66699 83.667 -10 135 -10zM171.999 435.999h26.001c-9.33301 -38 -21 -70 -35 -96
c-8 -0.666992 -31.167 -1 -69.5 -1s-66.833 2 -85.5 6c13.333 30 20.666 64 21.999 102c40 -7.33301 87.333 -11 142 -11z" />
    <glyph glyph-name="semicolon" unicode=";" horiz-adv-x="207" 
d="M175 437h27.001c-7.33301 -34 -19 -66 -35 -96c-16 -1.33301 -40.167 -2 -72.5 -2s-59.833 2.33301 -82.5 7c13.333 30 20.666 63.667 21.999 101c40 -6.66699 87 -10 141 -10zM34.001 103c42 -7.33301 98.002 -10.999 168.002 -10.999
c-10.667 -66 -34 -125.667 -70 -179c-14.667 2 -30.334 5 -47.001 9c14.667 25.333 22.667 49.666 24 72.999c-42.667 0 -75 2 -97 6c13.333 30 20.666 64 21.999 102z" />
    <glyph glyph-name="less" unicode="&#x3c;" horiz-adv-x="350" 
d="M240 0l-220 221l220 220h91l-187 -220l187 -221h-91z" />
    <glyph glyph-name="equal" unicode="=" horiz-adv-x="287" 
d="M13 221c40.667 -2 82.5 -3 125.5 -3s87.5 1 133.5 3v-52c-50 3.33301 -94 5 -132 5s-80.333 -1.66699 -127 -5v52zM13 319c38 -2.66699 80.833 -4 128.5 -4s91.167 1.33301 130.5 4v-53c-48 3.33301 -91.167 5 -129.5 5s-81.5 -1.66699 -129.5 -5v53z" />
    <glyph glyph-name="greater" unicode="&#x3e;" horiz-adv-x="350" 
d="M344 221l-220 -221h-91l187 221l-187 220h91z" />
    <glyph glyph-name="question" unicode="?" horiz-adv-x="472" 
d="M15 526c66.667 15.333 138.998 23 216.998 23s137 -13.167 177 -39.5s60 -61.166 60 -104.499c-2.66699 -24 -12.667 -48.333 -30 -73s-35.666 -46 -54.999 -64c-56 -50.667 -89.667 -93.667 -101 -129c-46 4.66699 -79.333 9.66699 -100 15
c5.33301 17.333 21.833 53.666 49.5 108.999s41.5 97.833 41.5 127.5s-6.66699 56.5 -20 80.5c-17.333 6 -33 9 -47 9s-28.333 -1.66699 -43 -5c4.66699 -26.667 10.334 -51 17.001 -73c-37.333 0 -80 2.33301 -128 7c-17.333 36.667 -30 75.667 -38 117zM282.998 -5
c-7.33301 -0.666992 -28.3311 -1.00098 -62.998 -1.00098s-65.334 2 -92.001 6c13.333 32 20.666 66 21.999 102c34.667 -6.66699 90.667 -10 168 -10c-9.33301 -37.333 -21 -69.666 -35 -96.999z" />
    <glyph glyph-name="at" unicode="@" horiz-adv-x="540" 
d="M491 250c0 61.333 -21.5 113.667 -64.5 157s-95.167 65 -156.5 65s-113.666 -21.667 -156.999 -65s-65 -95.666 -65 -156.999s21.667 -113.5 65 -156.5s95.666 -64.5 156.999 -64.5c48.667 0 94 15.667 136 47l20 -21c-45.333 -36.667 -100 -55 -164 -55
s-120.333 24.333 -169 73s-73 107.667 -73 177s24.333 128.333 73 177s107.667 73 177 73s128.333 -24.333 177 -73s73 -107.667 73 -177c0 -39.333 -10.167 -72.666 -30.5 -99.999s-51.833 -41 -94.5 -41c-51.333 0 -85.333 25 -102 75c4 0 -5.83301 -9.5 -29.5 -28.5
s-37.167 -28.833 -40.5 -29.5h-116c-2.66699 13.333 -4 32 -4 56s3.33301 45.667 10 65c24.667 8 48.167 20.167 70.5 36.5s38.166 34.166 47.499 53.499c-9.33301 14 -19 26.667 -29 38h165c11.333 -27.333 22.333 -66.833 33 -118.5s19 -81.5 25 -89.5
c6 -6.66699 13 -10.334 21 -11.001c14.667 0 25.834 10.833 33.501 32.5s11.5 42.167 11.5 61.5zM284 221.001c-10 32.667 -21.333 60.332 -34 82.999c-14.667 -42 -23.667 -85.333 -27 -130c20.667 10.667 41 26.334 61 47.001z" />
    <glyph glyph-name="A" unicode="A" horiz-adv-x="708" 
d="M690 8l0.00195312 -8h-232c-2.66699 36.667 -8.33398 76 -17.001 118c-46.667 -46.667 -93.334 -86 -140.001 -118h-233c-4.66699 27.333 -7 63.5 -7 108.5s6.66699 90.167 20 135.5c48 14 94.167 37.667 138.5 71s76.5 69.333 96.5 108
c-18.667 29.333 -37.667 55 -57 77h332c66 -144.667 99 -308.667 99 -492zM423.002 191c-16.667 57.333 -39.333 113.333 -68 168c-31.333 -92 -49.333 -179 -54 -261c49.333 26.667 90 57.667 122 93z" />
    <glyph glyph-name="B" unicode="B" horiz-adv-x="695" 
d="M322 65c45.333 0 82.333 3.66699 111 11c-12 74 -46 129 -102 165c-6 -59.333 -9 -118 -9 -176zM70 300c0 70 6.33301 136.667 19 200h555c-30 -93.333 -87.333 -161 -172 -203c76.667 -27.333 138 -65.333 184 -114c-6 -62 -20.333 -123 -43 -183h-503
c-26.667 92.667 -40 192.667 -40 300zM339 310c32.667 8.66699 62.999 23.6689 90.999 45.002s48 47.666 60 78.999c-53.333 0 -96.666 -1.66699 -129.999 -5c-8 -38.667 -15 -78.334 -21 -119.001z" />
    <glyph glyph-name="C" unicode="C" horiz-adv-x="632" 
d="M449 439c-23.333 4 -45.832 5.99902 -67.499 5.99902s-47.834 -3.66699 -78.501 -11c-10 -42 -15 -83 -15 -123c0 -103.333 46 -182.666 138 -237.999c61.333 40.667 116.666 91.334 165.999 152.001c2 -26.667 3.66699 -67.334 5 -122.001
c-49.333 -38.667 -99.666 -69 -150.999 -91s-115.333 -33 -192 -33h-23c-60 26 -107.167 64.333 -141.5 115s-51.5 104 -51.5 160c0 74.667 30.667 138.167 92 190.5s150.333 78.5 267 78.5c65.333 0 133.666 -8.33301 204.999 -25c-10.667 -42 -24 -81.667 -40 -119
c-42 -4 -85.333 -6 -130 -6c6.66699 18.667 12.334 40.667 17.001 66z" />
    <glyph glyph-name="D" unicode="D" horiz-adv-x="718" 
d="M315 523c128.667 0 233.334 -16.001 314.001 -48.001c28.667 -57.333 43 -115.333 43 -174c0 -75.333 -25.667 -140.666 -77 -195.999c-74.667 -79.333 -175.667 -119 -303 -119c-44 0 -103.667 5 -179 15c-26 134 -39 257.667 -39 371c0 39.333 2 82 6 128
c107.333 15.333 185.666 23 234.999 23zM345 447.999c-12 -125.333 -18 -215.167 -18 -269.5s1 -98.5 3 -132.5c36 19.333 64.167 51.833 84.5 97.5s30.5 92 30.5 139s-8.5 85.5 -25.5 115.5s-41.833 46.667 -74.5 50z" />
    <glyph glyph-name="E" unicode="E" horiz-adv-x="671" 
d="M415 299l94 -6c9.33301 0 16.333 0.333008 21 1l-47 -88h-9c-12.667 0 -30.667 3.5 -54 10.5s-40 10.5 -50 10.5c-27.333 0 -49 -17.667 -65 -53c-2.66699 -32.667 -4.66699 -65.334 -6 -98.001c34.667 -6.66699 62 -10 82 -10h9c28.667 0 51.5 6.33301 68.5 19
s29.167 35.334 36.5 68.001l120 -5c-10 -57.333 -23.333 -106.666 -40 -147.999h-491c-13.333 90 -20 179.333 -20 268s4.66699 166 14 232h536c-12 -72 -22.667 -122.667 -32 -152c-39.333 -2 -75.333 -3.33301 -108 -4c5.33301 15.333 8 29.666 8 42.999
c0 32 -24 48 -72 48c-18 0 -38 -2 -60 -6c-14.667 -63.333 -26 -119 -34 -167c26.667 24.667 59.667 37 99 37z" />
    <glyph glyph-name="F" unicode="F" horiz-adv-x="619" 
d="M413 284l94.998 -6c8.66699 0 15.334 0.333008 20.001 1l-47 -88h-9c-12.667 0 -30.667 3.5 -54 10.5s-40 10.5 -50 10.5c-26 0 -47 -17 -63 -51c-3.33301 -38 -5 -68 -5 -90s0.666992 -45.667 2 -71h-217c-12.667 85.333 -19 173.5 -19 264.5s4.66699 169.167 14 234.5
h534c-12 -72 -22.667 -122.333 -32 -151l-108 -5c6 16.667 9 31 9 43c0 32 -24.333 48 -73 48c-21.333 0 -41 -1.66699 -59 -5c-14.667 -59.333 -26.667 -120 -36 -182c26.667 24.667 59.334 37 98.001 37z" />
    <glyph glyph-name="G" unicode="G" horiz-adv-x="675" 
d="M416 49l1.00195 42.002c0 47.333 -4 103.666 -12 168.999h216c0 -94.667 -4.66699 -181.334 -14 -260.001c-103.333 -14.667 -210.333 -22 -321 -22h-64c-60.667 26 -108 64.167 -142 114.5s-51 103.833 -51 160.5c0 75.333 30.5 139.166 91.5 191.499
s150.167 78.5 267.5 78.5c61.333 0 129.666 -8.33301 204.999 -25c-11.333 -45.333 -24.333 -85.333 -39 -120c-40.667 -2.66699 -84.334 -4.66699 -131.001 -6c7.33301 22.667 12.666 45 15.999 67c-21.333 4 -43.166 6 -65.499 6s-48.833 -3.66699 -79.5 -11
c-10.667 -45.333 -16 -86.333 -16 -123c0 -55.333 12.5 -107.166 37.5 -155.499s58.5 -83.833 100.5 -106.5z" />
    <glyph glyph-name="H" unicode="H" horiz-adv-x="740" 
d="M699 417c0 -130.667 -12.666 -269.668 -37.999 -417.001h-239c10.667 78.667 17.667 163.334 21 254.001c-34.667 21.333 -73.334 34.333 -116.001 39c-4 -98 -14.667 -195.667 -32 -293h-227c8.66699 65.333 13 143.5 13 234.5s-6 179.5 -18 265.5h264
c1.33301 -27.333 2 -68 2 -122c38.667 -12 77 -28.333 115 -49c0 62 -2.33301 119 -7 171h260c1.33301 -37.333 2 -65 2 -83z" />
    <glyph glyph-name="I" unicode="I" horiz-adv-x="396" 
d="M341 500v-26.998c0 -176 -11 -333.667 -33 -473h-240c12.667 61.333 19 132.166 19 212.499s-5.33301 176.166 -16 287.499h270z" />
    <glyph glyph-name="J" unicode="J" horiz-adv-x="531" 
d="M192 -45c4.66699 52 7 123.834 7 215.501s-7.66699 201.5 -23 329.5h270c1.33301 -25.333 2 -64.333 2 -117c0 -141.333 -9.33301 -269 -28 -383c-26 -24.667 -50 -42.834 -72 -54.501l-45 -24c-8 -4.33301 -22.333 -11 -43 -20s-33 -14.5 -37 -16.5
c-85.333 6.66699 -158 21.667 -218 45c1.33301 44 3.33301 84.667 6 122c62 -44.667 122.333 -77 181 -97z" />
    <glyph glyph-name="K" unicode="K" horiz-adv-x="707" 
d="M570 507h32.9961c42.667 0 74.334 5 95.001 15c-29.333 -43.333 -57.666 -81 -84.999 -113h-16c-34 0 -67 5.33301 -99 16c-45.333 -37.333 -81.666 -87 -108.999 -149c70.667 -18 149.334 -28.667 236.001 -32c20 -50.667 33.667 -132 41 -244h-259
c-11.333 49.333 -28.5 94.833 -51.5 136.5s-46.833 70.167 -71.5 85.5c-4.66699 -54.667 -7 -98.667 -7 -132s1 -63.333 3 -90h-220c-12.667 98 -19 180.833 -19 248.5s5 151.5 15 251.5h278c-20 -82.667 -33.667 -152 -41 -208c30 49.333 61.5 90.833 94.5 124.5
s72.167 62.167 117.5 85.5c17.333 3.33301 39 5 65 5z" />
    <glyph glyph-name="L" unicode="L" horiz-adv-x="602" 
d="M364 66c28.667 0 51.5 6.50195 68.5 19.502s29.5 35.5 37.5 67.5l120 -4c-10 -60 -23.333 -109.667 -40 -149h-491c-12.667 85.333 -19 173.666 -19 264.999s4.66699 169.666 14 234.999h288c-44 -168.667 -66.667 -309.667 -68 -423c31.333 -7.33301 61.333 -11 90 -11z
" />
    <glyph glyph-name="M" unicode="M" horiz-adv-x="1052" 
d="M657 454c0 18 -2.66992 33.334 -8.00293 46.001h285c24 -64 41.833 -142.333 53.5 -235s17.834 -181 18.501 -265h-231c-4.66699 120 -24.334 235.667 -59.001 347c-58 -113.333 -89.333 -229 -94 -347h-196c-17.333 130.667 -50.666 246.667 -99.999 348
c-36 -84.667 -54 -163.334 -54 -236.001c0 -39.333 4.66699 -76.666 14 -111.999h-243c-4.66699 27.333 -7 63.5 -7 108.5s6.66699 90.167 20 135.5c47.333 14 92.833 37 136.5 69s75.834 67 96.501 105c-17.333 28.667 -35.666 56 -54.999 82h316
c25.333 -68.667 44.333 -143.334 57 -224.001c33.333 62 50 121.333 50 178z" />
    <glyph glyph-name="N" unicode="N" horiz-adv-x="715" 
d="M646 500c4 -70 6 -143.832 6 -221.499s-3.33301 -170.5 -10 -278.5h-96c-129.333 69.333 -248 163.666 -356 282.999c5.33301 -44.667 8 -90.5 8 -137.5s-1.66699 -95.5 -5 -145.5h-117c13.333 82 20 157.833 20 227.5s-3.33301 124.834 -10 165.501
c-26.667 40 -47.667 75.667 -63 107h284c28 -48 66.167 -97.5 114.5 -148.5s94.5 -90.833 138.5 -119.5c0 97.333 -11 186.666 -33 267.999h119z" />
    <glyph glyph-name="O" unicode="O" horiz-adv-x="658" 
d="M123 3c-59.333 76 -89.001 154 -89.001 234s33.333 147.667 100 203s152 83 256 83c55.333 0 110.333 -8.33301 165 -25c48 -60.667 72 -125.667 72 -195c0 -87.333 -35.667 -163.333 -107 -228s-157.666 -97 -258.999 -97c-43.333 0 -89.333 8.33301 -138 25z
M274.999 436c-23.333 -40 -35 -86.999 -35 -140.999s11.833 -103.833 35.5 -149.5s56.167 -78.5 97.5 -98.5c31.333 40 47 86.333 47 139s-12.833 101.667 -38.5 147s-61.167 79.666 -106.5 102.999z" />
    <glyph glyph-name="P" unicode="P" horiz-adv-x="665" 
d="M294 125c0 -38 1.66797 -79.667 5.00098 -125h-220c-27.333 106 -41 218.667 -41 338c0 60.667 3.66699 114.667 11 162h542c19.333 -75.333 30 -165 32 -269c-98.667 -44 -208.334 -72.667 -329.001 -86v-20zM295.001 214c42.667 5.33301 78.334 15.999 107.001 31.999
c-10.667 70.667 -39.334 133.334 -86.001 188.001c-10.667 -66 -17.667 -139.333 -21 -220z" />
    <glyph glyph-name="Q" unicode="Q" horiz-adv-x="666" 
d="M129 3c-59.333 76 -88.998 153.833 -88.998 233.5s33.333 147.334 100 203.001s152 83.5 256 83.5c57.333 0 112 -8 164 -24c48.667 -61.333 73 -127 73 -197c0 -95.333 -41.667 -176.333 -125 -243c7.33301 1.33301 20.666 4.66602 39.999 9.99902s35.166 8 47.499 8
s25.5 -2.33301 39.5 -7l72 -93c-13.333 16 -32.833 24 -58.5 24s-59.834 -3.66699 -102.501 -11s-71.667 -11.333 -87 -12c-13.333 6 -26.666 16 -39.999 30c-48.667 -20 -97 -30 -145 -30s-96.333 8.33301 -145 25zM281.002 435c-24 -41.333 -36 -88.5 -36 -141.5
s12 -102.333 36 -148s56.667 -78.5 98 -98.5c31.333 40 47 86.333 47 139s-12.833 101.667 -38.5 147s-61.167 79.333 -106.5 102z" />
    <glyph glyph-name="R" unicode="R" horiz-adv-x="706" 
d="M622 326l-1.00098 -34.001c-53.333 -28.667 -120 -51 -200 -67c57.333 -15.333 112.666 -23 165.999 -23h21c36.667 -54 60.334 -121.333 71.001 -202h-259c-6.66699 46.667 -20.167 86.834 -40.5 120.501s-45.166 56.5 -74.499 68.5c-0.666992 -11.333 -1 -34 -1 -68
s2 -74.333 6 -121h-218c-19.333 96.667 -29 186.5 -29 269.5s4.66699 159.833 14 230.5h522c15.333 -67.333 23 -125.333 23 -174zM325.999 432.999c-8 -58.667 -14 -116.334 -18 -173.001c36.667 5.33301 66.667 18.333 90 39c-12.667 44.667 -36.667 89.334 -72 134.001z
" />
    <glyph glyph-name="S" unicode="S" horiz-adv-x="635" 
d="M423 440c-26.667 4 -55.1729 6.00293 -85.5059 6.00293s-59.833 -2 -88.5 -6c18 -30.667 39.333 -55.667 64 -75s55.834 -38.5 93.501 -57.5s68.334 -36.5 92.001 -52.5s49.834 -42.333 78.501 -79s46.667 -75 54 -115c-32 -41.333 -74.333 -77.833 -127 -109.5
s-106.667 -52.834 -162 -63.501c-37.333 3.33301 -84.5 13.833 -141.5 31.5s-99.833 26.5 -128.5 26.5s-57.334 -9 -86.001 -27c12 34 31.667 76.667 59 128h8c42.667 0 82.834 -6.66699 120.501 -20s72 -26.666 103 -39.999s56 -20 75 -20s32.833 1.33301 41.5 4
c0 44 -13.667 80.333 -41 109c-14.667 15.333 -27.167 27.166 -37.5 35.499s-26.166 19.833 -47.499 34.5l-17 12c-45.333 31.333 -82.666 63.166 -111.999 95.499s-50.666 72.166 -63.999 119.499c21.333 47.333 42.333 88.333 63 123c63.333 15.333 129 23 197 23h44
c57.333 0 123 -8 197 -24c-10.667 -44 -23.667 -83.667 -39 -119c-56 -4 -99.333 -6 -130 -6c6 15.333 11.667 37.333 17 66z" />
    <glyph glyph-name="T" unicode="T" horiz-adv-x="705" 
d="M472 435c-17.333 -105.333 -26 -191.334 -26 -258.001s2.66699 -125.667 8 -177h-218c-22.667 106 -34 220 -34 342c0 20.667 0.666992 51.667 2 93c-56.667 -16.667 -91.334 -55 -104.001 -115l-99 6l36 174h665c-13.333 -73.333 -28.666 -133.333 -45.999 -180l-101 6
c2.66699 10.667 4 21.334 4 32.001c0 26 -8 45.333 -24 58s-37 19 -63 19z" />
    <glyph glyph-name="U" unicode="U" 
d="M658 500c2.66699 -43.333 4 -106.5 4 -189.5s-5.33301 -171.5 -16 -265.5c-69.333 -44.667 -152.333 -67 -249 -67c-128.667 0 -232.667 22.333 -312 67c-8.66699 72 -13 141.833 -13 209.5s5 149.5 15 245.5h269c-26.667 -144.667 -40.667 -283.667 -42 -417
c28 -25.333 68.333 -38 121 -38s93 9.33301 121 28c1.33301 22 2 53.667 2 95c0 105.333 -9.33301 216 -28 332h128z" />
    <glyph glyph-name="V" unicode="V" horiz-adv-x="703" 
d="M429 341c0 48.667 -8.66602 101.666 -25.999 158.999h267c0.666992 -10 1 -24.667 1 -44c0 -85.333 -11.333 -155.666 -34 -210.999c-61.333 -26.667 -110.5 -53.5 -147.5 -80.5s-55.5 -54.833 -55.5 -83.5s12.333 -55.667 37 -81h-251
c-112.667 143.333 -183.334 310 -212.001 500h273c2.66699 -122 34 -241 94 -357c36 60 54 126 54 198z" />
    <glyph glyph-name="W" unicode="W" horiz-adv-x="1040" 
d="M785 346c0 52 -8 103.329 -24 153.996h268c0.666992 -10 1 -24.667 1 -44c0 -85.333 -11.333 -156 -34 -212c-59.333 -17.333 -108.666 -40.333 -147.999 -69s-59 -58.167 -59 -88.5s13.667 -59.166 41 -86.499h-252c-41.333 61.333 -76.333 132.333 -105 213
c-22 -50 -33 -92.167 -33 -126.5s9.66699 -63.166 29 -86.499h-251c-51.333 68 -95 146.667 -131 236s-60.333 177.333 -73 264h266c11.333 -143.333 40.666 -262.333 87.999 -357c34 58 51 128.333 51 211c0 44.667 -5.66699 93.334 -17 146.001h238
c10.667 -132 42 -251 94 -357c34 62.667 51 130.334 51 203.001z" />
    <glyph glyph-name="X" unicode="X" 
d="M674 481c-21.333 -5.33301 -39.832 -7.99707 -55.499 -7.99707s-30.5 1 -44.5 3c-39.333 -28 -86.666 -73.667 -141.999 -137c80.667 -126 145 -239 193 -339h-249c-27.333 58.667 -54.666 111.667 -81.999 159c-74 -105.333 -131 -198.666 -171 -279.999
c-13.333 -3.33301 -33 -7.83301 -59 -13.5s-44.667 -9.83398 -56 -12.501c56 100 139.667 221.333 251 364c-68.667 107.333 -146.334 201.666 -233.001 282.999h311c15.333 -32.667 36.666 -70 63.999 -112l31 36.5c15.333 18.333 27.333 32.166 36 41.499
s20 20.666 34 33.999c27.333 26 55.666 44.333 84.999 55c11.333 3.33301 34.333 6.83301 69 10.5s59.667 10.5 75 20.5c-16 -36.667 -35 -71.667 -57 -105z" />
    <glyph glyph-name="Y" unicode="Y" horiz-adv-x="688" 
d="M660 481c-22.667 -5.33301 -41.665 -8.00195 -56.998 -8.00195s-30 1 -44 3c-20.667 -24.667 -39.334 -57.667 -56.001 -99s-29.167 -78.333 -37.5 -111s-17.5 -72.667 -27.5 -120c-50.667 -241.333 -101.334 -412.666 -152.001 -513.999
c-33.333 -10 -74.666 -19.667 -123.999 -29c66.667 114 120.667 246.333 162 397h-207c-52.667 170.667 -80 337.334 -82 500.001h292c-14 -62 -21 -127.833 -21 -197.5s11.333 -149.167 34 -238.5l24 94.5c11.333 45 19.666 77.167 24.999 96.5s13.5 46.666 24.5 81.999
s21 61.833 30 79.5s20.167 37.5 33.5 59.5c24 39.333 55.667 66 95 80c11.333 3.33301 34.333 6.83301 69 10.5s59.667 10.5 75 20.5c-18 -41.333 -36.667 -76.666 -56 -105.999z" />
    <glyph glyph-name="Z" unicode="Z" horiz-adv-x="638" 
d="M396 67l9.00098 0.000976562c28 0 50.667 6.33301 68 19s29.666 35 36.999 67c49.333 -1.33301 89.333 -2.66602 120 -3.99902c-10 -58 -23.333 -107.667 -40 -149h-571c90 161.333 188.667 304.666 296 429.999c-16 3.33301 -38 5 -66 5s-53.333 -8.5 -76 -25.5
s-37 -39.5 -43 -67.5c-51.333 3.33301 -84 5.66602 -98 6.99902l31 151h557c-118 -128 -220.667 -269 -308 -423c34.667 -6.66699 62.667 -10 84 -10z" />
    <glyph glyph-name="bracketleft" unicode="[" horiz-adv-x="249" 
d="M199 -116c-13.333 -0.666992 -42.999 -0.999023 -88.999 -0.999023s-69 2.66699 -69 8c14 149.333 21 289.333 21 420s-1.33301 232 -4 304c42 -6.66699 100.667 -10 176 -10c-10 -38.667 -21.667 -71.334 -35 -98.001c-5.33301 -0.666992 -16 -1 -32 -1
c-8 -115.333 -12 -223.666 -12 -324.999s0.333008 -167.333 1 -198c24 -1.33301 39.667 -2 47 -2s13.666 0.166992 18.999 0.5s9.33301 0.5 12 0.5c-10 -38.667 -21.667 -71.334 -35 -98.001z" />
    <glyph glyph-name="backslash" unicode="\" horiz-adv-x="372" 
d="M90 587c117.333 -269.333 232 -503 344 -701c-32.667 0 -73.667 6 -123 18l-10 2c-122 277.333 -237 511 -345 701c37.333 0 82 -6.66699 134 -20z" />
    <glyph glyph-name="bracketright" unicode="]" horiz-adv-x="248" 
d="M183 61c0 -38.667 0.668945 -96.6689 2.00195 -174.002c-58 -2 -96.333 -3 -115 -3s-37 1.66699 -55 5c13.333 30.667 20.666 65.334 21.999 104.001l23 -3l21 -4c8.66699 112.667 13 220 13 322s-0.333008 168 -1 198c-34 0 -60 2 -78 6
c13.333 32 20.666 66.333 21.999 103c23.333 -7.33301 75.333 -11 156 -11c10 0 15 0.333008 15 1c-16.667 -169.333 -25 -350.666 -25 -543.999z" />
    <glyph glyph-name="asciicircum" unicode="^" horiz-adv-x="430" 
d="M106 341h-93l152 159h99l151 -159h-92l-109 87z" />
    <glyph glyph-name="underscore" unicode="_" horiz-adv-x="532" 
d="M264 64c96.667 0 179.666 1.66699 248.999 5v-68c-96.667 4.66699 -179.5 7 -248.5 7s-151.833 -2.33301 -248.5 -7v68c68.667 -3.33301 151.334 -5 248.001 -5z" />
    <glyph glyph-name="grave" unicode="`" horiz-adv-x="273" 
d="M142 680c20.667 -55.333 55 -98.667 103 -130h-66c-24.667 11.333 -44.667 21.333 -60 30s-31.5 20.667 -48.5 36s-30.167 32 -39.5 50z" />
    <glyph glyph-name="a" unicode="a" horiz-adv-x="709" 
d="M690 8l0.000976562 -8h-232c-2.66699 38 -8.33398 77.333 -17.001 118c-41.333 -42 -88 -81.333 -140 -118h-233c-4.66699 27.333 -7 63.5 -7 108.5s6.66699 90.167 20 135.5c48 14 94.167 37.667 138.5 71s76.5 69.333 96.5 108c-18 28 -37 53.667 -57 77h332
c66 -143.333 99 -307.333 99 -492zM423.001 191c-17.333 59.333 -40 115.333 -68 168c-31.333 -92 -49.333 -179 -54 -261c48 24.667 88.667 55.667 122 93z" />
    <glyph glyph-name="b" unicode="b" horiz-adv-x="695" 
d="M322 65c45.333 0 82.333 3.66699 111 11c-12 74 -46 129 -102 165c-6 -59.333 -9 -118 -9 -176zM70 300c0 70 6.33301 136.667 19 200h555c-30 -93.333 -87.333 -161 -172 -203c76.667 -27.333 138 -65.333 184 -114c-6 -62 -20.333 -123 -43 -183h-503
c-26.667 92.667 -40 192.667 -40 300zM339 310c32.667 8.66699 62.999 23.6689 90.999 45.002s48 47.666 60 78.999c-53.333 0 -96.666 -1.66699 -129.999 -5c-8 -38.667 -15 -78.334 -21 -119.001z" />
    <glyph glyph-name="c" unicode="c" horiz-adv-x="632" 
d="M449 439c-23.333 4 -45.832 5.99902 -67.499 5.99902s-47.834 -3.66699 -78.501 -11c-10 -42 -15 -83 -15 -123c0 -103.333 46 -182.666 138 -237.999c61.333 40.667 116.666 91.334 165.999 152.001c2 -26.667 3.66699 -67.334 5 -122.001
c-49.333 -38.667 -99.666 -69 -150.999 -91s-115.333 -33 -192 -33h-23c-60 26 -107.167 64.333 -141.5 115s-51.5 104 -51.5 160c0 74.667 30.667 138.167 92 190.5s150.333 78.5 267 78.5c65.333 0 133.666 -8.33301 204.999 -25c-10.667 -42 -24 -81.667 -40 -119
c-42 -4 -85.333 -6 -130 -6c6.66699 18.667 12.334 40.667 17.001 66z" />
    <glyph glyph-name="d" unicode="d" horiz-adv-x="718" 
d="M315 523c128.667 0 233.334 -16.001 314.001 -48.001c28.667 -57.333 43 -115.333 43 -174c0 -75.333 -25.667 -140.666 -77 -195.999c-74.667 -79.333 -175.667 -119 -303 -119c-44 0 -103.667 5 -179 15c-26 134 -39 257.667 -39 371c0 39.333 2 82 6 128
c107.333 15.333 185.666 23 234.999 23zM345 447.999c-12 -125.333 -18 -215.167 -18 -269.5s1 -98.5 3 -132.5c36 19.333 64.167 51.833 84.5 97.5s30.5 92 30.5 139s-8.5 85.5 -25.5 115.5s-41.833 46.667 -74.5 50z" />
    <glyph glyph-name="e" unicode="e" horiz-adv-x="671" 
d="M415 299l94 -6c9.33301 0 16.333 0.333008 21 1l-47 -88h-9c-12.667 0 -30.667 3.5 -54 10.5s-40 10.5 -50 10.5c-27.333 0 -49 -17.667 -65 -53c-2.66699 -32.667 -4.66699 -65.334 -6 -98.001c34.667 -6.66699 62 -10 82 -10h9c28.667 0 51.5 6.33301 68.5 19
s29.167 35.334 36.5 68.001l120 -5c-10 -57.333 -23.333 -106.666 -40 -147.999h-491c-13.333 90 -20 179.333 -20 268s4.66699 166 14 232h536c-12 -72 -22.667 -122.667 -32 -152c-39.333 -2 -75.333 -3.33301 -108 -4c5.33301 15.333 8 29.666 8 42.999
c0 32 -24 48 -72 48c-18 0 -38 -2 -60 -6c-14.667 -63.333 -26 -119 -34 -167c26.667 24.667 59.667 37 99 37z" />
    <glyph glyph-name="f" unicode="f" horiz-adv-x="619" 
d="M413 284l94.998 -6c8.66699 0 15.334 0.333008 20.001 1l-47 -88h-9c-12.667 0 -30.667 3.5 -54 10.5s-40 10.5 -50 10.5c-26 0 -47 -17 -63 -51c-3.33301 -38 -5 -68 -5 -90s0.666992 -45.667 2 -71h-217c-12.667 85.333 -19 173.5 -19 264.5s4.66699 169.167 14 234.5
h534c-12 -72 -22.667 -122.333 -32 -151l-108 -5c6 16.667 9 31 9 43c0 32 -24.333 48 -73 48c-21.333 0 -41 -1.66699 -59 -5c-14.667 -59.333 -26.667 -120 -36 -182c26.667 24.667 59.334 37 98.001 37z" />
    <glyph glyph-name="g" unicode="g" horiz-adv-x="675" 
d="M416 49l1.00195 42.002c0 47.333 -4 103.666 -12 168.999h216c0 -94.667 -4.66699 -181.334 -14 -260.001c-103.333 -14.667 -210.333 -22 -321 -22h-64c-60.667 26 -108 64.167 -142 114.5s-51 103.833 -51 160.5c0 75.333 30.5 139.166 91.5 191.499
s150.167 78.5 267.5 78.5c61.333 0 129.666 -8.33301 204.999 -25c-11.333 -45.333 -24.333 -85.333 -39 -120c-40.667 -2.66699 -84.334 -4.66699 -131.001 -6c7.33301 22.667 12.666 45 15.999 67c-21.333 4 -43.166 6 -65.499 6s-48.833 -3.66699 -79.5 -11
c-10.667 -45.333 -16 -86.333 -16 -123c0 -55.333 12.5 -107.166 37.5 -155.499s58.5 -83.833 100.5 -106.5z" />
    <glyph glyph-name="h" unicode="h" horiz-adv-x="740" 
d="M699 417c0 -130.667 -12.666 -269.668 -37.999 -417.001h-239c10.667 78.667 17.667 163.334 21 254.001c-34.667 21.333 -73.334 34.333 -116.001 39c-4 -98 -14.667 -195.667 -32 -293h-227c8.66699 65.333 13 143.5 13 234.5s-6 179.5 -18 265.5h264
c1.33301 -27.333 2 -68 2 -122c38.667 -12 77 -28.333 115 -49c0 62 -2.33301 119 -7 171h260c1.33301 -37.333 2 -65 2 -83z" />
    <glyph glyph-name="i" unicode="i" horiz-adv-x="396" 
d="M341 500v-26.998c0 -176 -11 -333.667 -33 -473h-240c12.667 61.333 19 132.166 19 212.499s-5.33301 176.166 -16 287.499h270z" />
    <glyph glyph-name="j" unicode="j" horiz-adv-x="531" 
d="M192 -45c4.66699 52 7 123.834 7 215.501s-7.66699 201.5 -23 329.5h270c1.33301 -25.333 2 -64.333 2 -117c0 -141.333 -9.33301 -269 -28 -383c-26 -24.667 -50 -42.834 -72 -54.501l-45 -24c-8 -4.33301 -22.333 -11 -43 -20s-33 -14.5 -37 -16.5
c-85.333 6.66699 -158 21.667 -218 45c1.33301 44 3.33301 84.667 6 122c62 -44.667 122.333 -77 181 -97z" />
    <glyph glyph-name="k" unicode="k" horiz-adv-x="707" 
d="M570 507h32.9961c42.667 0 74.334 5 95.001 15c-29.333 -43.333 -57.666 -81 -84.999 -113h-16c-34 0 -67 5.33301 -99 16c-45.333 -37.333 -81.666 -87 -108.999 -149c70.667 -18 149.334 -28.667 236.001 -32c20 -50.667 33.667 -132 41 -244h-259
c-11.333 49.333 -28.5 94.833 -51.5 136.5s-46.833 70.167 -71.5 85.5c-4.66699 -54.667 -7 -98.667 -7 -132s1 -63.333 3 -90h-220c-12.667 98 -19 180.833 -19 248.5s5 151.5 15 251.5h278c-20 -82.667 -33.667 -152 -41 -208c30 49.333 61.5 90.833 94.5 124.5
s72.167 62.167 117.5 85.5c17.333 3.33301 39 5 65 5z" />
    <glyph glyph-name="l" unicode="l" horiz-adv-x="602" 
d="M364 66c28.667 0 51.5 6.50195 68.5 19.502s29.5 35.5 37.5 67.5l120 -4c-10 -60 -23.333 -109.667 -40 -149h-491c-12.667 85.333 -19 173.666 -19 264.999s4.66699 169.666 14 234.999h288c-44 -168.667 -66.667 -309.667 -68 -423c31.333 -7.33301 61.333 -11 90 -11z
" />
    <glyph glyph-name="m" unicode="m" horiz-adv-x="1052" 
d="M657 454c0 18 -2.66992 33.334 -8.00293 46.001h285c24 -64 41.833 -142.333 53.5 -235s17.834 -181 18.501 -265h-231c-4.66699 120 -24.334 235.667 -59.001 347c-58 -113.333 -89.333 -229 -94 -347h-196c-17.333 130.667 -50.666 246.667 -99.999 348
c-36 -84.667 -54 -163.334 -54 -236.001c0 -39.333 4.66699 -76.666 14 -111.999h-243c-4.66699 27.333 -7 63.5 -7 108.5s6.66699 90.167 20 135.5c47.333 14 92.833 37 136.5 69s75.834 67 96.501 105c-17.333 28.667 -35.666 56 -54.999 82h316
c25.333 -68.667 44.333 -143.334 57 -224.001c33.333 62 50 121.333 50 178z" />
    <glyph glyph-name="n" unicode="n" horiz-adv-x="715" 
d="M646 500c4 -70 6 -143.832 6 -221.499s-3.33301 -170.5 -10 -278.5h-96c-129.333 69.333 -248 163.666 -356 282.999c5.33301 -44.667 8 -90.5 8 -137.5s-1.66699 -95.5 -5 -145.5h-117c13.333 82 20 157.833 20 227.5s-3.33301 124.834 -10 165.501
c-26.667 40 -47.667 75.667 -63 107h284c28 -48 66.167 -97.5 114.5 -148.5s94.5 -90.833 138.5 -119.5c0 97.333 -11 186.666 -33 267.999h119z" />
    <glyph glyph-name="o" unicode="o" horiz-adv-x="658" 
d="M123 3c-59.333 76 -89.001 154 -89.001 234s33.333 147.667 100 203s152 83 256 83c55.333 0 110.333 -8.33301 165 -25c48 -60.667 72 -125.667 72 -195c0 -87.333 -35.667 -163.333 -107 -228s-157.666 -97 -258.999 -97c-43.333 0 -89.333 8.33301 -138 25z
M274.999 436c-23.333 -40 -35 -86.999 -35 -140.999s11.833 -103.833 35.5 -149.5s56.167 -78.5 97.5 -98.5c31.333 40 47 86.333 47 139s-12.833 101.667 -38.5 147s-61.167 79.666 -106.5 102.999z" />
    <glyph glyph-name="p" unicode="p" horiz-adv-x="665" 
d="M294 125c0 -38 1.66797 -79.667 5.00098 -125h-220c-27.333 106 -41 218.667 -41 338c0 60.667 3.66699 114.667 11 162h542c19.333 -75.333 30 -165 32 -269c-98.667 -44 -208.334 -72.667 -329.001 -86v-20zM295.001 214c42.667 5.33301 78.334 15.999 107.001 31.999
c-10.667 70.667 -39.334 133.334 -86.001 188.001c-10.667 -66 -17.667 -139.333 -21 -220z" />
    <glyph glyph-name="q" unicode="q" horiz-adv-x="666" 
d="M129 3c-59.333 76 -88.998 153.833 -88.998 233.5s33.333 147.334 100 203.001s152 83.5 256 83.5c57.333 0 112 -8 164 -24c48.667 -61.333 73 -127 73 -197c0 -95.333 -41.667 -176.333 -125 -243c7.33301 1.33301 20.666 4.66602 39.999 9.99902s35.166 8 47.499 8
s25.5 -2.33301 39.5 -7l72 -93c-13.333 16 -32.833 24 -58.5 24s-59.834 -3.66699 -102.501 -11s-71.667 -11.333 -87 -12c-13.333 6 -26.666 16 -39.999 30c-48.667 -20 -97 -30 -145 -30s-96.333 8.33301 -145 25zM281.002 435c-24 -41.333 -36 -88.5 -36 -141.5
s12 -102.333 36 -148s56.667 -78.5 98 -98.5c31.333 40 47 86.333 47 139s-12.833 101.667 -38.5 147s-61.167 79.333 -106.5 102z" />
    <glyph glyph-name="r" unicode="r" horiz-adv-x="706" 
d="M622 326l-1.00098 -34.001c-53.333 -28.667 -120 -51 -200 -67c57.333 -15.333 112.666 -23 165.999 -23h21c36.667 -54 60.334 -121.333 71.001 -202h-259c-6.66699 46.667 -20.167 86.834 -40.5 120.501s-45.166 56.5 -74.499 68.5c-0.666992 -11.333 -1 -34 -1 -68
s2 -74.333 6 -121h-218c-19.333 96.667 -29 186.5 -29 269.5s4.66699 159.833 14 230.5h522c15.333 -67.333 23 -125.333 23 -174zM325.999 432.999c-8 -58.667 -14 -116.334 -18 -173.001c36.667 5.33301 66.667 18.333 90 39c-12.667 44.667 -36.667 89.334 -72 134.001z
" />
    <glyph glyph-name="s" unicode="s" horiz-adv-x="635" 
d="M423 440c-26.667 4 -55.1729 6.00293 -85.5059 6.00293s-59.833 -2 -88.5 -6c18 -30.667 39.333 -55.667 64 -75s55.834 -38.5 93.501 -57.5s68.334 -36.5 92.001 -52.5s49.834 -42.333 78.501 -79s46.667 -75 54 -115c-32 -41.333 -74.333 -77.833 -127 -109.5
s-106.667 -52.834 -162 -63.501c-37.333 3.33301 -84.5 13.833 -141.5 31.5s-99.833 26.5 -128.5 26.5s-57.334 -9 -86.001 -27c12 34 31.667 76.667 59 128h8c42.667 0 82.834 -6.66699 120.501 -20s72 -26.666 103 -39.999s56 -20 75 -20s32.833 1.33301 41.5 4
c0 44 -13.667 80.333 -41 109c-14.667 15.333 -27.167 27.166 -37.5 35.499s-26.166 19.833 -47.499 34.5l-17 12c-45.333 31.333 -82.666 63.166 -111.999 95.499s-50.666 72.166 -63.999 119.499c21.333 47.333 42.333 88.333 63 123c63.333 15.333 129 23 197 23h44
c57.333 0 123 -8 197 -24c-10.667 -44 -23.667 -83.667 -39 -119c-56 -4 -99.333 -6 -130 -6c6 15.333 11.667 37.333 17 66z" />
    <glyph glyph-name="t" unicode="t" horiz-adv-x="705" 
d="M472 435c-17.333 -105.333 -26 -191.334 -26 -258.001s2.66699 -125.667 8 -177h-218c-22.667 106 -34 220 -34 342c0 20.667 0.666992 51.667 2 93c-56.667 -16.667 -91.334 -55 -104.001 -115l-99 6l36 174h665c-13.333 -73.333 -28.666 -133.333 -45.999 -180l-101 6
c2.66699 10.667 4 21.334 4 32.001c0 26 -8 45.333 -24 58s-37 19 -63 19z" />
    <glyph glyph-name="u" unicode="u" 
d="M658 500c2.66699 -43.333 4 -106.5 4 -189.5s-5.33301 -171.5 -16 -265.5c-69.333 -44.667 -152.333 -67 -249 -67c-128.667 0 -232.667 22.333 -312 67c-8.66699 72 -13 141.833 -13 209.5s5 149.5 15 245.5h269c-26.667 -144.667 -40.667 -283.667 -42 -417
c28 -25.333 68.333 -38 121 -38s93 9.33301 121 28c1.33301 22 2 53.667 2 95c0 105.333 -9.33301 216 -28 332h128z" />
    <glyph glyph-name="v" unicode="v" horiz-adv-x="703" 
d="M429 341c0 48.667 -8.66602 101.666 -25.999 158.999h267c0.666992 -10 1 -24.667 1 -44c0 -85.333 -11.333 -155.666 -34 -210.999c-61.333 -26.667 -110.5 -53.5 -147.5 -80.5s-55.5 -54.833 -55.5 -83.5s12.333 -55.667 37 -81h-251
c-112.667 143.333 -183.334 310 -212.001 500h273c2.66699 -122 34 -241 94 -357c36 60 54 126 54 198z" />
    <glyph glyph-name="w" unicode="w" horiz-adv-x="1040" 
d="M785 346c0 52 -8 103.329 -24 153.996h268c0.666992 -10 1 -24.667 1 -44c0 -85.333 -11.333 -156 -34 -212c-59.333 -17.333 -108.666 -40.333 -147.999 -69s-59 -58.167 -59 -88.5s13.667 -59.166 41 -86.499h-252c-41.333 61.333 -76.333 132.333 -105 213
c-22 -50 -33 -92.167 -33 -126.5s9.66699 -63.166 29 -86.499h-251c-51.333 68 -95 146.667 -131 236s-60.333 177.333 -73 264h266c11.333 -143.333 40.666 -262.333 87.999 -357c34 58 51 128.333 51 211c0 44.667 -5.66699 93.334 -17 146.001h238
c10.667 -132 42 -251 94 -357c34 62.667 51 130.334 51 203.001z" />
    <glyph glyph-name="x" unicode="x" 
d="M674 481c-21.333 -5.33301 -39.832 -7.99707 -55.499 -7.99707s-30.5 1 -44.5 3c-39.333 -28 -86.666 -73.667 -141.999 -137c80.667 -126 145 -239 193 -339h-249c-27.333 58.667 -54.666 111.667 -81.999 159c-74 -105.333 -131 -198.666 -171 -279.999
c-13.333 -3.33301 -33 -7.83301 -59 -13.5s-44.667 -9.83398 -56 -12.501c56 100 139.667 221.333 251 364c-68.667 107.333 -146.334 201.666 -233.001 282.999h311c15.333 -32.667 36.666 -70 63.999 -112l31 36.5c15.333 18.333 27.333 32.166 36 41.499
s20 20.666 34 33.999c27.333 26 55.666 44.333 84.999 55c11.333 3.33301 34.333 6.83301 69 10.5s59.667 10.5 75 20.5c-16 -36.667 -35 -71.667 -57 -105z" />
    <glyph glyph-name="y" unicode="y" horiz-adv-x="688" 
d="M660 481c-22.667 -5.33301 -41.665 -8.00195 -56.998 -8.00195s-30 1 -44 3c-20.667 -24.667 -39.334 -57.667 -56.001 -99s-29.167 -78.333 -37.5 -111s-17.5 -72.667 -27.5 -120c-50.667 -241.333 -101.334 -412.666 -152.001 -513.999
c-33.333 -10 -74.666 -19.667 -123.999 -29c66.667 114 120.667 246.333 162 397h-207c-52.667 170.667 -80 337.334 -82 500.001h292c-14 -62 -21 -127.833 -21 -197.5s11.333 -149.167 34 -238.5l24 94.5c11.333 45 19.666 77.167 24.999 96.5s13.5 46.666 24.5 81.999
s21 61.833 30 79.5s20.167 37.5 33.5 59.5c24 39.333 55.667 66 95 80c11.333 3.33301 34.333 6.83301 69 10.5s59.667 10.5 75 20.5c-18 -41.333 -36.667 -76.666 -56 -105.999z" />
    <glyph glyph-name="z" unicode="z" horiz-adv-x="638" 
d="M396 67l9.00098 0.000976562c28 0 50.667 6.33301 68 19s29.666 35 36.999 67c49.333 -1.33301 89.333 -2.66602 120 -3.99902c-10 -58 -23.333 -107.667 -40 -149h-571c90 161.333 188.667 304.666 296 429.999c-16 3.33301 -38 5 -66 5s-53.333 -8.5 -76 -25.5
s-37 -39.5 -43 -67.5c-51.333 3.33301 -84 5.66602 -98 6.99902l31 151h557c-118 -128 -220.667 -269 -308 -423c34.667 -6.66699 62.667 -10 84 -10z" />
    <glyph glyph-name="braceleft" unicode="{" horiz-adv-x="254" 
d="M147 605l66.999 0.00195312c-18.667 -78 -30.5 -155 -35.5 -231s-19.5 -118.667 -43.5 -128c25.333 -10 42.333 -46 51 -108c10.667 -84.667 31.667 -168.667 63 -252c-25.333 3.33301 -62.666 10 -111.999 20c-48 74 -75.667 159 -83 255
c-3.33301 37.333 -12 61.666 -26 72.999c-6 5.33301 -13.667 9.33301 -23 12c18.667 4 31.667 17.333 39 40c6.66699 19.333 13 49.333 19 90c15.333 85.333 43.333 161.666 84 228.999z" />
    <glyph glyph-name="bar" unicode="|" horiz-adv-x="129" 
d="M31 -119c5.33301 206 8 331 8 375s-3 158.333 -9 343h69c-6 -139.333 -9 -257 -9 -353s3 -217.667 9 -365h-68z" />
    <glyph glyph-name="braceright" unicode="}" horiz-adv-x="252" 
d="M107 -114l-66.998 0.00195312c20 90 32 166.667 36 230c3.33301 77.333 17.666 120.666 42.999 129.999c-26.667 9.33301 -43.667 45 -51 107c-12.667 93.333 -33.667 177.333 -63 252c22 -2.66699 59.333 -9.33398 112 -20.001c42.667 -64.667 70 -142 82 -232
c0 -19.333 2 -36.5 6 -51.5s7.66699 -24.833 11 -29.5c7.33301 -13.333 18.666 -22 33.999 -26c-20.667 -4 -34.667 -17.333 -42 -40c-6.66699 -22 -11 -41.667 -13 -59c-10.667 -94 -40 -181 -88 -261z" />
    <glyph glyph-name="asciitilde" unicode="~" horiz-adv-x="449" 
d="M134 224c-36 0 -70.999 -13.667 -104.999 -41l37 89c29.333 14.667 64 22 104 22c18.667 0 45 -6.16699 79 -18.5s60.333 -18.5 79 -18.5c35.333 0 70 13.667 104 41l-37 -89c-26.667 -14.667 -61.334 -22 -104.001 -22c-18.667 0 -45 6.16699 -79 18.5
s-60 18.5 -78 18.5z" />
    <glyph glyph-name="uni00A0" unicode="&#xa0;" horiz-adv-x="0" 
 />
    <glyph glyph-name="exclamdown" unicode="&#xa1;" horiz-adv-x="302" 
d="M283 0l-268.001 -32c44 117.333 68.333 249 73 395c26.667 8 60 13.333 100 16c22.667 -42 43.334 -99.5 62.001 -172.5s29.667 -141.833 33 -206.5zM32.999 517c24.667 4 54.832 5.99902 90.499 5.99902s57.167 -0.333008 64.5 -1c13.333 -25.333 25 -57.666 35 -96.999
h-33c-52 0 -97 -3.33301 -135 -10c-1.33301 38 -8.66602 72 -21.999 102z" />
    <glyph glyph-name="cent" unicode="&#xa2;" horiz-adv-x="663" 
d="M38 253c0 70.667 27.333 131.663 82 182.996s134.334 80 239.001 86c2 8 4.33301 20.667 7 38h54c-4.66699 -19.333 -7.33398 -31.666 -8.00098 -36.999c58 -1.33301 121.333 -9.66602 190 -24.999c-10 -40 -23.333 -80 -40 -120
c-36.667 -3.33301 -80 -5.66602 -130 -6.99902c6.66699 24.667 12 47.334 16 68.001c-18 2.66699 -35.667 4.66699 -53 6c-26.667 -132.667 -45.667 -232 -57 -298c22 -27.333 51.667 -52 89 -74c61.333 40.667 116 91.334 164 152.001
c2.66699 -36.667 4.66699 -77.334 6 -122.001c-90.667 -72 -186 -112.667 -286 -122l-6 -38h-54c2 9.33301 4.33301 21 7 35h-28c-60 26 -107 64.167 -141 114.5s-51 103.833 -51 160.5zM303 433.996c-10.667 -44.667 -16 -85.501 -16 -122.501s6 -71.167 18 -102.5
c6 30.667 19.667 108.334 41 233.001z" />
    <glyph glyph-name="sterling" unicode="&#xa3;" horiz-adv-x="588" 
d="M114 275h101.999c-10.667 47.333 -38.667 98 -84 152c24.667 44.667 57.667 85 99 121c90 -0.666992 158.333 -13.667 205 -39c0 -23.333 -2 -55 -6 -95c-40 54.667 -95.333 82 -166 82c4.66699 -8.66699 25.334 -39.834 62.001 -93.501s61 -96.834 73 -129.501
c20.667 0 51.667 0.666992 93 2v-49h-80l2 -22c0 -68.667 -15.333 -122 -46 -160c18.667 -2.66699 39.667 -4 63 -4c58 0 109.667 10.667 155 32c-18 -44.667 -37.333 -85 -58 -121c-64 0 -130 16.667 -198 50c-46.667 -18.667 -99.667 -28 -159 -28h-10
c-53.333 0.666992 -100.333 10 -141 28c4 19.333 9.66699 38 17 56c42.667 12.667 82 19.334 118 20.001c38.667 42.667 60 92.667 64 150c-46.667 -1.33301 -81.667 -2.66602 -105 -3.99902v52z" />
    <glyph glyph-name="currency" unicode="&#xa4;" horiz-adv-x="312" 
d="M309 117l-47.002 -47l-41 46c-19.333 -12 -40.666 -18 -63.999 -18s-44.666 6 -63.999 18l-41 -46l-47 47l45 42c-11.333 18.667 -17 39.834 -17 63.501s6 44.834 18 63.501l-46 41l47 47l42 -45c18.667 11.333 39.667 17 63 17s44.333 -5.66699 63 -17l42 45l47 -47
l-46 -41c12 -18.667 18 -39.834 18 -63.501s-5.66699 -44.834 -17 -63.501zM156.998 302c-22 0 -40.833 -7.83301 -56.5 -23.5s-23.5 -34.5 -23.5 -56.5s7.83301 -40.833 23.5 -56.5s34.5 -23.5 56.5 -23.5s40.833 7.83301 56.5 23.5s23.5 34.5 23.5 56.5
s-7.83301 40.833 -23.5 56.5s-34.5 23.5 -56.5 23.5z" />
    <glyph glyph-name="yen" unicode="&#xa5;" horiz-adv-x="734" 
d="M119 186c-42 0 -73.334 -0.332031 -94.001 -0.999023v50h146c-12.667 12.667 -25 28.334 -37 47.001c-71.333 -2 -107.666 -3 -108.999 -3v53c8.66699 0 21.834 -0.166992 39.501 -0.5s31.167 -0.5 40.5 -0.5c-28 52.667 -49.667 109 -65 169h273
c4 -68 11.667 -126 23 -174s31 -93.667 59 -137c44.667 47.333 67 99.666 67 156.999c0 34.667 -9.33301 86 -28 154h268v-21c0 -53.333 -8.66699 -102.333 -26 -147h41v-53c-29.333 1.33301 -51.333 2 -66 2c-11.333 -18 -23.333 -34 -36 -48
c22.667 0 56.667 0.666992 102 2v-53h-153c-27.333 -17.333 -50.333 -30.333 -69 -39c-2.66699 -50.667 -9.33398 -98.334 -20.001 -143.001h-263c28 53.333 44.667 102 50 146c-18 12.667 -34 26 -48 40h-95z" />
    <glyph glyph-name="brokenbar" unicode="&#xa6;" horiz-adv-x="117" 
d="M25 323c3.33301 48.667 5 93.5 5 134.5s-1.66699 88.167 -5 141.5h67c-4 -47.333 -6 -94 -6 -140s2 -91.333 6 -136h-67zM25 -120c3.33301 48.667 5 93.668 5 135.001s-1.66699 88.666 -5 141.999h67c-4 -48 -6 -95 -6 -141s2 -91.333 6 -136h-67z" />
    <glyph glyph-name="section" unicode="&#xa7;" horiz-adv-x="546" 
d="M257 608l21.999 0.00195312c66 0 129.333 -6.66699 190 -20c-10.667 -36 -22.334 -70.667 -35.001 -104l-112 -5c7.33301 20.667 12 40 14 58c-19.333 6.66699 -40.166 10 -62.499 10s-43.166 -4.66699 -62.499 -14c16 -26.667 36.667 -49.667 62 -69
s49.666 -34.166 72.999 -44.499s49.333 -25.333 78 -45s53 -42.834 73 -69.501c-7.33301 -24.667 -18.666 -51.667 -33.999 -81s-29.666 -53 -42.999 -71c-8 -2 -21.333 -4 -40 -6c49.333 -28 87.333 -60 114 -96c-12.667 -46.667 -38 -97 -76 -151
c-47.333 -10 -104 -15 -170 -15h-19c-55.333 0 -115.333 7 -180 21c10.667 41.333 22 75.666 34 102.999l113 6c-8.66699 -20.667 -14 -40 -16 -58c21.333 -8 50 -12 86 -12s64.333 5.33301 85 16c-20 24 -72.333 62.333 -157 115c-27.333 17.333 -54.333 41.166 -81 71.499
s-44.667 63.166 -54 98.499c12.667 22.667 34.667 54.334 66 95.001c18.667 4 33.667 6.66699 45 8c-58 47.333 -94.333 97.333 -109 150c21.333 37.333 43.666 69 66.999 95c45.333 9.33301 88.333 14 129 14zM285.999 197.002c32.667 2 57.334 5.66895 74.001 11.002
c-16 19.333 -53.333 48.666 -112 87.999c-14.667 -0.666992 -32.334 -4.33398 -53.001 -11.001c20 -28.667 50.333 -58 91 -88z" />
    <glyph glyph-name="dieresis" unicode="&#xa8;" horiz-adv-x="344" 
d="M116 576l-40.001 -1c-13.333 0 -32.666 0.666992 -57.999 2c16.667 39.333 26.667 73 30 101c35.333 -3.33301 69.333 -5.33301 102 -6c-8 -36 -19.333 -68 -34 -96zM294.999 576l-41.001 -1.00098c-12.667 0 -31.667 0.666992 -57 2c16 40.667 26 74.334 30 101.001
c34.667 -3.33301 68.667 -5.33301 102 -6c-9.33301 -37.333 -20.666 -69.333 -33.999 -96z" />
    <glyph glyph-name="copyright" unicode="&#xa9;" horiz-adv-x="541" 
d="M318 342c-11.333 2 -22.1689 2.99805 -32.502 2.99805s-23.166 -1.66699 -38.499 -5c-5.33301 -23.333 -8 -43 -8 -59c0 -50.667 22.667 -89.667 68 -117c30 19.333 57 44 81 74l3 -60c-50 -40 -109.667 -60 -179 -60c-29.333 12.667 -52.333 31.334 -69 56.001
s-25 53 -25 85s15 60.667 45 86s73.333 38 130 38c30 0 63.333 -4 100 -12c-4.66699 -21.333 -11 -40.666 -19 -57.999c-21.333 -2 -42.666 -3 -63.999 -3c2 5.33301 4.66699 16 8 32zM262.997 471.998c-61.333 0 -113.501 -21.667 -156.501 -65
s-64.5 -95.666 -64.5 -156.999s21.667 -113.5 65 -156.5s95.5 -64.5 156.5 -64.5s113.167 21.5 156.5 64.5s65 95.167 65 156.5s-21.667 113.666 -65 156.999s-95.666 65 -156.999 65zM262.996 499.998c68.667 0 127.5 -24.333 176.5 -73s73.5 -107.667 73.5 -177
s-24.5 -128.333 -73.5 -177s-107.833 -73 -176.5 -73s-127.5 24.333 -176.5 73s-73.5 107.667 -73.5 177s24.5 128.333 73.5 177s107.833 73 176.5 73z" />
    <glyph glyph-name="ordfeminine" unicode="&#xaa;" horiz-adv-x="503" 
d="M481 222h-170c-2 29.333 -6 58 -12 86c-28.667 -30 -62.667 -58.667 -102 -86h-171c-3.33301 23.333 -5 50.5 -5 81.5s5 63.167 15 96.5c35.333 10 69.333 27.333 102 52s56 51 70 79c-11.333 16.667 -25.333 35.334 -42 56.001h242
c48.667 -104.667 73 -226.334 73 -365.001zM286 362c-14 45.333 -30.333 86.001 -49 122.001c-22.667 -64.667 -36 -128.334 -40 -191.001c36 19.333 65.667 42.333 89 69z" />
    <glyph glyph-name="guillemotleft" unicode="&#xab;" horiz-adv-x="362" 
d="M113 23l-109 221l109 221h82l-76 -221l76 -221h-82zM271 23l-110 221l110 221h81l-75 -221l75 -221h-81z" />
    <glyph glyph-name="logicalnot" unicode="&#xac;" horiz-adv-x="615" 
d="M50 222c92 -3.33301 177.833 -5 257.5 -5s165.5 1.66699 257.5 5c-2 -34 -3 -64.5 -3 -91.5s1 -55.833 3 -86.5h-67c2 34 3 62 3 84v30c-55.333 2.66699 -124.5 4 -207.5 4s-164.167 -2.33301 -243.5 -7v67z" />
    <glyph glyph-name="uni00AD" unicode="&#xad;" horiz-adv-x="381" 
d="M93 305l66.999 -1c102.667 0 171.334 5.66699 206.001 17c-21.333 -34.667 -46.333 -67 -75 -97h-30c-100.667 0 -183.667 7 -249 21l15 13c28.667 25.333 50.667 41 66 47z" />
    <glyph glyph-name="registered" unicode="&#xae;" horiz-adv-x="549" 
d="M243 221l-1.00293 -24c0 -16 1.33301 -39.333 4 -70h-109c-9.33301 44 -14 88.5 -14 133.5s2.33301 83.5 7 115.5h260c7.33301 -35.333 11 -70 11 -104c-27.333 -14.667 -60.666 -25.667 -99.999 -33c30 -8 61.333 -12 94 -12c18.667 -26 30.334 -59.333 35.001 -100
h-129c-3.33301 23.333 -10.166 43.333 -20.499 60s-22.833 28 -37.5 34zM271.997 473c-61.333 0 -113.5 -21.667 -156.5 -65s-64.5 -95.5 -64.5 -156.5s21.5 -113.167 64.5 -156.5s95.167 -65 156.5 -65s113.5 21.667 156.5 65s64.5 95.5 64.5 156.5
s-21.5 113.167 -64.5 156.5s-95.167 65 -156.5 65zM271.997 501c69.333 0 128.333 -24.5 177 -73.5s73 -107.833 73 -176.5s-24.333 -127.5 -73 -176.5s-107.667 -73.5 -177 -73.5s-128.333 24.5 -177 73.5s-73 107.833 -73 176.5s24.333 127.5 73 176.5
s107.667 73.5 177 73.5zM253.997 342c-4 -28.667 -7 -57.333 -9 -86c19.333 3.33301 34.333 10 45 20c-7.33301 23.333 -19.333 45.333 -36 66z" />
    <glyph glyph-name="degree" unicode="&#xb0;" horiz-adv-x="245" 
d="M104 585c-4 -12.667 -6.00098 -28.667 -6.00098 -48s3.83301 -39.333 11.5 -60s17.834 -35 30.501 -43c6 14 9 30.667 9 50s-4 38.5 -12 57.5s-19 33.5 -33 43.5zM46.999 415c-22 29.333 -33.001 59.834 -33.001 91.501s12.833 58.334 38.5 80.001s58.5 32.5 98.5 32.5
c18.667 0 37.334 -2.33301 56.001 -7c18.667 -24.667 28 -52.334 28 -83.001s-13.333 -58.834 -40 -84.501s-59 -38.5 -97 -38.5c-17.333 0 -34.333 3 -51 9z" />
    <glyph glyph-name="plusminus" unicode="&#xb1;" horiz-adv-x="284" 
d="M118 315c0 35.333 -1 70.667 -3 106h53c-3.33301 -38.667 -5 -74 -5 -106c36.667 0 72.334 1 107.001 3v-52c-46 2.66699 -81.667 4.33398 -107 5.00098c0 -32 1.66699 -68 5 -108h-53c2 36 3 72 3 108c-24.667 -0.666992 -60 -2.33398 -106 -5.00098v52
c35.333 -2 70.666 -3 105.999 -3zM12 117.001c36.667 -2.66699 78.833 -4 126.5 -4s91.5 1.33301 131.5 4v-53c-48.667 3.33301 -92.167 5 -130.5 5s-80.833 -1.66699 -127.5 -5v53z" />
    <glyph glyph-name="twosuperior" unicode="&#xb2;" horiz-adv-x="426" 
d="M235 268c51.333 0 84.999 21.332 100.999 63.999c32 -1.33301 55 -2.33301 69 -3c-4 -40.667 -13.667 -76.667 -29 -108h-347c113.333 110.667 170 195.334 170 254.001c0 28.667 -12 51.667 -36 69c-25.333 -18.667 -44 -41.667 -56 -69
c-6.66699 2 -17.667 5.5 -33 10.5l-36 11.5c24.667 38.667 53.334 68.667 86.001 90h199c36 -26.667 61.333 -60 76 -100c-18.667 -36 -49 -72.833 -91 -110.5s-91.333 -72.167 -148 -103.5c26.667 -3.33301 51.667 -5 75 -5z" />
    <glyph glyph-name="threesuperior" unicode="&#xb3;" horiz-adv-x="398" 
d="M219 534c-8.66699 3.33301 -23.668 5.00098 -45.001 5.00098s-37.833 -2.66699 -49.5 -8s-18.834 -11 -21.501 -17c-2 -4 -5.33301 -15.333 -10 -34c-15.333 0 -35.666 0.666992 -60.999 2c4.66699 27.333 12.334 62.333 23.001 105h324
c-26 -58.667 -75.333 -109.334 -148 -152.001c62 -16.667 113.333 -39.667 154 -69c-22.667 -56.667 -58.334 -105 -107.001 -145h-229c32.667 20 66.334 46.5 101.001 79.5s58.667 61.833 72 86.5c-26.667 20 -57.334 33.667 -92.001 41
c36.667 20 66.334 55.333 89.001 106z" />
    <glyph glyph-name="acute" unicode="&#xb4;" horiz-adv-x="273" 
d="M138 680l111 -13.999c-9.33301 -18 -22.5 -34.667 -39.5 -50s-33.167 -27.333 -48.5 -36s-35.333 -18.667 -60 -30h-66c48 31.333 82.333 74.666 103 129.999z" />
    <glyph glyph-name="mu" unicode="&#xb5;" horiz-adv-x="767" 
d="M732 500c0 -194 -11.332 -360.667 -33.999 -500h-225c3.33301 16 5.66602 35 6.99902 57c-14 -20 -35.667 -35.667 -65 -47s-65.833 -17 -109.5 -17s-78.167 10 -103.5 30c0.666992 -81.333 9.66699 -171.666 27 -270.999h-146c-16.667 174 -25 363.333 -25 568
c0 40 0.666992 100 2 180h274c-10.667 -78.667 -19.667 -186.334 -27 -323.001v-14c0 -27.333 5 -47.166 15 -59.499s27 -18.5 51 -18.5c48.667 0 83 26 103 78c1.33301 29.333 2 66.166 2 110.499s-5.33301 119.833 -16 226.5h270z" />
    <glyph glyph-name="paragraph" unicode="&#xb6;" horiz-adv-x="434" 
d="M289 540l-21.999 -1c-3.33301 -118.667 -5 -228.167 -5 -328.5s2 -208.5 6 -324.5h-66c2.66699 142.667 4 244.667 4 306v70c-48.667 0 -89.834 15.667 -123.501 47s-50.5 69.333 -50.5 114s16.667 82.834 50 114.501s74.333 47.834 123 48.501h176
c-4 -122 -6 -240.167 -6 -354.5s2 -229.5 6 -345.5h-67c3.33301 123.333 5 225.666 5 306.999s-1.33301 196.666 -4 345.999h-4z" />
    <glyph glyph-name="periodcentered" unicode="&#xb7;" horiz-adv-x="133" 
d="M30 291.5c10 9.66699 21.833 14.5 35.5 14.5s25.334 -4.83301 35.001 -14.5s14.5 -21.334 14.5 -35.001s-4.83301 -25.5 -14.5 -35.5s-21.334 -15 -35.001 -15s-25.5 5 -35.5 15s-15 21.833 -15 35.5s5 25.334 15 35.001z" />
    <glyph glyph-name="cedilla" unicode="&#xb8;" horiz-adv-x="183" 
d="M77 -48l43.001 7.00098c11.333 0 21.833 -3.16699 31.5 -9.5s15.167 -14.5 16.5 -24.5v-5c0 -26 -11.833 -49.833 -35.5 -71.5s-53.834 -32.834 -90.501 -33.501l-6 21c20 0 35.5 4.83301 46.5 14.5s16.5 20.5 16.5 32.5c0 17.333 -10.667 26 -32 26
c-4 0 -19.333 -5 -46 -15l44 128h36z" />
    <glyph glyph-name="onesuperior" unicode="&#xb9;" horiz-adv-x="298" 
d="M278 482c0 -94.667 -5 -181.667 -15 -261h-166c2.66699 32 4 67.5 4 106.5s-3 82.5 -9 130.5l-48 -34l-33 58c67.333 25.333 127.333 60.333 180 105h85c1.33301 -46.667 2 -81.667 2 -105z" />
    <glyph glyph-name="ordmasculine" unicode="&#xba;" horiz-adv-x="422" 
d="M68 225c-40.667 54 -61.001 109.668 -61.001 167.001s23.5 106 70.5 146s107.5 60 181.5 60c33.333 0 67.333 -4.33301 102 -13c34 -44.667 51 -92 51 -142c0 -62.667 -24.167 -117.334 -72.5 -164.001s-107.166 -70 -176.499 -70c-31.333 0 -63 5.33301 -95 16z
M171.999 535.001c-6.66699 -22 -10 -50.833 -10 -86.5s7 -72.5 21 -110.5s32.667 -64.667 56 -80c10.667 24 16 54 16 90s-7.33301 71.833 -22 107.5s-35 62.167 -61 79.5z" />
    <glyph glyph-name="guillemotright" unicode="&#xbb;" horiz-adv-x="362" 
d="M355 244l-109 -221h-82l76 221l-76 221h82zM198 244l-110 -221h-81l75 221l-75 221h81z" />
    <glyph glyph-name="onequarter" unicode="&#xbc;" horiz-adv-x="859" 
d="M272 485c0 -97.333 -5.33301 -185.002 -16 -263.002h-166c2.66699 32.667 4 69.834 4 111.501s-2.66699 83.5 -8 125.5l-48 -34l-33 58c65.333 24.667 125 59.334 179 104.001h86c1.33301 -45.333 2 -79.333 2 -102zM612 21.998l0.00195312 17.002c0 18.667 -2 42 -6 70
l-2 11h184c0 -12.667 -0.666992 -23.667 -2 -33c-2 -21.333 -3.66699 -43 -5 -65c21.333 4 42.666 12.667 63.999 26c-15.333 -38 -26 -62.667 -32 -74h-37l-6 -55h-168c3.33301 20.667 6 39 8 55h-165l-12 64c30.667 31.333 57 70.166 79 116.499s36 89.833 42 130.5h159
c-21.333 -54.667 -71 -117.334 -149 -188.001c-14.667 -13.333 -34.334 -30.333 -59.001 -51l-12 -11c33.333 -8.66699 73 -13 119 -13zM491.002 587c52 13.333 96.667 20 134 20c-108 -190 -223 -423.667 -345 -701l-10 -2c-49.333 -12 -90.333 -18 -123 -18
c112 198 226.667 431.667 344 701z" />
    <glyph glyph-name="onehalf" unicode="&#xbd;" horiz-adv-x="945" 
d="M123 231l4 95c0 40 -3 84.333 -9 133l-48 -34l-33 58c67.333 25.333 127 60 179 104h86c1.33301 -45.333 2 -79.333 2 -102c0 -97.333 -5.33301 -185 -16 -263h-165v9zM644 -29c26.667 -3.33301 53 -5 79 -5c48.667 0 81 21.333 97 64l69 -3c-6 -46 -16 -82 -30 -108
h-347c114 109.333 171 194 171 254c0 28.667 -12 51.667 -36 69c-24.667 -18.667 -43.334 -41.667 -56.001 -69l-69 21c24.667 40 53.334 70 86.001 90h199c36 -26.667 61.333 -60 76 -100c-18.667 -35.333 -49 -71.833 -91 -109.5s-91.333 -72.167 -148 -103.5zM540 587
c52 13.333 96.667 20 134 20c-108 -190 -223 -423.667 -345 -701l-10 -2c-49.333 -12 -90.333 -18 -123 -18c112 198 226.667 431.667 344 701z" />
    <glyph glyph-name="threequarters" unicode="&#xbe;" horiz-adv-x="921" 
d="M676 22c0 30.667 -2.00098 59.666 -6.00098 86.999l-2 11h184c0 -12.667 -0.666992 -23.667 -2 -33c-2 -21.333 -3.66699 -43 -5 -65c21.333 4 42.666 12.667 63.999 26c-15.333 -38 -26 -62.667 -32 -74h-37l-6 -55h-168c4 22 6.33301 40.333 7 55h-164l-12 64
c30.667 31.333 56.834 70 78.501 116s35.5 89.333 41.5 130h159c-17.333 -42 -47.166 -85.667 -89.499 -131s-85.5 -84.666 -129.5 -117.999c33.333 -8.66699 73 -13 119 -13zM209.999 533.999c-8.66699 3.33301 -23.6699 4.99902 -45.0029 4.99902
s-38.166 -2.66699 -50.499 -8s-19.833 -11 -22.5 -17s-4.66699 -12.833 -6 -20.5s-2.33301 -12.167 -3 -13.5c-14 0 -34.333 0.666992 -61 2c6 30 14 64.667 24 104h324c-26 -57.333 -75.333 -108 -148 -152c62.667 -17.333 114 -40 154 -68
c-24 -57.333 -59.667 -105.666 -107 -144.999h-229c32.667 20.667 66.334 47.5 101.001 80.5s58.334 61.5 71.001 85.5c-26.667 20 -57 33.667 -91 41c37.333 20.667 67 56 89 106zM556.996 586.998c52 13.333 96.667 20 134 20c-108 -190 -223 -423.667 -345 -701l-10 -2
c-49.333 -12 -90.333 -18 -123 -18c112 198 226.667 431.667 344 701z" />
    <glyph glyph-name="questiondown" unicode="&#xbf;" horiz-adv-x="489" 
d="M216 -23c-64 0 -131 7.66504 -201 22.998c8 42 20.667 81 38 117c48 4.66699 90.667 7 128 7c-7.33301 -27.333 -13 -51.666 -17 -72.999c14.667 -3.33301 29 -5 43 -5s29.667 3 47 9c13.333 24.667 20 51.5 20 80.5s-13.833 71 -41.5 126s-44.167 91.833 -49.5 110.5
c20.667 5.33301 54 10.333 100 15c12 -38 45.333 -81 100 -129c20 -18 38.667 -39.333 56 -64s27.333 -49 30 -73c0 -43.333 -20 -78.166 -60 -104.499s-104.333 -39.5 -193 -39.5zM128 516.998c26 4 56.499 5.99902 91.499 5.99902s56.167 -0.333008 63.5 -1
c14 -27.333 25.667 -59.666 35 -96.999c-74 0 -130 -3.33301 -168 -10c-1.33301 37.333 -8.66602 71.333 -21.999 102z" />
    <glyph glyph-name="Agrave" unicode="&#xc0;" horiz-adv-x="767" 
d="M81 244c48 14 94.168 37.667 138.501 71s76.5 69.333 96.5 108c-18 28 -37 53.667 -57 77h332c66 -143.333 99 -307.333 99 -492v-8h-232c-2.66699 38 -8.33398 77.333 -17.001 118c-41.333 -42 -88 -81.333 -140 -118h-233c-4.66699 27.333 -7 63.5 -7 108.5
s6.66699 90.167 20 135.5zM423.001 191c-17.333 59.333 -40 115.333 -68 168c-31.333 -92 -49.333 -179 -54 -261c48 24.667 88.667 55.667 122 93zM387.001 680c20.667 -55.333 55 -98.667 103 -130h-66c-24.667 11.333 -44.667 21.333 -60 30s-31.5 20.667 -48.5 36
s-30.167 32 -39.5 50z" />
    <glyph glyph-name="Aacute" unicode="&#xc1;" horiz-adv-x="767" 
d="M690 8l0.000976562 -8h-232c-2.66699 38 -8.33398 77.333 -17.001 118c-41.333 -42 -88 -81.333 -140 -118h-233c-4.66699 27.333 -7 63.5 -7 108.5s6.66699 90.167 20 135.5c48 14 94.167 37.667 138.5 71s76.5 69.333 96.5 108c-18 28 -37 53.667 -57 77h332
c66 -143.333 99 -307.333 99 -492zM423.001 191c-17.333 59.333 -40 115.333 -68 168c-31.333 -92 -49.333 -179 -54 -261c48 24.667 88.667 55.667 122 93zM379.001 680l111 -13.999c-9.33301 -18 -22.5 -34.667 -39.5 -50s-33.167 -27.333 -48.5 -36
s-35.333 -18.667 -60 -30h-66c48 31.333 82.333 74.666 103 129.999z" />
    <glyph glyph-name="Acircumflex" unicode="&#xc2;" horiz-adv-x="767" 
d="M81 244c48 14 94.168 37.667 138.501 71s76.5 69.333 96.5 108c-18 28 -37 53.667 -57 77h332c66 -143.333 99 -307.333 99 -492v-8h-232c-2.66699 38 -8.33398 77.333 -17.001 118c-41.333 -42 -88 -81.333 -140 -118h-233c-4.66699 27.333 -7 63.5 -7 108.5
s6.66699 90.167 20 135.5zM423.001 191c-17.333 59.333 -40 115.333 -68 168c-31.333 -92 -49.333 -179 -54 -261c48 24.667 88.667 55.667 122 93zM284.001 558l90 115h49l90 -115h-32l-83 62l-82 -62h-32z" />
    <glyph glyph-name="Atilde" unicode="&#xc3;" horiz-adv-x="767" 
d="M690 8l0.000976562 -8h-232c-2.66699 38 -8.33398 77.333 -17.001 118c-41.333 -42 -88 -81.333 -140 -118h-233c-4.66699 27.333 -7 63.5 -7 108.5s6.66699 90.167 20 135.5c48 14 94.167 37.667 138.5 71s76.5 69.333 96.5 108c-18 28 -37 53.667 -57 77h332
c66 -143.333 99 -307.333 99 -492zM423.001 191c-17.333 59.333 -40 115.333 -68 168c-31.333 -92 -49.333 -179 -54 -261c48 24.667 88.667 55.667 122 93zM485.501 586.5c-13.667 -7.66699 -30.3281 -11.501 -49.9951 -11.501s-40.834 6.83301 -63.501 20.5
s-39.334 20.5 -50.001 20.5c-24.667 0 -46.667 -11 -66 -33l13 40c8 9.33301 18.167 17.833 30.5 25.5s25.666 11.5 39.999 11.5s31.666 -3.66699 51.999 -11s37.833 -11 52.5 -11c36 0 69 15.667 99 47c-2.66699 -5.33301 -7.33398 -17.666 -14.001 -36.999
s-12.167 -32.5 -16.5 -39.5s-13.333 -14.333 -27 -22z" />
    <glyph glyph-name="Adieresis" unicode="&#xc4;" horiz-adv-x="767" 
d="M690 8l0.000976562 -8h-232c-2.66699 38 -8.33398 77.333 -17.001 118c-41.333 -42 -88 -81.333 -140 -118h-233c-4.66699 27.333 -7 63.5 -7 108.5s6.66699 90.167 20 135.5c48 14 94.167 37.667 138.5 71s76.5 69.333 96.5 108c-18 28 -37 53.667 -57 77h332
c66 -143.333 99 -307.333 99 -492zM423.001 191c-17.333 59.333 -40 115.333 -68 168c-31.333 -92 -49.333 -179 -54 -261c48 24.667 88.667 55.667 122 93zM326.001 576l-40.001 -1c-13.333 0 -32.666 0.666992 -57.999 2c16.667 39.333 26.667 73 30 101
c35.333 -3.33301 69.333 -5.33301 102 -6c-8 -36 -19.333 -68 -34 -96zM505 576l-41.001 -1.00098c-12.667 0 -31.667 0.666992 -57 2c16 40.667 26 74.334 30 101.001c34.667 -3.33301 68.667 -5.33301 102 -6c-9.33301 -37.333 -20.666 -69.333 -33.999 -96z" />
    <glyph glyph-name="Aring" unicode="&#xc5;" horiz-adv-x="767" 
d="M81 244c48 14 94.168 37.667 138.501 71s76.5 69.333 96.5 108c-18 28 -37 53.667 -57 77h332c66 -143.333 99 -307.333 99 -492v-8h-232c-2.66699 38 -8.33398 77.333 -17.001 118c-41.333 -42 -88 -81.333 -140 -118h-233c-4.66699 27.333 -7 63.5 -7 108.5
s6.66699 90.167 20 135.5zM423.001 191c-17.333 59.333 -40 115.333 -68 168c-31.333 -92 -49.333 -179 -54 -261c48 24.667 88.667 55.667 122 93zM378.001 558c-19.333 14.667 -29.001 30.8311 -29.001 48.498s9.5 33.667 28.5 48s39.833 21.5 62.5 21.5
s38.167 -5.16699 46.5 -15.5s12.5 -23.666 12.5 -39.999s-9 -31.666 -27 -45.999s-39 -21.5 -63 -21.5c-9.33301 0 -19.666 1.66699 -30.999 5zM404 623.997c0 -28 10.333 -46.666 31 -55.999c6.66699 8.66699 10 19.667 10 33c0 26.667 -11 45 -33 55
c-5.33301 -10.667 -8 -21.334 -8 -32.001z" />
    <glyph glyph-name="AE" unicode="&#xc6;" horiz-adv-x="1027" 
d="M777 298l92 -6.00293c2 0 4.83301 0.166992 8.5 0.5s6.5 0.5 8.5 0.5l-47 -87h-10c-12.667 0 -30.5 3.33301 -53.5 10s-39.5 10 -49.5 10c-28 0 -49.667 -17.667 -65 -53c-2.66699 -31.333 -4.66699 -63.666 -6 -96.999c34.667 -6.66699 61.667 -10 81 -10h9
c28.667 0 51.5 6.33301 68.5 19s29.167 35.334 36.5 68.001l121 -5c-10 -57.333 -23.333 -106.666 -40 -147.999h-494c-4.66699 46 -10.334 85.333 -17.001 118c-43.333 -44 -90 -83.333 -140 -118h-232c-4.66699 28 -7 65.167 -7 111.5s6.33301 90.5 19 132.5
c48.667 14 95.334 37.667 140.001 71s76.667 69.333 96 108c-20.667 30 -40 55.667 -58 77h732c-11.333 -67.333 -22.333 -118 -33 -152l-108 -5c6 18 9 32.667 9 44c0 31.333 -24.333 47 -73 47c-20.667 0 -40.334 -1.66699 -59.001 -5
c-15.333 -63.333 -26.666 -119.333 -33.999 -168c26.667 24.667 59.667 37 99 37h6zM402 190.997c-17.333 61.333 -39.667 117 -67 167c-30.667 -90 -49 -176.667 -55 -260c48 24.667 88.667 55.667 122 93z" />
    <glyph glyph-name="Ccedilla" unicode="&#xc7;" horiz-adv-x="632" 
d="M308 -52l43.0039 7.00098c11.333 0 21.833 -3.16699 31.5 -9.5s15.167 -14.5 16.5 -24.5v-5c0 -26 -11.833 -49.833 -35.5 -71.5s-53.834 -32.834 -90.501 -33.501l-6 21c20 0 35.5 4.83301 46.5 14.5s16.5 20.5 16.5 32.5c0 17.333 -10.667 26 -32 26
c-4 0 -19.333 -5 -46 -15l31 90c-6.66699 -0.666992 -16.334 -1 -29.001 -1h-23c-60 26 -107.167 64.333 -141.5 115s-51.5 104 -51.5 160c0 74.667 30.667 138.167 92 190.5s150.333 78.5 267 78.5c65.333 0 133.666 -8.33301 204.999 -25
c-10.667 -42 -24 -81.667 -40 -119c-42 -4 -85.333 -6 -130 -6c6.66699 18.667 12.334 40.667 17.001 66c-23.333 4 -45.833 6 -67.5 6s-47.834 -3.66699 -78.501 -11c-10 -42 -15 -83 -15 -123c0 -103.333 46 -182.666 138 -237.999
c61.333 40.667 116.666 91.334 165.999 152.001c2 -26.667 3.66699 -67.334 5 -122.001c-42 -32.667 -84 -59.334 -126 -80.001s-92.333 -34 -151 -40z" />
    <glyph glyph-name="Egrave" unicode="&#xc8;" horiz-adv-x="671" 
d="M509 293c9.33301 0 16.333 0.333008 21 1l-47 -88h-9c-12.667 0 -30.667 3.5 -54 10.5s-40 10.5 -50 10.5c-27.333 0 -49 -17.667 -65 -53c-2.66699 -32.667 -4.66699 -65.334 -6 -98.001c34.667 -6.66699 62 -10 82 -10h9c28.667 0 51.5 6.33301 68.5 19
s29.167 35.334 36.5 68.001l120 -5c-10 -57.333 -23.333 -106.666 -40 -147.999h-491c-13.333 90 -20 179.333 -20 268s4.66699 166 14 232h536c-12 -72 -22.667 -122.667 -32 -152c-39.333 -2 -75.333 -3.33301 -108 -4c5.33301 15.333 8 29.666 8 42.999
c0 32 -24 48 -72 48c-18 0 -38 -2 -60 -6c-14.667 -63.333 -26 -119 -34 -167c26.667 24.667 59.667 37 99 37zM339 680c20.667 -55.333 55 -98.667 103 -130h-66c-24.667 11.333 -44.667 21.333 -60 30s-31.5 20.667 -48.5 36s-30.167 32 -39.5 50z" />
    <glyph glyph-name="Eacute" unicode="&#xc9;" horiz-adv-x="671" 
d="M415 299l94 -6c9.33301 0 16.333 0.333008 21 1l-47 -88h-9c-12.667 0 -30.667 3.5 -54 10.5s-40 10.5 -50 10.5c-27.333 0 -49 -17.667 -65 -53c-2.66699 -32.667 -4.66699 -65.334 -6 -98.001c34.667 -6.66699 62 -10 82 -10h9c28.667 0 51.5 6.33301 68.5 19
s29.167 35.334 36.5 68.001l120 -5c-10 -57.333 -23.333 -106.666 -40 -147.999h-491c-13.333 90 -20 179.333 -20 268s4.66699 166 14 232h536c-12 -72 -22.667 -122.667 -32 -152c-39.333 -2 -75.333 -3.33301 -108 -4c5.33301 15.333 8 29.666 8 42.999
c0 32 -24 48 -72 48c-18 0 -38 -2 -60 -6c-14.667 -63.333 -26 -119 -34 -167c26.667 24.667 59.667 37 99 37zM331 680l111 -13.999c-9.33301 -18 -22.5 -34.667 -39.5 -50s-33.167 -27.333 -48.5 -36s-35.333 -18.667 -60 -30h-66c48 31.333 82.333 74.666 103 129.999z
" />
    <glyph glyph-name="Ecircumflex" unicode="&#xca;" horiz-adv-x="671" 
d="M415 299l94 -6.00098c9.33301 0 16.333 0.333008 21 1l-47 -88h-9c-12.667 0 -30.667 3.5 -54 10.5s-40 10.5 -50 10.5c-28 0 -49.667 -17.667 -65 -53c-3.33301 -33.333 -5.33301 -66 -6 -98c29.333 -6.66699 56.666 -10 81.999 -10h9
c29.333 0 52.166 6.33301 68.499 19s28.5 35.334 36.5 68.001l120 -5c-11.333 -60.667 -24.666 -110 -39.999 -148h-491c-13.333 90 -20 180.5 -20 271.5s4.66699 167.167 14 228.5h536c-16 -82 -26.667 -132.667 -32 -152c-20 -1.33301 -56 -2.66602 -108 -3.99902
c5.33301 16 8 30.333 8 43c0 32 -24 48 -72 48c-18 0 -38 -2 -60 -6c-15.333 -66.667 -26.666 -122.334 -33.999 -167.001c28 24.667 61 37 99 37zM221 557.999l90 115h49l90 -115h-32l-83 62l-82 -62h-32z" />
    <glyph glyph-name="Edieresis" unicode="&#xcb;" horiz-adv-x="671" 
d="M415 299l94 -6.00098c9.33301 0 16.333 0.333008 21 1l-47 -88h-9c-12.667 0 -30.667 3.5 -54 10.5s-40 10.5 -50 10.5c-28 0 -49.667 -17.667 -65 -53c-3.33301 -33.333 -5.33301 -66 -6 -98c29.333 -6.66699 56.666 -10 81.999 -10h9
c29.333 0 52.166 6.33301 68.499 19s28.5 35.334 36.5 68.001l120 -5c-11.333 -60.667 -24.666 -110 -39.999 -148h-491c-13.333 90 -20 180.5 -20 271.5s4.66699 167.167 14 228.5h536c-16 -82 -26.667 -132.667 -32 -152c-20 -1.33301 -56 -2.66602 -108 -3.99902
c5.33301 16 8 30.333 8 43c0 32 -24 48 -72 48c-18 0 -38 -2 -60 -6c-15.333 -66.667 -26.666 -122.334 -33.999 -167.001c28 24.667 61 37 99 37zM278 575.999l-40.001 -1c-13.333 0 -32.666 0.666992 -57.999 2c16 35.333 26 69 30 101
c34.667 -2.66699 68.667 -4.66699 102 -6c-8 -36 -19.333 -68 -34 -96zM456.999 575.999l-41.001 -1.00098c-12.667 0 -31.667 0.666992 -57 2c16 40.667 26 74.334 30 101.001c35.333 -2.66699 69.333 -4.66699 102 -6c-9.33301 -37.333 -20.666 -69.333 -33.999 -96z" />
    <glyph glyph-name="Igrave" unicode="&#xcc;" horiz-adv-x="396" 
d="M341 500v-26.998c0 -176 -11 -333.667 -33 -473h-240c12.667 61.333 19 132.166 19 212.499s-5.33301 176.166 -16 287.499h270zM202 680.002c20.667 -55.333 55 -98.667 103 -130h-66c-24.667 11.333 -44.667 21.333 -60 30s-31.5 20.667 -48.5 36s-30.167 32 -39.5 50z
" />
    <glyph glyph-name="Iacute" unicode="&#xcd;" horiz-adv-x="396" 
d="M341 500v-26.998c0 -176 -11 -333.667 -33 -473h-240c12.667 61.333 19 132.166 19 212.499s-5.33301 176.166 -16 287.499h270zM194 680.002l111 -13.999c-9.33301 -18 -22.5 -34.667 -39.5 -50s-33.167 -27.333 -48.5 -36s-35.333 -18.667 -60 -30h-66
c48 31.333 82.333 74.666 103 129.999z" />
    <glyph glyph-name="Icircumflex" unicode="&#xce;" horiz-adv-x="396" 
d="M341 500v-26.998c0 -176 -11 -333.667 -33 -473h-240c12.667 61.333 19 132.166 19 212.499s-5.33301 176.166 -16 287.499h270zM83 558.002l90 115h49l90 -115h-32l-83 62l-82 -62h-32z" />
    <glyph glyph-name="Idieresis" unicode="&#xcf;" horiz-adv-x="396" 
d="M341 500v-26.998c0 -176 -11 -333.667 -33 -473h-240c12.667 61.333 19 132.166 19 212.499s-5.33301 176.166 -16 287.499h270zM140 576.002l-40.001 -1c-13.333 0 -32.666 0.666992 -57.999 2c16.667 39.333 26.667 73 30 101c35.333 -3.33301 69.333 -5.33301 102 -6
c-8 -36 -19.333 -68 -34 -96zM318.999 576.002l-41.001 -1.00098c-12.667 0 -31.667 0.666992 -57 2c16 40.667 26 74.334 30 101.001c34.667 -3.33301 68.667 -5.33301 102 -6c-9.33301 -37.333 -20.666 -69.333 -33.999 -96z" />
    <glyph glyph-name="Eth" unicode="&#xd0;" horiz-adv-x="730" 
d="M339 523c130 0 236.669 -16.3359 320.002 -49.0029c30 -58 45 -116.667 45 -176c0 -77.333 -25.667 -143.666 -77 -198.999c-74.667 -80.667 -177 -121 -307 -121c-41.333 0 -92.666 4 -153.999 12l-30 4c-16.667 82.667 -28.334 162.334 -35.001 239.001
c-55.333 4 -89 7 -101 9c4 2.66699 10 7.33398 18 14.001c17.333 14.667 30.666 24 39.999 28h39c-1.33301 19.333 -2 49.833 -2 91.5s2 85.167 6 130.5c79.333 11.333 158.666 17 237.999 17zM355.002 227.997c-1.33301 -37.333 -2 -69.166 -2 -95.499s1 -57.5 3 -93.5
c36.667 19.333 65.334 52 86.001 98s31 92.833 31 140.5s-8.83301 87.167 -26.5 118.5s-42.834 48.666 -75.501 51.999c-4 -42 -8.33301 -95.333 -13 -160c41.333 1.33301 69.333 4 84 8c-16 -28 -33 -50.667 -51 -68h-36z" />
    <glyph glyph-name="Ntilde" unicode="&#xd1;" horiz-adv-x="715" 
d="M646 500c4 -70 6 -143.832 6 -221.499s-3.33301 -170.5 -10 -278.5h-96c-129.333 69.333 -248 163.666 -356 282.999c5.33301 -44.667 8 -90.5 8 -137.5s-1.66699 -95.5 -5 -145.5h-117c13.333 82 20 157.833 20 227.5s-3.33301 124.834 -10 165.501
c-26.667 40 -47.667 75.667 -63 107h284c28 -48 66.167 -97.5 114.5 -148.5s94.5 -90.833 138.5 -119.5c0 97.333 -11 186.666 -33 267.999h119zM443.5 586.501c-13.667 -7.66699 -30.3281 -11.501 -49.9951 -11.501s-40.834 6.83301 -63.501 20.5
s-39.334 20.5 -50.001 20.5c-24.667 0 -46.667 -11 -66 -33l13 40c8 9.33301 18.167 17.833 30.5 25.5s25.666 11.5 39.999 11.5s31.666 -3.66699 51.999 -11s37.833 -11 52.5 -11c36 0 69 15.667 99 47c-2.66699 -5.33301 -7.33398 -17.666 -14.001 -36.999
s-12.167 -32.5 -16.5 -39.5s-13.333 -14.333 -27 -22z" />
    <glyph glyph-name="Ograve" unicode="&#xd2;" horiz-adv-x="658" 
d="M261 -22c-43.333 0 -89.334 8.33301 -138.001 25c-59.333 76 -89 154 -89 234s33.333 147.667 100 203s152 83 256 83c55.333 0 110.333 -8.33301 165 -25c48 -60.667 72 -125.667 72 -195c0 -87.333 -35.667 -163.333 -107 -228s-157.666 -97 -258.999 -97zM381.499 333
c-25.667 45.333 -61.167 79.667 -106.5 103c-23.333 -40 -35 -87 -35 -141s11.833 -103.833 35.5 -149.5s56.167 -78.5 97.5 -98.5c31.333 40 47 86.333 47 139s-12.833 101.667 -38.5 147zM332.999 680.001c20.667 -55.333 55 -98.667 103 -130h-66
c-24.667 11.333 -44.667 21.333 -60 30s-31.5 20.667 -48.5 36s-30.167 32 -39.5 50z" />
    <glyph glyph-name="Oacute" unicode="&#xd3;" horiz-adv-x="658" 
d="M123 3c-59.333 76 -89.001 154 -89.001 234s33.333 147.667 100 203s152 83 256 83c55.333 0 110.333 -8.33301 165 -25c48 -60.667 72 -125.667 72 -195c0 -87.333 -35.667 -163.333 -107 -228s-157.666 -97 -258.999 -97c-43.333 0 -89.333 8.33301 -138 25z
M274.999 436c-23.333 -40 -35 -86.999 -35 -140.999s11.833 -103.833 35.5 -149.5s56.167 -78.5 97.5 -98.5c31.333 40 47 86.333 47 139s-12.833 101.667 -38.5 147s-61.167 79.666 -106.5 102.999zM324.999 680.001l111 -13.999c-9.33301 -18 -22.5 -34.667 -39.5 -50
s-33.167 -27.333 -48.5 -36s-35.333 -18.667 -60 -30h-66c48 31.333 82.333 74.666 103 129.999z" />
    <glyph glyph-name="Ocircumflex" unicode="&#xd4;" horiz-adv-x="658" 
d="M261 -22c-43.333 0 -89.334 8.33301 -138.001 25c-59.333 76 -89 154 -89 234s33.333 147.667 100 203s152 83 256 83c55.333 0 110.333 -8.33301 165 -25c48 -60.667 72 -125.667 72 -195c0 -87.333 -35.667 -163.333 -107 -228s-157.666 -97 -258.999 -97zM381.499 333
c-25.667 45.333 -61.167 79.667 -106.5 103c-23.333 -40 -35 -87 -35 -141s11.833 -103.833 35.5 -149.5s56.167 -78.5 97.5 -98.5c31.333 40 47 86.333 47 139s-12.833 101.667 -38.5 147zM213.999 558.001l90 115h49l90 -115h-32l-83 62l-82 -62h-32z" />
    <glyph glyph-name="Otilde" unicode="&#xd5;" horiz-adv-x="658" 
d="M123 3c-59.333 76 -89.001 154 -89.001 234s33.333 147.667 100 203s152 83 256 83c55.333 0 110.333 -8.33301 165 -25c48 -60.667 72 -125.667 72 -195c0 -87.333 -35.667 -163.333 -107 -228s-157.666 -97 -258.999 -97c-43.333 0 -89.333 8.33301 -138 25z
M274.999 436c-23.333 -40 -35 -86.999 -35 -140.999s11.833 -103.833 35.5 -149.5s56.167 -78.5 97.5 -98.5c31.333 40 47 86.333 47 139s-12.833 101.667 -38.5 147s-61.167 79.666 -106.5 102.999zM414.499 586.501c-13.667 -7.66699 -30.3281 -11.501 -49.9951 -11.501
s-40.834 6.83301 -63.501 20.5s-39.334 20.5 -50.001 20.5c-24.667 0 -46.667 -11 -66 -33l13 40c8 9.33301 18.167 17.833 30.5 25.5s25.666 11.5 39.999 11.5s31.666 -3.66699 51.999 -11s37.833 -11 52.5 -11c36 0 69 15.667 99 47
c-2.66699 -5.33301 -7.33398 -17.666 -14.001 -36.999s-12.167 -32.5 -16.5 -39.5s-13.333 -14.333 -27 -22z" />
    <glyph glyph-name="Odieresis" unicode="&#xd6;" horiz-adv-x="658" 
d="M123 3c-59.333 76 -89.001 154 -89.001 234s33.333 147.667 100 203s152 83 256 83c55.333 0 110.333 -8.33301 165 -25c48 -60.667 72 -125.667 72 -195c0 -87.333 -35.667 -163.333 -107 -228s-157.666 -97 -258.999 -97c-43.333 0 -89.333 8.33301 -138 25z
M274.999 436c-23.333 -40 -35 -86.999 -35 -140.999s11.833 -103.833 35.5 -149.5s56.167 -78.5 97.5 -98.5c31.333 40 47 86.333 47 139s-12.833 101.667 -38.5 147s-61.167 79.666 -106.5 102.999zM270.999 576.001l-40.001 -1c-13.333 0 -32.666 0.666992 -57.999 2
c16.667 39.333 26.667 73 30 101c35.333 -3.33301 69.333 -5.33301 102 -6c-8 -36 -19.333 -68 -34 -96zM449.998 576.001l-41.001 -1.00098c-12.667 0 -31.667 0.666992 -57 2c16 40.667 26 74.334 30 101.001c34.667 -3.33301 68.667 -5.33301 102 -6
c-9.33301 -37.333 -20.666 -69.333 -33.999 -96z" />
    <glyph glyph-name="multiply" unicode="&#xd7;" horiz-adv-x="319" 
d="M50 186c34.667 32 60.334 56.3359 77.001 73.0029c-22.667 22.667 -48.334 46.667 -77.001 72l37 38c20.667 -24 44.667 -50.333 72 -79c24.667 25.333 49 51.666 73 78.999l37 -38c-24 -20.667 -50.333 -44.667 -79 -72c16.667 -16.667 43 -41 79 -73l-37 -37
c-24 27.333 -48.333 53.666 -73 78.999c-27.333 -28.667 -51.333 -55 -72 -79c-4 3.33301 -8 7.16602 -12 11.499l-13 13.5z" />
    <glyph glyph-name="Oslash" unicode="&#xd8;" horiz-adv-x="623" 
d="M18 232c0 82.667 33.667 151.835 101 207.502s152.333 83.5 255 83.5c43.333 0 87.333 -5.33301 132 -16l19 22c37.333 7.33301 77 12.666 119 15.999l-83 -79c32.667 -52 49 -106.667 49 -164c0 -86.667 -35.5 -162.334 -106.5 -227.001s-157.167 -97 -258.5 -97
c-43.333 0 -89.333 8.33301 -138 25l-6 7l-47 -51h-69l89 90c-37.333 62.667 -56 123.667 -56 183zM402 192.001c0 36 -6.33203 70.667 -18.999 104l-133 -132c25.333 -55.333 60.666 -94 105.999 -116c30.667 39.333 46 87.333 46 144zM224.001 293.001
c0 -28.667 3 -55.333 9 -80l124 131c-26 40.667 -58.667 71 -98 91c-23.333 -40 -35 -87.333 -35 -142z" />
    <glyph glyph-name="Ugrave" unicode="&#xd9;" 
d="M558 168c0 105.333 -9.33301 216 -28 332h128c2.66699 -43.333 4 -106.5 4 -189.5s-5.33301 -171.5 -16 -265.5c-69.333 -44.667 -152.333 -67 -249 -67c-128.667 0 -232.667 22.333 -312 67c-8.66699 72 -13 141.833 -13 209.5s5 149.5 15 245.5h269
c-26.667 -144.667 -40.667 -283.667 -42 -417c28 -25.333 68.333 -38 121 -38s93 9.33301 121 28c1.33301 22 2 53.667 2 95zM354 680c20.667 -55.333 55 -98.667 103 -130h-66c-24.667 11.333 -44.667 21.333 -60 30s-31.5 20.667 -48.5 36s-30.167 32 -39.5 50z" />
    <glyph glyph-name="Uacute" unicode="&#xda;" 
d="M658 500c2.66699 -43.333 4 -106.5 4 -189.5s-5.33301 -171.5 -16 -265.5c-69.333 -44.667 -152.333 -67 -249 -67c-128.667 0 -232.667 22.333 -312 67c-8.66699 72 -13 141.833 -13 209.5s5 149.5 15 245.5h269c-26.667 -144.667 -40.667 -283.667 -42 -417
c28 -25.333 68.333 -38 121 -38s93 9.33301 121 28c1.33301 22 2 53.667 2 95c0 105.333 -9.33301 216 -28 332h128zM346 680l111 -13.999c-9.33301 -18 -22.5 -34.667 -39.5 -50s-33.167 -27.333 -48.5 -36s-35.333 -18.667 -60 -30h-66
c48 31.333 82.333 74.666 103 129.999z" />
    <glyph glyph-name="Ucircumflex" unicode="&#xdb;" 
d="M558 168c0 105.333 -9.33301 216 -28 332h128c2.66699 -43.333 4 -106.5 4 -189.5s-5.33301 -171.5 -16 -265.5c-69.333 -44.667 -152.333 -67 -249 -67c-128.667 0 -232.667 22.333 -312 67c-8.66699 72 -13 141.833 -13 209.5s5 149.5 15 245.5h269
c-26.667 -144.667 -40.667 -283.667 -42 -417c28 -25.333 68.333 -38 121 -38s93 9.33301 121 28c1.33301 22 2 53.667 2 95zM236 558l90 115h49l90 -115h-32l-83 62l-82 -62h-32z" />
    <glyph glyph-name="Udieresis" unicode="&#xdc;" 
d="M658 500c2.66699 -43.333 4 -106.5 4 -189.5s-5.33301 -171.5 -16 -265.5c-69.333 -44.667 -152.333 -67 -249 -67c-128.667 0 -232.667 22.333 -312 67c-8.66699 72 -13 141.833 -13 209.5s5 149.5 15 245.5h269c-26.667 -144.667 -40.667 -283.667 -42 -417
c28 -25.333 68.333 -38 121 -38s93 9.33301 121 28c1.33301 22 2 53.667 2 95c0 105.333 -9.33301 216 -28 332h128zM293 576l-40.001 -1c-13.333 0 -32.666 0.666992 -57.999 2c16.667 39.333 26.667 73 30 101c35.333 -3.33301 69.333 -5.33301 102 -6
c-8 -36 -19.333 -68 -34 -96zM471.999 576l-41.001 -1.00098c-12.667 0 -31.667 0.666992 -57 2c16 40.667 26 74.334 30 101.001c34.667 -3.33301 68.667 -5.33301 102 -6c-9.33301 -37.333 -20.666 -69.333 -33.999 -96z" />
    <glyph glyph-name="Yacute" unicode="&#xdd;" horiz-adv-x="732" 
d="M704 481c-22.667 -5.33301 -41.665 -8.00195 -56.998 -8.00195s-30 1 -44 3c-20.667 -24.667 -39.334 -57.667 -56.001 -99s-29.167 -78.333 -37.5 -111s-17.5 -72.667 -27.5 -120c-50.667 -241.333 -101.334 -412.666 -152.001 -513.999
c-33.333 -10 -74.666 -19.667 -123.999 -29c66.667 114 120.667 246.333 162 397h-207c-52.667 170.667 -80 337.334 -82 500.001h292c-14 -62 -21 -127.833 -21 -197.5s11.333 -149.167 34 -238.5l24 94.5c11.333 45 19.666 77.167 24.999 96.5s13.5 46.666 24.5 81.999
s21 61.833 30 79.5s20.167 37.5 33.5 59.5c24 39.333 55.667 66 95 80c11.333 3.33301 34.333 6.83301 69 10.5s59.667 10.5 75 20.5c-18 -41.333 -36.667 -76.666 -56 -105.999zM362.002 679.998l111 -13.999c-9.33301 -18 -22.5 -34.667 -39.5 -50
s-33.167 -27.333 -48.5 -36s-35.333 -18.667 -60 -30h-66c48 31.333 82.333 74.666 103 129.999z" />
    <glyph glyph-name="Thorn" unicode="&#xde;" horiz-adv-x="676" 
d="M87 156c0 153.333 -14 306.667 -42 460l289 -49l4 -67h265c22 -58.667 33 -118 33 -178c0 -28 -2.66699 -60 -8 -96c-80 -39.333 -174.667 -64 -284 -74c-2 -51.333 -5 -102 -9 -152h-253c3.33301 42.667 5 94.667 5 156zM345 274.001l0.000976562 -51.999
c35.333 3.33301 65.666 10 90.999 20c-4.66699 28.667 -16.5 61.167 -35.5 97.5s-38.5 67.166 -58.5 92.499c2 -53.333 3 -106 3 -158z" />
    <glyph glyph-name="germandbls" unicode="&#xdf;" horiz-adv-x="638" 
d="M64 313c0 38 1.00098 77.999 3.00098 119.999c34 70 76 129 126 177h236c53.333 -46 90.333 -94.333 111 -145c-28.667 -48.667 -61.334 -87 -98.001 -115c67.333 -46.667 119.333 -106 156 -178c-20.667 -70 -44.667 -127.333 -72 -172h-207l-29 110
c27.333 -28.667 53.666 -43 78.999 -43c2.66699 18.667 4 33 4 43c0 34.667 -6.5 70.334 -19.5 107.001s-31.167 68.667 -54.5 96c57.333 34.667 102.333 81.667 135 141c-10 18.667 -28.667 36.834 -56 54.501s-54.666 29.5 -81.999 35.5
c-20 -136.667 -30 -279.667 -30 -429c0 -42 1 -80.333 3 -115h-182c-15.333 107.333 -23 211.666 -23 312.999z" />
    <glyph glyph-name="agrave" unicode="&#xe0;" horiz-adv-x="767" 
d="M81 244c48 14 94.168 37.667 138.501 71s76.5 69.333 96.5 108c-18 28 -37 53.667 -57 77h332c66 -143.333 99 -307.333 99 -492v-8h-232c-2.66699 38 -8.33398 77.333 -17.001 118c-41.333 -42 -88 -81.333 -140 -118h-233c-4.66699 27.333 -7 63.5 -7 108.5
s6.66699 90.167 20 135.5zM423.001 191c-17.333 59.333 -40 115.333 -68 168c-31.333 -92 -49.333 -179 -54 -261c48 24.667 88.667 55.667 122 93zM387.001 680c20.667 -55.333 55 -98.667 103 -130h-66c-24.667 11.333 -44.667 21.333 -60 30s-31.5 20.667 -48.5 36
s-30.167 32 -39.5 50z" />
    <glyph glyph-name="aacute" unicode="&#xe1;" horiz-adv-x="767" 
d="M690 8l0.000976562 -8h-232c-2.66699 38 -8.33398 77.333 -17.001 118c-41.333 -42 -88 -81.333 -140 -118h-233c-4.66699 27.333 -7 63.5 -7 108.5s6.66699 90.167 20 135.5c48 14 94.167 37.667 138.5 71s76.5 69.333 96.5 108c-18 28 -37 53.667 -57 77h332
c66 -143.333 99 -307.333 99 -492zM423.001 191c-17.333 59.333 -40 115.333 -68 168c-31.333 -92 -49.333 -179 -54 -261c48 24.667 88.667 55.667 122 93zM379.001 680l111 -13.999c-9.33301 -18 -22.5 -34.667 -39.5 -50s-33.167 -27.333 -48.5 -36
s-35.333 -18.667 -60 -30h-66c48 31.333 82.333 74.666 103 129.999z" />
    <glyph glyph-name="acircumflex" unicode="&#xe2;" horiz-adv-x="767" 
d="M81 244c48 14 94.168 37.667 138.501 71s76.5 69.333 96.5 108c-18 28 -37 53.667 -57 77h332c66 -143.333 99 -307.333 99 -492v-8h-232c-2.66699 38 -8.33398 77.333 -17.001 118c-41.333 -42 -88 -81.333 -140 -118h-233c-4.66699 27.333 -7 63.5 -7 108.5
s6.66699 90.167 20 135.5zM423.001 191c-17.333 59.333 -40 115.333 -68 168c-31.333 -92 -49.333 -179 -54 -261c48 24.667 88.667 55.667 122 93zM284.001 558l90 115h49l90 -115h-32l-83 62l-82 -62h-32z" />
    <glyph glyph-name="atilde" unicode="&#xe3;" horiz-adv-x="767" 
d="M690 8l0.000976562 -8h-232c-2.66699 38 -8.33398 77.333 -17.001 118c-41.333 -42 -88 -81.333 -140 -118h-233c-4.66699 27.333 -7 63.5 -7 108.5s6.66699 90.167 20 135.5c48 14 94.167 37.667 138.5 71s76.5 69.333 96.5 108c-18 28 -37 53.667 -57 77h332
c66 -143.333 99 -307.333 99 -492zM423.001 191c-17.333 59.333 -40 115.333 -68 168c-31.333 -92 -49.333 -179 -54 -261c48 24.667 88.667 55.667 122 93zM485.501 586.5c-13.667 -7.66699 -30.3281 -11.501 -49.9951 -11.501s-40.834 6.83301 -63.501 20.5
s-39.334 20.5 -50.001 20.5c-24.667 0 -46.667 -11 -66 -33l13 40c8 9.33301 18.167 17.833 30.5 25.5s25.666 11.5 39.999 11.5s31.666 -3.66699 51.999 -11s37.833 -11 52.5 -11c36 0 69 15.667 99 47c-2.66699 -5.33301 -7.33398 -17.666 -14.001 -36.999
s-12.167 -32.5 -16.5 -39.5s-13.333 -14.333 -27 -22z" />
    <glyph glyph-name="adieresis" unicode="&#xe4;" horiz-adv-x="767" 
d="M690 8l0.000976562 -8h-232c-2.66699 38 -8.33398 77.333 -17.001 118c-41.333 -42 -88 -81.333 -140 -118h-233c-4.66699 27.333 -7 63.5 -7 108.5s6.66699 90.167 20 135.5c48 14 94.167 37.667 138.5 71s76.5 69.333 96.5 108c-18 28 -37 53.667 -57 77h332
c66 -143.333 99 -307.333 99 -492zM423.001 191c-17.333 59.333 -40 115.333 -68 168c-31.333 -92 -49.333 -179 -54 -261c48 24.667 88.667 55.667 122 93zM326.001 576l-40.001 -1c-13.333 0 -32.666 0.666992 -57.999 2c16.667 39.333 26.667 73 30 101
c35.333 -3.33301 69.333 -5.33301 102 -6c-8 -36 -19.333 -68 -34 -96zM505 576l-41.001 -1.00098c-12.667 0 -31.667 0.666992 -57 2c16 40.667 26 74.334 30 101.001c34.667 -3.33301 68.667 -5.33301 102 -6c-9.33301 -37.333 -20.666 -69.333 -33.999 -96z" />
    <glyph glyph-name="aring" unicode="&#xe5;" horiz-adv-x="767" 
d="M81 244c48 14 94.168 37.667 138.501 71s76.5 69.333 96.5 108c-18 28 -37 53.667 -57 77h332c66 -143.333 99 -307.333 99 -492v-8h-232c-2.66699 38 -8.33398 77.333 -17.001 118c-41.333 -42 -88 -81.333 -140 -118h-233c-4.66699 27.333 -7 63.5 -7 108.5
s6.66699 90.167 20 135.5zM423.001 191c-17.333 59.333 -40 115.333 -68 168c-31.333 -92 -49.333 -179 -54 -261c48 24.667 88.667 55.667 122 93zM378.001 558c-19.333 14.667 -29.001 30.8311 -29.001 48.498s9.5 33.667 28.5 48s39.833 21.5 62.5 21.5
s38.167 -5.16699 46.5 -15.5s12.5 -23.666 12.5 -39.999s-9 -31.666 -27 -45.999s-39 -21.5 -63 -21.5c-9.33301 0 -19.666 1.66699 -30.999 5zM404 623.997c0 -28 10.333 -46.666 31 -55.999c6.66699 8.66699 10 19.667 10 33c0 26.667 -11 45 -33 55
c-5.33301 -10.667 -8 -21.334 -8 -32.001z" />
    <glyph glyph-name="ae" unicode="&#xe6;" horiz-adv-x="1027" 
d="M777 298l92 -6.00293c2 0 4.83301 0.166992 8.5 0.5s6.5 0.5 8.5 0.5l-47 -87h-10c-12.667 0 -30.5 3.33301 -53.5 10s-39.5 10 -49.5 10c-28 0 -49.667 -17.667 -65 -53c-2.66699 -31.333 -4.66699 -63.666 -6 -96.999c34.667 -6.66699 61.667 -10 81 -10h9
c28.667 0 51.5 6.33301 68.5 19s29.167 35.334 36.5 68.001l121 -5c-10 -57.333 -23.333 -106.666 -40 -147.999h-494c-4.66699 46 -10.334 85.333 -17.001 118c-43.333 -44 -90 -83.333 -140 -118h-232c-4.66699 28 -7 65.167 -7 111.5s6.33301 90.5 19 132.5
c48.667 14 95.334 37.667 140.001 71s76.667 69.333 96 108c-20.667 30 -40 55.667 -58 77h732c-11.333 -67.333 -22.333 -118 -33 -152l-108 -5c6 18 9 32.667 9 44c0 31.333 -24.333 47 -73 47c-20.667 0 -40.334 -1.66699 -59.001 -5
c-15.333 -63.333 -26.666 -119.333 -33.999 -168c26.667 24.667 59.667 37 99 37h6zM402 190.997c-17.333 61.333 -39.667 117 -67 167c-30.667 -90 -49 -176.667 -55 -260c48 24.667 88.667 55.667 122 93z" />
    <glyph glyph-name="ccedilla" unicode="&#xe7;" horiz-adv-x="632" 
d="M308 -52l43.0039 7.00098c11.333 0 21.833 -3.16699 31.5 -9.5s15.167 -14.5 16.5 -24.5v-5c0 -26 -11.833 -49.833 -35.5 -71.5s-53.834 -32.834 -90.501 -33.501l-6 21c20 0 35.5 4.83301 46.5 14.5s16.5 20.5 16.5 32.5c0 17.333 -10.667 26 -32 26
c-4 0 -19.333 -5 -46 -15l31 90c-6.66699 -0.666992 -16.334 -1 -29.001 -1h-23c-60 26 -107.167 64.333 -141.5 115s-51.5 104 -51.5 160c0 74.667 30.667 138.167 92 190.5s150.333 78.5 267 78.5c65.333 0 133.666 -8.33301 204.999 -25
c-10.667 -42 -24 -81.667 -40 -119c-42 -4 -85.333 -6 -130 -6c6.66699 18.667 12.334 40.667 17.001 66c-23.333 4 -45.833 6 -67.5 6s-47.834 -3.66699 -78.501 -11c-10 -42 -15 -83 -15 -123c0 -103.333 46 -182.666 138 -237.999
c61.333 40.667 116.666 91.334 165.999 152.001c2 -26.667 3.66699 -67.334 5 -122.001c-42 -32.667 -84 -59.334 -126 -80.001s-92.333 -34 -151 -40z" />
    <glyph glyph-name="egrave" unicode="&#xe8;" horiz-adv-x="671" 
d="M509 293c9.33301 0 16.333 0.333008 21 1l-47 -88h-9c-12.667 0 -30.667 3.5 -54 10.5s-40 10.5 -50 10.5c-27.333 0 -49 -17.667 -65 -53c-2.66699 -32.667 -4.66699 -65.334 -6 -98.001c34.667 -6.66699 62 -10 82 -10h9c28.667 0 51.5 6.33301 68.5 19
s29.167 35.334 36.5 68.001l120 -5c-10 -57.333 -23.333 -106.666 -40 -147.999h-491c-13.333 90 -20 179.333 -20 268s4.66699 166 14 232h536c-12 -72 -22.667 -122.667 -32 -152c-39.333 -2 -75.333 -3.33301 -108 -4c5.33301 15.333 8 29.666 8 42.999
c0 32 -24 48 -72 48c-18 0 -38 -2 -60 -6c-14.667 -63.333 -26 -119 -34 -167c26.667 24.667 59.667 37 99 37zM339 680c20.667 -55.333 55 -98.667 103 -130h-66c-24.667 11.333 -44.667 21.333 -60 30s-31.5 20.667 -48.5 36s-30.167 32 -39.5 50z" />
    <glyph glyph-name="eacute" unicode="&#xe9;" horiz-adv-x="671" 
d="M415 299l94 -6c9.33301 0 16.333 0.333008 21 1l-47 -88h-9c-12.667 0 -30.667 3.5 -54 10.5s-40 10.5 -50 10.5c-27.333 0 -49 -17.667 -65 -53c-2.66699 -32.667 -4.66699 -65.334 -6 -98.001c34.667 -6.66699 62 -10 82 -10h9c28.667 0 51.5 6.33301 68.5 19
s29.167 35.334 36.5 68.001l120 -5c-10 -57.333 -23.333 -106.666 -40 -147.999h-491c-13.333 90 -20 179.333 -20 268s4.66699 166 14 232h536c-12 -72 -22.667 -122.667 -32 -152c-39.333 -2 -75.333 -3.33301 -108 -4c5.33301 15.333 8 29.666 8 42.999
c0 32 -24 48 -72 48c-18 0 -38 -2 -60 -6c-14.667 -63.333 -26 -119 -34 -167c26.667 24.667 59.667 37 99 37zM331 680l111 -13.999c-9.33301 -18 -22.5 -34.667 -39.5 -50s-33.167 -27.333 -48.5 -36s-35.333 -18.667 -60 -30h-66c48 31.333 82.333 74.666 103 129.999z
" />
    <glyph glyph-name="ecircumflex" unicode="&#xea;" horiz-adv-x="671" 
d="M509 293c9.33301 0 16.333 0.333008 21 1l-47 -88h-9c-12.667 0 -30.667 3.5 -54 10.5s-40 10.5 -50 10.5c-27.333 0 -49 -17.667 -65 -53c-2.66699 -32.667 -4.66699 -65.334 -6 -98.001c34.667 -6.66699 62 -10 82 -10h9c28.667 0 51.5 6.33301 68.5 19
s29.167 35.334 36.5 68.001l120 -5c-10 -57.333 -23.333 -106.666 -40 -147.999h-491c-13.333 90 -20 179.333 -20 268s4.66699 166 14 232h536c-12 -72 -22.667 -122.667 -32 -152c-39.333 -2 -75.333 -3.33301 -108 -4c5.33301 15.333 8 29.666 8 42.999
c0 32 -24 48 -72 48c-18 0 -38 -2 -60 -6c-14.667 -63.333 -26 -119 -34 -167c26.667 24.667 59.667 37 99 37zM221 558l90 115h49l90 -115h-32l-83 62l-82 -62h-32z" />
    <glyph glyph-name="edieresis" unicode="&#xeb;" horiz-adv-x="671" 
d="M415 299l94 -6c9.33301 0 16.333 0.333008 21 1l-47 -88h-9c-12.667 0 -30.667 3.5 -54 10.5s-40 10.5 -50 10.5c-27.333 0 -49 -17.667 -65 -53c-2.66699 -32.667 -4.66699 -65.334 -6 -98.001c34.667 -6.66699 62 -10 82 -10h9c28.667 0 51.5 6.33301 68.5 19
s29.167 35.334 36.5 68.001l120 -5c-10 -57.333 -23.333 -106.666 -40 -147.999h-491c-13.333 90 -20 179.333 -20 268s4.66699 166 14 232h536c-12 -72 -22.667 -122.667 -32 -152c-39.333 -2 -75.333 -3.33301 -108 -4c5.33301 15.333 8 29.666 8 42.999
c0 32 -24 48 -72 48c-18 0 -38 -2 -60 -6c-14.667 -63.333 -26 -119 -34 -167c26.667 24.667 59.667 37 99 37zM278 576l-40.001 -1c-13.333 0 -32.666 0.666992 -57.999 2c16.667 39.333 26.667 73 30 101c35.333 -3.33301 69.333 -5.33301 102 -6
c-8 -36 -19.333 -68 -34 -96zM456.999 576l-41.001 -1.00098c-12.667 0 -31.667 0.666992 -57 2c16 40.667 26 74.334 30 101.001c34.667 -3.33301 68.667 -5.33301 102 -6c-9.33301 -37.333 -20.666 -69.333 -33.999 -96z" />
    <glyph glyph-name="igrave" unicode="&#xec;" horiz-adv-x="396" 
d="M341 500v-26.998c0 -176 -11 -333.667 -33 -473h-240c12.667 61.333 19 132.166 19 212.499s-5.33301 176.166 -16 287.499h270zM202 680.002c20.667 -55.333 55 -98.667 103 -130h-66c-24.667 11.333 -44.667 21.333 -60 30s-31.5 20.667 -48.5 36s-30.167 32 -39.5 50z
" />
    <glyph glyph-name="iacute" unicode="&#xed;" horiz-adv-x="396" 
d="M341 500v-26.998c0 -176 -11 -333.667 -33 -473h-240c12.667 61.333 19 132.166 19 212.499s-5.33301 176.166 -16 287.499h270zM194 680.002l111 -13.999c-9.33301 -18 -22.5 -34.667 -39.5 -50s-33.167 -27.333 -48.5 -36s-35.333 -18.667 -60 -30h-66
c48 31.333 82.333 74.666 103 129.999z" />
    <glyph glyph-name="icircumflex" unicode="&#xee;" horiz-adv-x="396" 
d="M341 500v-26.998c0 -176 -11 -333.667 -33 -473h-240c12.667 61.333 19 132.166 19 212.499s-5.33301 176.166 -16 287.499h270zM83 558.002l90 115h49l90 -115h-32l-83 62l-82 -62h-32z" />
    <glyph glyph-name="idieresis" unicode="&#xef;" horiz-adv-x="396" 
d="M341 500v-26.998c0 -176 -11 -333.667 -33 -473h-240c12.667 61.333 19 132.166 19 212.499s-5.33301 176.166 -16 287.499h270zM140 576.002l-40.001 -1c-13.333 0 -32.666 0.666992 -57.999 2c16.667 39.333 26.667 73 30 101c35.333 -3.33301 69.333 -5.33301 102 -6
c-8 -36 -19.333 -68 -34 -96zM318.999 576.002l-41.001 -1.00098c-12.667 0 -31.667 0.666992 -57 2c16 40.667 26 74.334 30 101.001c34.667 -3.33301 68.667 -5.33301 102 -6c-9.33301 -37.333 -20.666 -69.333 -33.999 -96z" />
    <glyph glyph-name="eth" unicode="&#xf0;" horiz-adv-x="730" 
d="M339 523c130 0 236.669 -16.3359 320.002 -49.0029c30 -58 45 -116.667 45 -176c0 -77.333 -25.667 -143.666 -77 -198.999c-74.667 -80.667 -177 -121 -307 -121c-41.333 0 -92.666 4 -153.999 12l-30 4c-16.667 82.667 -28.334 162.334 -35.001 239.001
c-55.333 4 -89 7 -101 9c4 2.66699 10 7.33398 18 14.001c17.333 14.667 30.666 24 39.999 28h39c-1.33301 19.333 -2 49.833 -2 91.5s2 85.167 6 130.5c79.333 11.333 158.666 17 237.999 17zM355.002 227.997c-1.33301 -37.333 -2 -69.166 -2 -95.499s1 -57.5 3 -93.5
c36.667 19.333 65.334 52 86.001 98s31 92.833 31 140.5s-8.83301 87.167 -26.5 118.5s-42.834 48.666 -75.501 51.999c-4 -42 -8.33301 -95.333 -13 -160c41.333 1.33301 69.333 4 84 8c-16 -28 -33 -50.667 -51 -68h-36z" />
    <glyph glyph-name="ntilde" unicode="&#xf1;" horiz-adv-x="715" 
d="M646 500c4 -70 6 -143.832 6 -221.499s-3.33301 -170.5 -10 -278.5h-96c-129.333 69.333 -248 163.666 -356 282.999c5.33301 -44.667 8 -90.5 8 -137.5s-1.66699 -95.5 -5 -145.5h-117c13.333 82 20 157.833 20 227.5s-3.33301 124.834 -10 165.501
c-26.667 40 -47.667 75.667 -63 107h284c28 -48 66.167 -97.5 114.5 -148.5s94.5 -90.833 138.5 -119.5c0 97.333 -11 186.666 -33 267.999h119zM443.5 586.501c-13.667 -7.66699 -30.3281 -11.501 -49.9951 -11.501s-40.834 6.83301 -63.501 20.5
s-39.334 20.5 -50.001 20.5c-24.667 0 -46.667 -11 -66 -33l13 40c8 9.33301 18.167 17.833 30.5 25.5s25.666 11.5 39.999 11.5s31.666 -3.66699 51.999 -11s37.833 -11 52.5 -11c36 0 69 15.667 99 47c-2.66699 -5.33301 -7.33398 -17.666 -14.001 -36.999
s-12.167 -32.5 -16.5 -39.5s-13.333 -14.333 -27 -22z" />
    <glyph glyph-name="ograve" unicode="&#xf2;" horiz-adv-x="658" 
d="M261 -22c-43.333 0 -89.334 8.33301 -138.001 25c-59.333 76 -89 154 -89 234s33.333 147.667 100 203s152 83 256 83c55.333 0 110.333 -8.33301 165 -25c48 -60.667 72 -125.667 72 -195c0 -87.333 -35.667 -163.333 -107 -228s-157.666 -97 -258.999 -97zM381.499 333
c-25.667 45.333 -61.167 79.667 -106.5 103c-23.333 -40 -35 -87 -35 -141s11.833 -103.833 35.5 -149.5s56.167 -78.5 97.5 -98.5c31.333 40 47 86.333 47 139s-12.833 101.667 -38.5 147zM332.999 680.001c20.667 -55.333 55 -98.667 103 -130h-66
c-24.667 11.333 -44.667 21.333 -60 30s-31.5 20.667 -48.5 36s-30.167 32 -39.5 50z" />
    <glyph glyph-name="oacute" unicode="&#xf3;" horiz-adv-x="658" 
d="M123 3c-59.333 76 -89.001 154 -89.001 234s33.333 147.667 100 203s152 83 256 83c55.333 0 110.333 -8.33301 165 -25c48 -60.667 72 -125.667 72 -195c0 -87.333 -35.667 -163.333 -107 -228s-157.666 -97 -258.999 -97c-43.333 0 -89.333 8.33301 -138 25z
M274.999 436c-23.333 -40 -35 -86.999 -35 -140.999s11.833 -103.833 35.5 -149.5s56.167 -78.5 97.5 -98.5c31.333 40 47 86.333 47 139s-12.833 101.667 -38.5 147s-61.167 79.666 -106.5 102.999zM324.999 680.001l111 -13.999c-9.33301 -18 -22.5 -34.667 -39.5 -50
s-33.167 -27.333 -48.5 -36s-35.333 -18.667 -60 -30h-66c48 31.333 82.333 74.666 103 129.999z" />
    <glyph glyph-name="ocircumflex" unicode="&#xf4;" horiz-adv-x="658" 
d="M261 -22c-43.333 0 -89.334 8.33301 -138.001 25c-59.333 76 -89 154 -89 234s33.333 147.667 100 203s152 83 256 83c55.333 0 110.333 -8.33301 165 -25c48 -60.667 72 -125.667 72 -195c0 -87.333 -35.667 -163.333 -107 -228s-157.666 -97 -258.999 -97zM381.499 333
c-25.667 45.333 -61.167 79.667 -106.5 103c-23.333 -40 -35 -87 -35 -141s11.833 -103.833 35.5 -149.5s56.167 -78.5 97.5 -98.5c31.333 40 47 86.333 47 139s-12.833 101.667 -38.5 147zM213.999 558.001l90 115h49l90 -115h-32l-83 62l-82 -62h-32z" />
    <glyph glyph-name="otilde" unicode="&#xf5;" horiz-adv-x="658" 
d="M123 3c-59.333 76 -89.001 154 -89.001 234s33.333 147.667 100 203s152 83 256 83c55.333 0 110.333 -8.33301 165 -25c48 -60.667 72 -125.667 72 -195c0 -87.333 -35.667 -163.333 -107 -228s-157.666 -97 -258.999 -97c-43.333 0 -89.333 8.33301 -138 25z
M274.999 436c-23.333 -40 -35 -86.999 -35 -140.999s11.833 -103.833 35.5 -149.5s56.167 -78.5 97.5 -98.5c31.333 40 47 86.333 47 139s-12.833 101.667 -38.5 147s-61.167 79.666 -106.5 102.999zM414.499 586.501c-13.667 -7.66699 -30.3281 -11.501 -49.9951 -11.501
s-40.834 6.83301 -63.501 20.5s-39.334 20.5 -50.001 20.5c-24.667 0 -46.667 -11 -66 -33l13 40c8 9.33301 18.167 17.833 30.5 25.5s25.666 11.5 39.999 11.5s31.666 -3.66699 51.999 -11s37.833 -11 52.5 -11c36 0 69 15.667 99 47
c-2.66699 -5.33301 -7.33398 -17.666 -14.001 -36.999s-12.167 -32.5 -16.5 -39.5s-13.333 -14.333 -27 -22z" />
    <glyph glyph-name="odieresis" unicode="&#xf6;" horiz-adv-x="658" 
d="M123 3c-59.333 76 -89.001 154 -89.001 234s33.333 147.667 100 203s152 83 256 83c55.333 0 110.333 -8.33301 165 -25c48 -60.667 72 -125.667 72 -195c0 -87.333 -35.667 -163.333 -107 -228s-157.666 -97 -258.999 -97c-43.333 0 -89.333 8.33301 -138 25z
M274.999 436c-23.333 -40 -35 -86.999 -35 -140.999s11.833 -103.833 35.5 -149.5s56.167 -78.5 97.5 -98.5c31.333 40 47 86.333 47 139s-12.833 101.667 -38.5 147s-61.167 79.666 -106.5 102.999zM270.999 576.001l-40.001 -1c-13.333 0 -32.666 0.666992 -57.999 2
c16.667 39.333 26.667 73 30 101c35.333 -3.33301 69.333 -5.33301 102 -6c-8 -36 -19.333 -68 -34 -96zM449.998 576.001l-41.001 -1.00098c-12.667 0 -31.667 0.666992 -57 2c16 40.667 26 74.334 30 101.001c34.667 -3.33301 68.667 -5.33301 102 -6
c-9.33301 -37.333 -20.666 -69.333 -33.999 -96z" />
    <glyph glyph-name="divide" unicode="&#xf7;" horiz-adv-x="358" 
d="M179 281c48 0 91 1.33301 129 4v-53c-48 3.33301 -91 5 -129 5s-81 -1.66699 -129 -5v53c38 -2.66699 81 -4 129 -4zM179 369c7.33301 0 13.666 -2.66699 18.999 -8s8 -11.666 8 -18.999s-2.66699 -13.666 -8 -18.999s-11.666 -8 -18.999 -8s-13.666 2.66699 -18.999 8
s-8 11.666 -8 18.999s2.66699 13.666 8 18.999s11.666 8 18.999 8zM179 202c7.33301 0 13.666 -2.5 18.999 -7.5s8 -11.167 8 -18.5s-2.66699 -13.666 -8 -18.999s-11.666 -8 -18.999 -8s-13.666 2.66699 -18.999 8s-8 11.666 -8 18.999s2.66699 13.5 8 18.5
s11.666 7.5 18.999 7.5z" />
    <glyph glyph-name="oslash" unicode="&#xf8;" horiz-adv-x="623" 
d="M18 232c0 82.667 33.667 151.835 101 207.502s152.333 83.5 255 83.5c43.333 0 87.333 -5.33301 132 -16l19 22c37.333 7.33301 77 12.666 119 15.999l-83 -79c32.667 -52 49 -106.667 49 -164c0 -86.667 -35.5 -162.334 -106.5 -227.001s-157.167 -97 -258.5 -97
c-43.333 0 -89.333 8.33301 -138 25l-6 7l-47 -51h-69l89 90c-37.333 62.667 -56 123.667 -56 183zM402 192.001c0 36 -6.33203 70.667 -18.999 104l-133 -132c25.333 -55.333 60.666 -94 105.999 -116c30.667 39.333 46 87.333 46 144zM224.001 293.001
c0 -28.667 3 -55.333 9 -80l124 131c-26 40.667 -58.667 71 -98 91c-23.333 -40 -35 -87.333 -35 -142z" />
    <glyph glyph-name="ugrave" unicode="&#xf9;" 
d="M558 168c0 105.333 -9.33301 216 -28 332h128c2.66699 -43.333 4 -106.5 4 -189.5s-5.33301 -171.5 -16 -265.5c-69.333 -44.667 -152.333 -67 -249 -67c-128.667 0 -232.667 22.333 -312 67c-8.66699 72 -13 141.833 -13 209.5s5 149.5 15 245.5h269
c-26.667 -144.667 -40.667 -283.667 -42 -417c28 -25.333 68.333 -38 121 -38s93 9.33301 121 28c1.33301 22 2 53.667 2 95zM354 680c20.667 -55.333 55 -98.667 103 -130h-66c-24.667 11.333 -44.667 21.333 -60 30s-31.5 20.667 -48.5 36s-30.167 32 -39.5 50z" />
    <glyph glyph-name="uacute" unicode="&#xfa;" 
d="M658 500c2.66699 -43.333 4 -106.5 4 -189.5s-5.33301 -171.5 -16 -265.5c-69.333 -44.667 -152.333 -67 -249 -67c-128.667 0 -232.667 22.333 -312 67c-8.66699 72 -13 141.833 -13 209.5s5 149.5 15 245.5h269c-26.667 -144.667 -40.667 -283.667 -42 -417
c28 -25.333 68.333 -38 121 -38s93 9.33301 121 28c1.33301 22 2 53.667 2 95c0 105.333 -9.33301 216 -28 332h128zM346 680l111 -13.999c-9.33301 -18 -22.5 -34.667 -39.5 -50s-33.167 -27.333 -48.5 -36s-35.333 -18.667 -60 -30h-66
c48 31.333 82.333 74.666 103 129.999z" />
    <glyph glyph-name="ucircumflex" unicode="&#xfb;" 
d="M558 168c0 105.333 -9.33301 216 -28 332h128c2.66699 -43.333 4 -106.5 4 -189.5s-5.33301 -171.5 -16 -265.5c-69.333 -44.667 -152.333 -67 -249 -67c-128.667 0 -232.667 22.333 -312 67c-8.66699 72 -13 141.833 -13 209.5s5 149.5 15 245.5h269
c-26.667 -144.667 -40.667 -283.667 -42 -417c28 -25.333 68.333 -38 121 -38s93 9.33301 121 28c1.33301 22 2 53.667 2 95zM236 558l90 115h49l90 -115h-32l-83 62l-82 -62h-32z" />
    <glyph glyph-name="udieresis" unicode="&#xfc;" 
d="M658 500c2.66699 -43.333 4 -106.5 4 -189.5s-5.33301 -171.5 -16 -265.5c-69.333 -44.667 -152.333 -67 -249 -67c-128.667 0 -232.667 22.333 -312 67c-8.66699 72 -13 141.833 -13 209.5s5 149.5 15 245.5h269c-26.667 -144.667 -40.667 -283.667 -42 -417
c28 -25.333 68.333 -38 121 -38s93 9.33301 121 28c1.33301 22 2 53.667 2 95c0 105.333 -9.33301 216 -28 332h128zM293 576l-40.001 -1c-13.333 0 -32.666 0.666992 -57.999 2c16.667 39.333 26.667 73 30 101c35.333 -3.33301 69.333 -5.33301 102 -6
c-8 -36 -19.333 -68 -34 -96zM471.999 576l-41.001 -1.00098c-12.667 0 -31.667 0.666992 -57 2c16 40.667 26 74.334 30 101.001c34.667 -3.33301 68.667 -5.33301 102 -6c-9.33301 -37.333 -20.666 -69.333 -33.999 -96z" />
    <glyph glyph-name="yacute" unicode="&#xfd;" horiz-adv-x="732" 
d="M704 481c-22.667 -5.33301 -41.665 -8.00195 -56.998 -8.00195s-30 1 -44 3c-20.667 -24.667 -39.334 -57.667 -56.001 -99s-29.167 -78.333 -37.5 -111s-17.5 -72.667 -27.5 -120c-50.667 -241.333 -101.334 -412.666 -152.001 -513.999
c-33.333 -10 -74.666 -19.667 -123.999 -29c66.667 114 120.667 246.333 162 397h-207c-52.667 170.667 -80 337.334 -82 500.001h292c-14 -62 -21 -127.833 -21 -197.5s11.333 -149.167 34 -238.5l24 94.5c11.333 45 19.666 77.167 24.999 96.5s13.5 46.666 24.5 81.999
s21 61.833 30 79.5s20.167 37.5 33.5 59.5c24 39.333 55.667 66 95 80c11.333 3.33301 34.333 6.83301 69 10.5s59.667 10.5 75 20.5c-18 -41.333 -36.667 -76.666 -56 -105.999zM362.002 679.998l111 -13.999c-9.33301 -18 -22.5 -34.667 -39.5 -50
s-33.167 -27.333 -48.5 -36s-35.333 -18.667 -60 -30h-66c48 31.333 82.333 74.666 103 129.999z" />
    <glyph glyph-name="thorn" unicode="&#xfe;" horiz-adv-x="676" 
d="M87 156c0 153.333 -14 306.667 -42 460l289 -49l4 -67h265c22 -58.667 33 -118 33 -178c0 -28 -2.66699 -60 -8 -96c-80 -39.333 -174.667 -64 -284 -74c-2 -51.333 -5 -102 -9 -152h-253c3.33301 42.667 5 94.667 5 156zM345 274.001l0.000976562 -51.999
c35.333 3.33301 65.666 10 90.999 20c-4.66699 28.667 -16.5 61.167 -35.5 97.5s-38.5 67.166 -58.5 92.499c2 -53.333 3 -106 3 -158z" />
    <glyph glyph-name="ydieresis" unicode="&#xff;" horiz-adv-x="732" 
d="M704 481c-22.667 -5.33301 -41.665 -8.00195 -56.998 -8.00195s-30 1 -44 3c-20.667 -24.667 -39.334 -57.667 -56.001 -99s-29.167 -78.333 -37.5 -111s-17.5 -72.667 -27.5 -120c-50.667 -241.333 -101.334 -412.666 -152.001 -513.999
c-33.333 -10 -74.666 -19.667 -123.999 -29c66.667 114 120.667 246.333 162 397h-207c-52.667 170.667 -80 337.334 -82 500.001h292c-14 -62 -21 -127.833 -21 -197.5s11.333 -149.167 34 -238.5l24 94.5c11.333 45 19.666 77.167 24.999 96.5s13.5 46.666 24.5 81.999
s21 61.833 30 79.5s20.167 37.5 33.5 59.5c24 39.333 55.667 66 95 80c11.333 3.33301 34.333 6.83301 69 10.5s59.667 10.5 75 20.5c-18 -41.333 -36.667 -76.666 -56 -105.999zM308.002 575.998l-40.001 -1c-13.333 0 -32.666 0.666992 -57.999 2
c16.667 39.333 26.667 73 30 101c35.333 -3.33301 69.333 -5.33301 102 -6c-8 -36 -19.333 -68 -34 -96zM487.001 575.998l-41.001 -1.00098c-12.667 0 -31.667 0.666992 -57 2c16 40.667 26 74.334 30 101.001c34.667 -3.33301 68.667 -5.33301 102 -6
c-9.33301 -37.333 -20.666 -69.333 -33.999 -96z" />
    <glyph glyph-name="Amacron" unicode="&#x100;" horiz-adv-x="767" 
d="M82 655c104.667 -3.33301 196.333 -5 275 -5s174.667 1.66699 288 5v-75c-119.333 4.66699 -215 7 -287 7s-164 -2.33301 -276 -7v75zM689.999 8l0.000976562 -8h-232c-2.66699 38 -8.33398 77.333 -17.001 118c-41.333 -42 -88 -81.333 -140 -118h-233
c-4.66699 27.333 -7 63.5 -7 108.5s6.66699 90.167 20 135.5c48 14 94.167 37.667 138.5 71s76.5 69.333 96.5 108c-18 28 -37 53.667 -57 77h332c66 -143.333 99 -307.333 99 -492zM423 191c-17.333 59.333 -40 115.333 -68 168c-31.333 -92 -49.333 -179 -54 -261
c48 24.667 88.667 55.667 122 93z" />
    <glyph glyph-name="amacron" unicode="&#x101;" horiz-adv-x="767" 
d="M82 655c104.667 -3.33301 196.333 -5 275 -5s174.667 1.66699 288 5v-75c-119.333 4.66699 -215 7 -287 7s-164 -2.33301 -276 -7v75zM689.999 8l0.000976562 -8h-232c-2.66699 38 -8.33398 77.333 -17.001 118c-41.333 -42 -88 -81.333 -140 -118h-233
c-4.66699 27.333 -7 63.5 -7 108.5s6.66699 90.167 20 135.5c48 14 94.167 37.667 138.5 71s76.5 69.333 96.5 108c-18 28 -37 53.667 -57 77h332c66 -143.333 99 -307.333 99 -492zM423 191c-17.333 59.333 -40 115.333 -68 168c-31.333 -92 -49.333 -179 -54 -261
c48 24.667 88.667 55.667 122 93z" />
    <glyph glyph-name="Abreve" unicode="&#x102;" horiz-adv-x="767" 
d="M690 8l0.000976562 -8h-232c-2.66699 38 -8.33398 77.333 -17.001 118c-41.333 -42 -88 -81.333 -140 -118h-233c-4.66699 27.333 -7 63.5 -7 108.5s6.66699 90.167 20 135.5c48 14 94.167 37.667 138.5 71s76.5 69.333 96.5 108c-18 28 -37 53.667 -57 77h332
c66 -143.333 99 -307.333 99 -492zM423.001 191c-17.333 59.333 -40 115.333 -68 168c-31.333 -92 -49.333 -179 -54 -261c48 24.667 88.667 55.667 122 93zM362.001 615c23.333 -14.667 50.8311 -22 82.498 -22s60.167 11 85.5 33c1.33301 0 -1.66699 -6.5 -9 -19.5
s-19.666 -26.5 -36.999 -40.5c-22 -18.667 -51.167 -28 -87.5 -28s-71.166 10.333 -104.499 31l-14 8c3.33301 20 9.5 42.167 18.5 66.5s13.833 36.5 14.5 36.5z" />
    <glyph glyph-name="abreve" unicode="&#x103;" horiz-adv-x="767" 
d="M690 8l0.000976562 -8h-232c-2.66699 38 -8.33398 77.333 -17.001 118c-41.333 -42 -88 -81.333 -140 -118h-233c-4.66699 27.333 -7 63.5 -7 108.5s6.66699 90.167 20 135.5c48 14 94.167 37.667 138.5 71s76.5 69.333 96.5 108c-18 28 -37 53.667 -57 77h332
c66 -143.333 99 -307.333 99 -492zM423.001 191c-17.333 59.333 -40 115.333 -68 168c-31.333 -92 -49.333 -179 -54 -261c48 24.667 88.667 55.667 122 93zM362.001 615c23.333 -14.667 50.8311 -22 82.498 -22s60.167 11 85.5 33c1.33301 0 -1.66699 -6.5 -9 -19.5
s-19.666 -26.5 -36.999 -40.5c-22 -18.667 -51.167 -28 -87.5 -28s-71.166 10.333 -104.499 31l-14 8c3.33301 20 9.5 42.167 18.5 66.5s13.833 36.5 14.5 36.5z" />
    <glyph glyph-name="Aogonek" unicode="&#x104;" horiz-adv-x="749" 
d="M559 -96c0 -26.667 12.001 -39.999 36.001 -39.999c12 0 24.333 6 37 18c1.33301 -6.66699 3 -13.667 5 -21c-17.333 -23.333 -38.5 -35 -63.5 -35s-44.5 7 -58.5 21s-21 29.667 -21 47c0 39.333 23 74.666 69 105.999h-109c-2.66699 38 -8.33398 77.333 -17.001 118
c-41.333 -42 -88 -81.333 -140 -118h-233c-4.66699 27.333 -7 63.5 -7 108.5s6.66699 90.167 20 135.5c48 14 94.167 37.667 138.5 71s76.5 69.333 96.5 108c-18 28 -37 53.667 -57 77h332c66 -143.333 99 -307.333 99 -492v-8h-75c-34.667 -28 -52 -60 -52 -96z
M419.001 191.001c-17.333 59.333 -40 115.333 -68 168c-31.333 -92 -49.333 -179 -54 -261c48 24.667 88.667 55.667 122 93z" />
    <glyph glyph-name="aogonek" unicode="&#x105;" horiz-adv-x="749" 
d="M559 -96c0 -26.667 12.001 -39.999 36.001 -39.999c12 0 24.333 6 37 18c1.33301 -6.66699 3 -13.667 5 -21c-17.333 -23.333 -38.5 -35 -63.5 -35s-44.5 7 -58.5 21s-21 29.667 -21 47c0 39.333 23 74.666 69 105.999h-109c-2.66699 38 -8.33398 77.333 -17.001 118
c-41.333 -42 -88 -81.333 -140 -118h-233c-4.66699 27.333 -7 63.5 -7 108.5s6.66699 90.167 20 135.5c48 14 94.167 37.667 138.5 71s76.5 69.333 96.5 108c-18 28 -37 53.667 -57 77h332c66 -143.333 99 -307.333 99 -492v-8h-75c-34.667 -28 -52 -60 -52 -96z
M419.001 191.001c-17.333 59.333 -40 115.333 -68 168c-31.333 -92 -49.333 -179 -54 -261c48 24.667 88.667 55.667 122 93z" />
    <glyph glyph-name="Cacute" unicode="&#x106;" horiz-adv-x="632" 
d="M449 439c-23.333 4 -45.832 5.99902 -67.499 5.99902s-47.834 -3.66699 -78.501 -11c-10 -42 -15 -83 -15 -123c0 -103.333 46 -182.666 138 -237.999c61.333 40.667 116.666 91.334 165.999 152.001c2 -26.667 3.66699 -67.334 5 -122.001
c-49.333 -38.667 -99.666 -69 -150.999 -91s-115.333 -33 -192 -33h-23c-60 26 -107.167 64.333 -141.5 115s-51.5 104 -51.5 160c0 74.667 30.667 138.167 92 190.5s150.333 78.5 267 78.5c65.333 0 133.666 -8.33301 204.999 -25c-10.667 -42 -24 -81.667 -40 -119
c-42 -4 -85.333 -6 -130 -6c6.66699 18.667 12.334 40.667 17.001 66zM312.001 679.999l111 -13.999c-9.33301 -18 -22.5 -34.667 -39.5 -50s-33.167 -27.333 -48.5 -36s-35.333 -18.667 -60 -30h-66c48 31.333 82.333 74.666 103 129.999z" />
    <glyph glyph-name="cacute" unicode="&#x107;" horiz-adv-x="632" 
d="M449 439c-23.333 4 -45.832 5.99902 -67.499 5.99902s-47.834 -3.66699 -78.501 -11c-10 -42 -15 -83 -15 -123c0 -103.333 46 -182.666 138 -237.999c61.333 40.667 116.666 91.334 165.999 152.001c2 -26.667 3.66699 -67.334 5 -122.001
c-49.333 -38.667 -99.666 -69 -150.999 -91s-115.333 -33 -192 -33h-23c-60 26 -107.167 64.333 -141.5 115s-51.5 104 -51.5 160c0 74.667 30.667 138.167 92 190.5s150.333 78.5 267 78.5c65.333 0 133.666 -8.33301 204.999 -25c-10.667 -42 -24 -81.667 -40 -119
c-42 -4 -85.333 -6 -130 -6c6.66699 18.667 12.334 40.667 17.001 66zM312.001 679.999l111 -13.999c-9.33301 -18 -22.5 -34.667 -39.5 -50s-33.167 -27.333 -48.5 -36s-35.333 -18.667 -60 -30h-66c48 31.333 82.333 74.666 103 129.999z" />
    <glyph glyph-name="Ccircumflex" unicode="&#x108;" horiz-adv-x="632" 
d="M397 523c65.333 0 133.667 -8.33398 205 -25.001c-10.667 -42 -24 -81.667 -40 -119c-42 -4 -85.333 -6 -130 -6c6.66699 18.667 12.334 40.667 17.001 66c-23.333 4 -45.833 6 -67.5 6s-47.834 -3.66699 -78.501 -11c-10 -42 -15 -83 -15 -123
c0 -103.333 46 -182.666 138 -237.999c61.333 40.667 116.666 91.334 165.999 152.001c2 -26.667 3.66699 -67.334 5 -122.001c-49.333 -38.667 -99.666 -69 -150.999 -91s-115.333 -33 -192 -33h-23c-60 26 -107.167 64.333 -141.5 115s-51.5 104 -51.5 160
c0 74.667 30.667 138.167 92 190.5s150.333 78.5 267 78.5zM201.001 557.999l90 115h49l90 -115h-32l-83 62l-82 -62h-32z" />
    <glyph glyph-name="ccircumflex" unicode="&#x109;" horiz-adv-x="632" 
d="M397 523c65.333 0 133.667 -8.33398 205 -25.001c-10.667 -42 -24 -81.667 -40 -119c-42 -4 -85.333 -6 -130 -6c6.66699 18.667 12.334 40.667 17.001 66c-23.333 4 -45.833 6 -67.5 6s-47.834 -3.66699 -78.501 -11c-10 -42 -15 -83 -15 -123
c0 -103.333 46 -182.666 138 -237.999c61.333 40.667 116.666 91.334 165.999 152.001c2 -26.667 3.66699 -67.334 5 -122.001c-49.333 -38.667 -99.666 -69 -150.999 -91s-115.333 -33 -192 -33h-23c-60 26 -107.167 64.333 -141.5 115s-51.5 104 -51.5 160
c0 74.667 30.667 138.167 92 190.5s150.333 78.5 267 78.5zM201.001 557.999l90 115h49l90 -115h-32l-83 62l-82 -62h-32z" />
    <glyph glyph-name="Cdotaccent" unicode="&#x10a;" horiz-adv-x="632" 
d="M449 439c-23.333 4 -45.832 5.99902 -67.499 5.99902s-47.834 -3.66699 -78.501 -11c-10 -42 -15 -83 -15 -123c0 -103.333 46 -182.666 138 -237.999c61.333 40.667 116.666 91.334 165.999 152.001c2 -26.667 3.66699 -67.334 5 -122.001
c-49.333 -38.667 -99.666 -69 -150.999 -91s-115.333 -33 -192 -33h-23c-60 26 -107.167 64.333 -141.5 115s-51.5 104 -51.5 160c0 74.667 30.667 138.167 92 190.5s150.333 78.5 267 78.5c65.333 0 133.666 -8.33301 204.999 -25c-10.667 -42 -24 -81.667 -40 -119
c-42 -4 -85.333 -6 -130 -6c6.66699 18.667 12.334 40.667 17.001 66zM348.001 575.999l-40.001 -1c-13.333 0 -32.666 0.666992 -57.999 2c16.667 39.333 26.667 73 30 101c35.333 -3.33301 69.333 -5.33301 102 -6c-8 -36 -19.333 -68 -34 -96z" />
    <glyph glyph-name="cdotaccent" unicode="&#x10b;" horiz-adv-x="632" 
d="M449 439c-23.333 4 -45.832 5.99902 -67.499 5.99902s-47.834 -3.66699 -78.501 -11c-10 -42 -15 -83 -15 -123c0 -103.333 46 -182.666 138 -237.999c61.333 40.667 116.666 91.334 165.999 152.001c2 -26.667 3.66699 -67.334 5 -122.001
c-49.333 -38.667 -99.666 -69 -150.999 -91s-115.333 -33 -192 -33h-23c-60 26 -107.167 64.333 -141.5 115s-51.5 104 -51.5 160c0 74.667 30.667 138.167 92 190.5s150.333 78.5 267 78.5c65.333 0 133.666 -8.33301 204.999 -25c-10.667 -42 -24 -81.667 -40 -119
c-42 -4 -85.333 -6 -130 -6c6.66699 18.667 12.334 40.667 17.001 66zM348.001 575.999l-40.001 -1c-13.333 0 -32.666 0.666992 -57.999 2c16.667 39.333 26.667 73 30 101c35.333 -3.33301 69.333 -5.33301 102 -6c-8 -36 -19.333 -68 -34 -96z" />
    <glyph glyph-name="Ccaron" unicode="&#x10c;" horiz-adv-x="632" 
d="M449 439c-23.333 4 -45.832 5.99902 -67.499 5.99902s-47.834 -3.66699 -78.501 -11c-10 -42 -15 -83 -15 -123c0 -103.333 46 -182.666 138 -237.999c61.333 40.667 116.666 91.334 165.999 152.001c2 -26.667 3.66699 -67.334 5 -122.001
c-49.333 -38.667 -99.666 -69 -150.999 -91s-115.333 -33 -192 -33h-23c-60 26 -107.167 64.333 -141.5 115s-51.5 104 -51.5 160c0 74.667 30.667 138.167 92 190.5s150.333 78.5 267 78.5c65.333 0 133.666 -8.33301 204.999 -25c-10.667 -42 -24 -81.667 -40 -119
c-42 -4 -85.333 -6 -130 -6c6.66699 18.667 12.334 40.667 17.001 66zM291.001 553.999l-90 115h32l82 -62l83 62h32l-90 -115h-49z" />
    <glyph glyph-name="ccaron" unicode="&#x10d;" horiz-adv-x="632" 
d="M449 439c-23.333 4 -45.832 5.99902 -67.499 5.99902s-47.834 -3.66699 -78.501 -11c-10 -42 -15 -83 -15 -123c0 -103.333 46 -182.666 138 -237.999c61.333 40.667 116.666 91.334 165.999 152.001c2 -26.667 3.66699 -67.334 5 -122.001
c-49.333 -38.667 -99.666 -69 -150.999 -91s-115.333 -33 -192 -33h-23c-60 26 -107.167 64.333 -141.5 115s-51.5 104 -51.5 160c0 74.667 30.667 138.167 92 190.5s150.333 78.5 267 78.5c65.333 0 133.666 -8.33301 204.999 -25c-10.667 -42 -24 -81.667 -40 -119
c-42 -4 -85.333 -6 -130 -6c6.66699 18.667 12.334 40.667 17.001 66zM291.001 553.999l-90 115h32l82 -62l83 62h32l-90 -115h-49z" />
    <glyph glyph-name="Dcaron" unicode="&#x10e;" horiz-adv-x="813" 
d="M315 523c128.667 0 233.334 -16.001 314.001 -48.001c28.667 -57.333 43 -115.333 43 -174c0 -75.333 -25.667 -140.666 -77 -195.999c-74.667 -79.333 -175.667 -119 -303 -119c-44 0 -103.667 5 -179 15c-26 134 -39 257.667 -39 371c0 39.333 2 82 6 128
c107.333 15.333 185.666 23 234.999 23zM345 447.999c-12 -125.333 -18 -215.167 -18 -269.5s1 -98.5 3 -132.5c36 19.333 64.167 51.833 84.5 97.5s30.5 92 30.5 139s-8.5 85.5 -25.5 115.5s-41.833 46.667 -74.5 50zM633 687.998
c41.333 -7.33301 96.334 -11.002 165.001 -11.002c-12.667 -67.333 -35.667 -125.666 -69 -174.999c-20 2.66699 -35.333 5.33398 -46 8.00098c14 26 21.667 50 23 72c-41.333 0 -73 2 -95 6c13.333 30 20.666 63.333 21.999 100z" />
    <glyph glyph-name="dcaron" unicode="&#x10f;" horiz-adv-x="813" 
d="M315 523c128.667 0 233.334 -16.001 314.001 -48.001c28.667 -57.333 43 -115.333 43 -174c0 -75.333 -25.667 -140.666 -77 -195.999c-74.667 -79.333 -175.667 -119 -303 -119c-44 0 -103.667 5 -179 15c-26 134 -39 257.667 -39 371c0 39.333 2 82 6 128
c107.333 15.333 185.666 23 234.999 23zM345 447.999c-12 -125.333 -18 -215.167 -18 -269.5s1 -98.5 3 -132.5c36 19.333 64.167 51.833 84.5 97.5s30.5 92 30.5 139s-8.5 85.5 -25.5 115.5s-41.833 46.667 -74.5 50zM633 687.998
c41.333 -7.33301 96.334 -11.002 165.001 -11.002c-12.667 -67.333 -35.667 -125.666 -69 -174.999c-20 2.66699 -35.333 5.33398 -46 8.00098c14 26 21.667 50 23 72c-41.333 0 -73 2 -95 6c13.333 30 20.666 63.333 21.999 100z" />
    <glyph glyph-name="Dcroat" unicode="&#x110;" horiz-adv-x="730" 
d="M339 523c130 0 236.669 -16.3359 320.002 -49.0029c30 -58 45 -116.667 45 -176c0 -77.333 -25.667 -143.666 -77 -198.999c-74.667 -80.667 -177 -121 -307 -121c-41.333 0 -92.666 4 -153.999 12l-30 4c-16.667 82.667 -28.334 162.334 -35.001 239.001
c-55.333 4 -89 7 -101 9c4 2.66699 10 7.33398 18 14.001c17.333 14.667 30.666 24 39.999 28h39c-1.33301 19.333 -2 49.833 -2 91.5s2 85.167 6 130.5c79.333 11.333 158.666 17 237.999 17zM355.002 227.997c-1.33301 -37.333 -2 -69.166 -2 -95.499s1 -57.5 3 -93.5
c36.667 19.333 65.334 52 86.001 98s31 92.833 31 140.5s-8.83301 87.167 -26.5 118.5s-42.834 48.666 -75.501 51.999c-4 -42 -8.33301 -95.333 -13 -160c41.333 1.33301 69.333 4 84 8c-16 -28 -33 -50.667 -51 -68h-36z" />
    <glyph glyph-name="dcroat" unicode="&#x111;" horiz-adv-x="730" 
d="M339 523c130 0 236.669 -16.3359 320.002 -49.0029c30 -58 45 -116.667 45 -176c0 -77.333 -25.667 -143.666 -77 -198.999c-74.667 -80.667 -177 -121 -307 -121c-41.333 0 -92.666 4 -153.999 12l-30 4c-16.667 82.667 -28.334 162.334 -35.001 239.001
c-55.333 4 -89 7 -101 9c4 2.66699 10 7.33398 18 14.001c17.333 14.667 30.666 24 39.999 28h39c-1.33301 19.333 -2 49.833 -2 91.5s2 85.167 6 130.5c79.333 11.333 158.666 17 237.999 17zM355.002 227.997c-1.33301 -37.333 -2 -69.166 -2 -95.499s1 -57.5 3 -93.5
c36.667 19.333 65.334 52 86.001 98s31 92.833 31 140.5s-8.83301 87.167 -26.5 118.5s-42.834 48.666 -75.501 51.999c-4 -42 -8.33301 -95.333 -13 -160c41.333 1.33301 69.333 4 84 8c-16 -28 -33 -50.667 -51 -68h-36z" />
    <glyph glyph-name="Emacron" unicode="&#x112;" horiz-adv-x="671" 
d="M70 655c104.667 -3.33301 196.333 -5 275 -5s174.667 1.66699 288 5v-75c-118.667 4.66699 -214.167 7 -286.5 7s-164.5 -2.33301 -276.5 -7v75zM414.999 299l94 -6c9.33301 0 16.333 0.333008 21 1l-47 -88h-9c-12.667 0 -30.667 3.5 -54 10.5s-40 10.5 -50 10.5
c-27.333 0 -49 -17.667 -65 -53c-2.66699 -32.667 -4.66699 -65.334 -6 -98.001c34.667 -6.66699 62 -10 82 -10h9c28.667 0 51.5 6.33301 68.5 19s29.167 35.334 36.5 68.001l120 -5c-10 -57.333 -23.333 -106.666 -40 -147.999h-491c-13.333 90 -20 179.333 -20 268
s4.66699 166 14 232h536c-12 -72 -22.667 -122.667 -32 -152c-39.333 -2 -75.333 -3.33301 -108 -4c5.33301 15.333 8 29.666 8 42.999c0 32 -24 48 -72 48c-18 0 -38 -2 -60 -6c-14.667 -63.333 -26 -119 -34 -167c26.667 24.667 59.667 37 99 37z" />
    <glyph glyph-name="emacron" unicode="&#x113;" horiz-adv-x="671" 
d="M70 655c104.667 -3.33301 196.333 -5 275 -5s174.667 1.66699 288 5v-75c-118.667 4.66699 -214.167 7 -286.5 7s-164.5 -2.33301 -276.5 -7v75zM414.999 299l94 -6c9.33301 0 16.333 0.333008 21 1l-47 -88h-9c-12.667 0 -30.667 3.5 -54 10.5s-40 10.5 -50 10.5
c-27.333 0 -49 -17.667 -65 -53c-2.66699 -32.667 -4.66699 -65.334 -6 -98.001c34.667 -6.66699 62 -10 82 -10h9c28.667 0 51.5 6.33301 68.5 19s29.167 35.334 36.5 68.001l120 -5c-10 -57.333 -23.333 -106.666 -40 -147.999h-491c-13.333 90 -20 179.333 -20 268
s4.66699 166 14 232h536c-12 -72 -22.667 -122.667 -32 -152c-39.333 -2 -75.333 -3.33301 -108 -4c5.33301 15.333 8 29.666 8 42.999c0 32 -24 48 -72 48c-18 0 -38 -2 -60 -6c-14.667 -63.333 -26 -119 -34 -167c26.667 24.667 59.667 37 99 37z" />
    <glyph glyph-name="Edotaccent" unicode="&#x116;" horiz-adv-x="671" 
d="M415 299l94 -6c9.33301 0 16.333 0.333008 21 1l-47 -88h-9c-12.667 0 -30.667 3.5 -54 10.5s-40 10.5 -50 10.5c-27.333 0 -49 -17.667 -65 -53c-2.66699 -32.667 -4.66699 -65.334 -6 -98.001c34.667 -6.66699 62 -10 82 -10h9c28.667 0 51.5 6.33301 68.5 19
s29.167 35.334 36.5 68.001l120 -5c-10 -57.333 -23.333 -106.666 -40 -147.999h-491c-13.333 90 -20 179.333 -20 268s4.66699 166 14 232h536c-12 -72 -22.667 -122.667 -32 -152c-39.333 -2 -75.333 -3.33301 -108 -4c5.33301 15.333 8 29.666 8 42.999
c0 32 -24 48 -72 48c-18 0 -38 -2 -60 -6c-14.667 -63.333 -26 -119 -34 -167c26.667 24.667 59.667 37 99 37zM367 576l-40.001 -1c-13.333 0 -32.666 0.666992 -57.999 2c16.667 39.333 26.667 73 30 101c35.333 -3.33301 69.333 -5.33301 102 -6
c-8 -36 -19.333 -68 -34 -96z" />
    <glyph glyph-name="edotaccent" unicode="&#x117;" horiz-adv-x="671" 
d="M415 299l94 -6c9.33301 0 16.333 0.333008 21 1l-47 -88h-9c-12.667 0 -30.667 3.5 -54 10.5s-40 10.5 -50 10.5c-27.333 0 -49 -17.667 -65 -53c-2.66699 -32.667 -4.66699 -65.334 -6 -98.001c34.667 -6.66699 62 -10 82 -10h9c28.667 0 51.5 6.33301 68.5 19
s29.167 35.334 36.5 68.001l120 -5c-10 -57.333 -23.333 -106.666 -40 -147.999h-491c-13.333 90 -20 179.333 -20 268s4.66699 166 14 232h536c-12 -72 -22.667 -122.667 -32 -152c-39.333 -2 -75.333 -3.33301 -108 -4c5.33301 15.333 8 29.666 8 42.999
c0 32 -24 48 -72 48c-18 0 -38 -2 -60 -6c-14.667 -63.333 -26 -119 -34 -167c26.667 24.667 59.667 37 99 37zM367 576l-40.001 -1c-13.333 0 -32.666 0.666992 -57.999 2c16.667 39.333 26.667 73 30 101c35.333 -3.33301 69.333 -5.33301 102 -6
c-8 -36 -19.333 -68 -34 -96z" />
    <glyph glyph-name="Eogonek" unicode="&#x118;" horiz-adv-x="671" 
d="M415 299l93.999 -5.99902c9.33301 0 16.333 0.333008 21 1l-47 -88h-9c-12.667 0 -30.667 3.5 -54 10.5s-40 10.5 -50 10.5c-27.333 0 -49 -17.667 -65 -53c-2.66699 -32.667 -4.66699 -65.334 -6 -98.001c34.667 -6.66699 62 -10 82 -10h9
c28.667 0 51.5 6.33301 68.5 19s29.167 35.334 36.5 68.001l120 -5c-10 -57.333 -23.333 -106.666 -40 -147.999h-197c-34.667 -28 -52 -60 -52 -96c0 -13.333 3 -23.333 9 -30s15 -10 27 -10s24.333 6 37 18c0.666992 -7.33301 2.33398 -14.333 5.00098 -21
c-17.333 -23.333 -38.5 -35 -63.5 -35s-44.5 7 -58.5 21s-21 29.667 -21 47c0 39.333 23 74.666 69 105.999h-246c-13.333 90 -20 179.333 -20 268s4.66699 166 14 232h536c-12 -72 -22.667 -122.667 -32 -152c-39.333 -2 -75.333 -3.33301 -108 -4
c5.33301 15.333 8 29.666 8 42.999c0 32 -24 48 -72 48c-18 0 -38 -2 -60 -6c-14.667 -63.333 -26 -119 -34 -167c26.667 24.667 59.667 37 99 37z" />
    <glyph glyph-name="eogonek" unicode="&#x119;" horiz-adv-x="671" 
d="M415 299l93.999 -5.99902c9.33301 0 16.333 0.333008 21 1l-47 -88h-9c-12.667 0 -30.667 3.5 -54 10.5s-40 10.5 -50 10.5c-27.333 0 -49 -17.667 -65 -53c-2.66699 -32.667 -4.66699 -65.334 -6 -98.001c34.667 -6.66699 62 -10 82 -10h9
c28.667 0 51.5 6.33301 68.5 19s29.167 35.334 36.5 68.001l120 -5c-10 -57.333 -23.333 -106.666 -40 -147.999h-197c-34.667 -28 -52 -60 -52 -96c0 -13.333 3 -23.333 9 -30s15 -10 27 -10s24.333 6 37 18c0.666992 -7.33301 2.33398 -14.333 5.00098 -21
c-17.333 -23.333 -38.5 -35 -63.5 -35s-44.5 7 -58.5 21s-21 29.667 -21 47c0 39.333 23 74.666 69 105.999h-246c-13.333 90 -20 179.333 -20 268s4.66699 166 14 232h536c-12 -72 -22.667 -122.667 -32 -152c-39.333 -2 -75.333 -3.33301 -108 -4
c5.33301 15.333 8 29.666 8 42.999c0 32 -24 48 -72 48c-18 0 -38 -2 -60 -6c-14.667 -63.333 -26 -119 -34 -167c26.667 24.667 59.667 37 99 37z" />
    <glyph glyph-name="Ecaron" unicode="&#x11a;" horiz-adv-x="671" 
d="M415 299l94 -6c9.33301 0 16.333 0.333008 21 1l-47 -88h-9c-12.667 0 -30.667 3.5 -54 10.5s-40 10.5 -50 10.5c-27.333 0 -49 -17.667 -65 -53c-2.66699 -32.667 -4.66699 -65.334 -6 -98.001c34.667 -6.66699 62 -10 82 -10h9c28.667 0 51.5 6.33301 68.5 19
s29.167 35.334 36.5 68.001l120 -5c-10 -57.333 -23.333 -106.666 -40 -147.999h-491c-13.333 90 -20 179.333 -20 268s4.66699 166 14 232h536c-12 -72 -22.667 -122.667 -32 -152c-39.333 -2 -75.333 -3.33301 -108 -4c5.33301 15.333 8 29.666 8 42.999
c0 32 -24 48 -72 48c-18 0 -38 -2 -60 -6c-14.667 -63.333 -26 -119 -34 -167c26.667 24.667 59.667 37 99 37zM311 554l-90 115h32l82 -62l83 62h32l-90 -115h-49z" />
    <glyph glyph-name="ecaron" unicode="&#x11b;" horiz-adv-x="671" 
d="M415 299l94 -6c9.33301 0 16.333 0.333008 21 1l-47 -88h-9c-12.667 0 -30.667 3.5 -54 10.5s-40 10.5 -50 10.5c-27.333 0 -49 -17.667 -65 -53c-2.66699 -32.667 -4.66699 -65.334 -6 -98.001c34.667 -6.66699 62 -10 82 -10h9c28.667 0 51.5 6.33301 68.5 19
s29.167 35.334 36.5 68.001l120 -5c-10 -57.333 -23.333 -106.666 -40 -147.999h-491c-13.333 90 -20 179.333 -20 268s4.66699 166 14 232h536c-12 -72 -22.667 -122.667 -32 -152c-39.333 -2 -75.333 -3.33301 -108 -4c5.33301 15.333 8 29.666 8 42.999
c0 32 -24 48 -72 48c-18 0 -38 -2 -60 -6c-14.667 -63.333 -26 -119 -34 -167c26.667 24.667 59.667 37 99 37zM311 554l-90 115h32l82 -62l83 62h32l-90 -115h-49z" />
    <glyph glyph-name="Gcircumflex" unicode="&#x11c;" horiz-adv-x="675" 
d="M388 523c61.333 0 129.67 -8.33398 205.003 -25.001c-11.333 -45.333 -24.333 -85.333 -39 -120c-40 -2.66699 -83.667 -4.66699 -131 -6c7.33301 22.667 12.666 45 15.999 67c-20.667 4 -42.334 6 -65.001 6s-49.334 -3.66699 -80.001 -11
c-10.667 -45.333 -16 -86.333 -16 -123c0 -55.333 12.5 -107.166 37.5 -155.499s58.5 -83.833 100.5 -106.5c0 4.66699 0.166992 11.834 0.5 21.501s0.5 27.334 0.5 53.001s-4 71.167 -12 136.5h216c0 -94.667 -4.66699 -181.334 -14 -260.001
c-103.333 -14.667 -210.333 -22 -321 -22h-64c-60.667 26 -108 64.167 -142 114.5s-51 103.833 -51 160.5c0 75.333 30.5 139.166 91.5 191.499s150.167 78.5 267.5 78.5zM223.004 557.999l90 115h49l90 -115h-32l-83 62l-82 -62h-32z" />
    <glyph glyph-name="gcircumflex" unicode="&#x11d;" horiz-adv-x="675" 
d="M388 523c61.333 0 129.67 -8.33398 205.003 -25.001c-11.333 -45.333 -24.333 -85.333 -39 -120c-40 -2.66699 -83.667 -4.66699 -131 -6c7.33301 22.667 12.666 45 15.999 67c-20.667 4 -42.334 6 -65.001 6s-49.334 -3.66699 -80.001 -11
c-10.667 -45.333 -16 -86.333 -16 -123c0 -55.333 12.5 -107.166 37.5 -155.499s58.5 -83.833 100.5 -106.5c0 4.66699 0.166992 11.834 0.5 21.501s0.5 27.334 0.5 53.001s-4 71.167 -12 136.5h216c0 -94.667 -4.66699 -181.334 -14 -260.001
c-103.333 -14.667 -210.333 -22 -321 -22h-64c-60.667 26 -108 64.167 -142 114.5s-51 103.833 -51 160.5c0 75.333 30.5 139.166 91.5 191.499s150.167 78.5 267.5 78.5zM223.004 557.999l90 115h49l90 -115h-32l-83 62l-82 -62h-32z" />
    <glyph glyph-name="Gbreve" unicode="&#x11e;" horiz-adv-x="675" 
d="M416 49l1.00195 42.002c0 47.333 -4 103.666 -12 168.999h216c0 -94.667 -4.66699 -181.334 -14 -260.001c-103.333 -14.667 -210.333 -22 -321 -22h-64c-60.667 26 -108 64.167 -142 114.5s-51 103.833 -51 160.5c0 75.333 30.5 139.166 91.5 191.499
s150.167 78.5 267.5 78.5c61.333 0 129.666 -8.33301 204.999 -25c-11.333 -45.333 -24.333 -85.333 -39 -120c-40.667 -2.66699 -84.334 -4.66699 -131.001 -6c7.33301 22.667 12.666 45 15.999 67c-21.333 4 -43.166 6 -65.499 6s-48.833 -3.66699 -79.5 -11
c-10.667 -45.333 -16 -86.333 -16 -123c0 -55.333 12.5 -107.166 37.5 -155.499s58.5 -83.833 100.5 -106.5zM296.002 615.002c22.667 -14.667 49.998 -22 81.998 -22s60.333 11 85 33c1.33301 0 -1.66699 -6.5 -9 -19.5s-19.666 -26.5 -36.999 -40.5
c-22 -18.667 -51.167 -28 -87.5 -28s-71.166 10.333 -104.499 31l-14 8c3.33301 20 9.5 42.167 18.5 66.5s13.833 36.5 14.5 36.5z" />
    <glyph glyph-name="gbreve" unicode="&#x11f;" horiz-adv-x="675" 
d="M416 49l1.00195 42.002c0 47.333 -4 103.666 -12 168.999h216c0 -94.667 -4.66699 -181.334 -14 -260.001c-103.333 -14.667 -210.333 -22 -321 -22h-64c-60.667 26 -108 64.167 -142 114.5s-51 103.833 -51 160.5c0 75.333 30.5 139.166 91.5 191.499
s150.167 78.5 267.5 78.5c61.333 0 129.666 -8.33301 204.999 -25c-11.333 -45.333 -24.333 -85.333 -39 -120c-40.667 -2.66699 -84.334 -4.66699 -131.001 -6c7.33301 22.667 12.666 45 15.999 67c-21.333 4 -43.166 6 -65.499 6s-48.833 -3.66699 -79.5 -11
c-10.667 -45.333 -16 -86.333 -16 -123c0 -55.333 12.5 -107.166 37.5 -155.499s58.5 -83.833 100.5 -106.5zM296.002 615.002c22.667 -14.667 49.998 -22 81.998 -22s60.333 11 85 33c1.33301 0 -1.66699 -6.5 -9 -19.5s-19.666 -26.5 -36.999 -40.5
c-22 -18.667 -51.167 -28 -87.5 -28s-71.166 10.333 -104.499 31l-14 8c3.33301 20 9.5 42.167 18.5 66.5s13.833 36.5 14.5 36.5z" />
    <glyph glyph-name="Gdotaccent" unicode="&#x120;" horiz-adv-x="675" 
d="M416 49l1.00195 42.002c0 47.333 -4 103.666 -12 168.999h216c0 -94.667 -4.66699 -181.334 -14 -260.001c-103.333 -14.667 -210.333 -22 -321 -22h-64c-60.667 26 -108 64.167 -142 114.5s-51 103.833 -51 160.5c0 75.333 30.5 139.166 91.5 191.499
s150.167 78.5 267.5 78.5c61.333 0 129.666 -8.33301 204.999 -25c-11.333 -45.333 -24.333 -85.333 -39 -120c-40.667 -2.66699 -84.334 -4.66699 -131.001 -6c7.33301 22.667 12.666 45 15.999 67c-21.333 4 -43.166 6 -65.499 6s-48.833 -3.66699 -79.5 -11
c-10.667 -45.333 -16 -86.333 -16 -123c0 -55.333 12.5 -107.166 37.5 -155.499s58.5 -83.833 100.5 -106.5zM369.002 576.002l-40.001 -1c-13.333 0 -32.666 0.666992 -57.999 2c16.667 39.333 26.667 73 30 101c35.333 -3.33301 69.333 -5.33301 102 -6
c-8 -36 -19.333 -68 -34 -96z" />
    <glyph glyph-name="gdotaccent" unicode="&#x121;" horiz-adv-x="675" 
d="M416 49l1.00195 42.002c0 47.333 -4 103.666 -12 168.999h216c0 -94.667 -4.66699 -181.334 -14 -260.001c-103.333 -14.667 -210.333 -22 -321 -22h-64c-60.667 26 -108 64.167 -142 114.5s-51 103.833 -51 160.5c0 75.333 30.5 139.166 91.5 191.499
s150.167 78.5 267.5 78.5c61.333 0 129.666 -8.33301 204.999 -25c-11.333 -45.333 -24.333 -85.333 -39 -120c-40.667 -2.66699 -84.334 -4.66699 -131.001 -6c7.33301 22.667 12.666 45 15.999 67c-21.333 4 -43.166 6 -65.499 6s-48.833 -3.66699 -79.5 -11
c-10.667 -45.333 -16 -86.333 -16 -123c0 -55.333 12.5 -107.166 37.5 -155.499s58.5 -83.833 100.5 -106.5zM369.002 576.002l-40.001 -1c-13.333 0 -32.666 0.666992 -57.999 2c16.667 39.333 26.667 73 30 101c35.333 -3.33301 69.333 -5.33301 102 -6
c-8 -36 -19.333 -68 -34 -96z" />
    <glyph glyph-name="uni0122" unicode="&#x122;" horiz-adv-x="666" 
d="M129 3c-59.333 76 -88.998 153.833 -88.998 233.5s33.333 147.334 100 203.001s152 83.5 256 83.5c57.333 0 112 -8 164 -24c48.667 -61.333 73 -127 73 -197c0 -95.333 -41.667 -176.333 -125 -243c7.33301 1.33301 20.666 4.66602 39.999 9.99902s35.166 8 47.499 8
s25.5 -2.33301 39.5 -7l72 -93c-13.333 16 -32.833 24 -58.5 24s-59.834 -3.66699 -102.501 -11s-71.667 -11.333 -87 -12c-13.333 6 -26.666 16 -39.999 30c-48.667 -20 -97 -30 -145 -30s-96.333 8.33301 -145 25zM281.002 435c-24 -41.333 -36 -88.5 -36 -141.5
s12 -102.333 36 -148s56.667 -78.5 98 -98.5c31.333 40 47 86.333 47 139s-12.833 101.667 -38.5 147s-61.167 79.333 -106.5 102zM341.002 -151c-42 0 -73.998 2 -95.998 6c13.333 30 20.666 64 21.999 102c41.333 -7.33301 97.333 -11 168 -11
c-12 -66 -35.333 -125.667 -70 -179c-16.667 2 -32.334 5 -47.001 9c15.333 26 23 50.333 23 73z" />
    <glyph glyph-name="uni0123" unicode="&#x123;" horiz-adv-x="666" 
d="M129 3c-59.333 76 -88.998 153.833 -88.998 233.5s33.333 147.334 100 203.001s152 83.5 256 83.5c57.333 0 112 -8 164 -24c48.667 -61.333 73 -127 73 -197c0 -95.333 -41.667 -176.333 -125 -243c7.33301 1.33301 20.666 4.66602 39.999 9.99902s35.166 8 47.499 8
s25.5 -2.33301 39.5 -7l72 -93c-13.333 16 -32.833 24 -58.5 24s-59.834 -3.66699 -102.501 -11s-71.667 -11.333 -87 -12c-13.333 6 -26.666 16 -39.999 30c-48.667 -20 -97 -30 -145 -30s-96.333 8.33301 -145 25zM281.002 435c-24 -41.333 -36 -88.5 -36 -141.5
s12 -102.333 36 -148s56.667 -78.5 98 -98.5c31.333 40 47 86.333 47 139s-12.833 101.667 -38.5 147s-61.167 79.333 -106.5 102zM341.002 -151c-42 0 -73.998 2 -95.998 6c13.333 30 20.666 64 21.999 102c41.333 -7.33301 97.333 -11 168 -11
c-12 -66 -35.333 -125.667 -70 -179c-16.667 2 -32.334 5 -47.001 9c15.333 26 23 50.333 23 73z" />
    <glyph glyph-name="Hcircumflex" unicode="&#x124;" horiz-adv-x="740" 
d="M63 500l264.001 -0.000976562c1.33301 -27.333 2 -68 2 -122c38.667 -12 77 -28.333 115 -49c0 62 -2.33301 119 -7 171h260c1.33301 -37.333 2 -65 2 -83c0 -130.667 -12.667 -269.667 -38 -417h-239c10.667 78.667 17.667 163.334 21 254.001
c-34.667 21.333 -73.334 34.333 -116.001 39c-4 -98 -14.667 -195.667 -32 -293h-227c8.66699 65.333 13 143.5 13 234.5s-6 179.5 -18 265.5zM255.001 557.999l90 115h49l90 -115h-32l-83 62l-82 -62h-32z" />
    <glyph glyph-name="hcircumflex" unicode="&#x125;" horiz-adv-x="740" 
d="M63 500l264.001 -0.000976562c1.33301 -27.333 2 -68 2 -122c38.667 -12 77 -28.333 115 -49c0 62 -2.33301 119 -7 171h260c1.33301 -37.333 2 -65 2 -83c0 -130.667 -12.667 -269.667 -38 -417h-239c10.667 78.667 17.667 163.334 21 254.001
c-34.667 21.333 -73.334 34.333 -116.001 39c-4 -98 -14.667 -195.667 -32 -293h-227c8.66699 65.333 13 143.5 13 234.5s-6 179.5 -18 265.5zM255.001 557.999l90 115h49l90 -115h-32l-83 62l-82 -62h-32z" />
    <glyph glyph-name="Itilde" unicode="&#x128;" horiz-adv-x="396" 
d="M341 500v-26.998c0 -176 -11 -333.667 -33 -473h-240c12.667 61.333 19 132.166 19 212.499s-5.33301 176.166 -16 287.499h270zM283.5 586.502c-13.667 -7.66699 -30.3281 -11.501 -49.9951 -11.501s-40.834 6.83301 -63.501 20.5s-39.334 20.5 -50.001 20.5
c-24.667 0 -46.667 -11 -66 -33l13 40c8 9.33301 18.167 17.833 30.5 25.5s25.666 11.5 39.999 11.5s31.666 -3.66699 51.999 -11s37.833 -11 52.5 -11c36 0 69 15.667 99 47c-2.66699 -5.33301 -7.33398 -17.666 -14.001 -36.999s-12.167 -32.5 -16.5 -39.5
s-13.333 -14.333 -27 -22z" />
    <glyph glyph-name="itilde" unicode="&#x129;" horiz-adv-x="396" 
d="M341 500v-26.998c0 -176 -11 -333.667 -33 -473h-240c12.667 61.333 19 132.166 19 212.499s-5.33301 176.166 -16 287.499h270zM283.5 586.502c-13.667 -7.66699 -30.3281 -11.501 -49.9951 -11.501s-40.834 6.83301 -63.501 20.5s-39.334 20.5 -50.001 20.5
c-24.667 0 -46.667 -11 -66 -33l13 40c8 9.33301 18.167 17.833 30.5 25.5s25.666 11.5 39.999 11.5s31.666 -3.66699 51.999 -11s37.833 -11 52.5 -11c36 0 69 15.667 99 47c-2.66699 -5.33301 -7.33398 -17.666 -14.001 -36.999s-12.167 -32.5 -16.5 -39.5
s-13.333 -14.333 -27 -22z" />
    <glyph glyph-name="Imacron" unicode="&#x12a;" horiz-adv-x="396" 
d="M7 655c73.333 -3.33301 138 -5 194 -5s124 1.66699 204 5v-74c-84 4.66699 -151.5 7 -202.5 7s-116.167 -2.33301 -195.5 -7v74zM341 500v-26.998c0 -176 -11 -333.667 -33 -473h-240c12.667 61.333 19 132.166 19 212.499s-5.33301 176.166 -16 287.499h270z" />
    <glyph glyph-name="imacron" unicode="&#x12b;" horiz-adv-x="396" 
d="M7 655c73.333 -3.33301 138 -5 194 -5s124 1.66699 204 5v-74c-84 4.66699 -151.5 7 -202.5 7s-116.167 -2.33301 -195.5 -7v74zM341 500v-26.998c0 -176 -11 -333.667 -33 -473h-240c12.667 61.333 19 132.166 19 212.499s-5.33301 176.166 -16 287.499h270z" />
    <glyph glyph-name="Iogonek" unicode="&#x12e;" horiz-adv-x="396" 
d="M179 -96c0 -26.667 12 -39.9971 36 -39.9971c12 0 24.333 6 37 18c1.33301 -6.66699 3 -13.667 5 -21c-17.333 -23.333 -38.5 -35 -63.5 -35s-44.5 7 -58.5 21s-21 29.667 -21 47c0 39.333 23 74.666 69 105.999h-115c12.667 61.333 19 132.166 19 212.499
s-5.33301 176.166 -16 287.499h270v-27c0 -176 -11 -333.667 -33 -473h-77c-34.667 -28 -52 -60 -52 -96z" />
    <glyph glyph-name="iogonek" unicode="&#x12f;" horiz-adv-x="396" 
d="M179 -96c0 -26.667 12 -39.9971 36 -39.9971c12 0 24.333 6 37 18c1.33301 -6.66699 3 -13.667 5 -21c-17.333 -23.333 -38.5 -35 -63.5 -35s-44.5 7 -58.5 21s-21 29.667 -21 47c0 39.333 23 74.666 69 105.999h-115c12.667 61.333 19 132.166 19 212.499
s-5.33301 176.166 -16 287.499h270v-27c0 -176 -11 -333.667 -33 -473h-77c-34.667 -28 -52 -60 -52 -96z" />
    <glyph glyph-name="Idotaccent" unicode="&#x130;" horiz-adv-x="396" 
d="M332 398c0 -139.333 -11.333 -272.001 -34 -398.001h-227c9.33301 71.333 14 149.833 14 235.5s-6.33301 173.834 -19 264.501h264c1.33301 -45.333 2 -79.333 2 -102zM165 677.999c35.333 -3.33301 70 -5.33398 104 -6.00098c-8 -35.333 -19.667 -67.666 -35 -96.999
c-44.667 0 -78 0.333008 -100 1c16.667 40 27 74 31 102z" />
    <glyph glyph-name="dotlessi" unicode="&#x131;" horiz-adv-x="396" 
d="M341 500v-27.001c0 -175.333 -11 -333 -33 -473h-240c12.667 57.333 19 126.833 19 208.5s-5.33301 178.834 -16 291.501h270z" />
    <glyph glyph-name="Jcircumflex" unicode="&#x134;" horiz-adv-x="531" 
d="M192 -45c4.66699 52 7 123.834 7 215.501s-7.66699 201.5 -23 329.5h270c1.33301 -25.333 2 -64.333 2 -117c0 -141.333 -9.33301 -269 -28 -383c-26 -24.667 -50 -42.834 -72 -54.501l-45 -24c-8 -4.33301 -22.333 -11 -43 -20s-33 -14.5 -37 -16.5
c-85.333 6.66699 -158 21.667 -218 45c1.33301 44 3.33301 84.667 6 122c62 -44.667 122.333 -77 181 -97zM201 558.001l90 115h49l90 -115h-32l-83 62l-82 -62h-32z" />
    <glyph glyph-name="jcircumflex" unicode="&#x135;" horiz-adv-x="531" 
d="M192 -45c4.66699 52 7 123.834 7 215.501s-7.66699 201.5 -23 329.5h270c1.33301 -25.333 2 -64.333 2 -117c0 -141.333 -9.33301 -269 -28 -383c-26 -24.667 -50 -42.834 -72 -54.501l-45 -24c-8 -4.33301 -22.333 -11 -43 -20s-33 -14.5 -37 -16.5
c-85.333 6.66699 -158 21.667 -218 45c1.33301 44 3.33301 84.667 6 122c62 -44.667 122.333 -77 181 -97zM201 558.001l90 115h49l90 -115h-32l-83 62l-82 -62h-32z" />
    <glyph glyph-name="uni0136" unicode="&#x136;" horiz-adv-x="707" 
d="M570 507h32.9961c42.667 0 74.334 5 95.001 15c-29.333 -43.333 -57.666 -81 -84.999 -113h-16c-34 0 -67 5.33301 -99 16c-45.333 -37.333 -81.666 -87 -108.999 -149c70.667 -18 149.334 -28.667 236.001 -32c20 -50.667 33.667 -132 41 -244h-259
c-11.333 49.333 -28.5 94.833 -51.5 136.5s-46.833 70.167 -71.5 85.5c-4.66699 -54.667 -7 -98.667 -7 -132s1 -63.333 3 -90h-220c-12.667 98 -19 180.833 -19 248.5s5 151.5 15 251.5h278c-20 -82.667 -33.667 -152 -41 -208c30 49.333 61.5 90.833 94.5 124.5
s72.167 62.167 117.5 85.5c17.333 3.33301 39 5 65 5zM271.996 -33l165.001 -0.000976562c-14 -74 -37 -134.667 -69 -182c-20 2.66699 -35.333 5.33398 -46 8.00098c14 26 21.667 50 23 72c-41.333 0 -73 2 -95 6c13.333 30 20.666 62 21.999 96z" />
    <glyph glyph-name="uni0137" unicode="&#x137;" horiz-adv-x="707" 
d="M570 507h33c44 0 75.667 5 95 15c-32 -48 -60.333 -85.667 -85 -113h-16c-34.667 0 -67.667 5.33301 -99 16c-46 -38.667 -82.333 -88.334 -109 -149.001c70.667 -18 149.334 -28.667 236.001 -32c20 -46 33.667 -127.333 41 -244h-259
c-10.667 48.667 -27.5 93.834 -50.5 135.501s-47.167 70.5 -72.5 86.5c-4.66699 -54.667 -7 -98.667 -7 -132s1 -63.333 3 -90h-220c-12.667 98 -19 180.833 -19 248.5s5 151.5 15 251.5h278c-20.667 -86.667 -34.334 -156 -41.001 -208c61.333 100 132 170 212 210
c17.333 3.33301 39 5 65 5zM272 -33l165.002 -0.000976562c-13.333 -74 -36.333 -134.667 -69 -182c-2.66699 0.666992 -9.5 1.83398 -20.5 3.50098s-19.5 3.16699 -25.5 4.5c14 27.333 21.667 51.333 23 72c-40.667 0 -72.334 2 -95.001 6c13.333 30 20.666 62 21.999 96z
" />
    <glyph glyph-name="kgreenlandic" unicode="&#x138;" horiz-adv-x="707" 
d="M570 507h32.9961c42.667 0 74.334 5 95.001 15c-29.333 -43.333 -57.666 -81 -84.999 -113h-16c-34 0 -67 5.33301 -99 16c-45.333 -37.333 -81.666 -87 -108.999 -149c70.667 -18 149.334 -28.667 236.001 -32c20 -50.667 33.667 -132 41 -244h-259
c-11.333 49.333 -28.5 94.833 -51.5 136.5s-46.833 70.167 -71.5 85.5c-4.66699 -54.667 -7 -98.667 -7 -132s1 -63.333 3 -90h-220c-12.667 98 -19 180.833 -19 248.5s5 151.5 15 251.5h278c-20 -82.667 -33.667 -152 -41 -208c30 49.333 61.5 90.833 94.5 124.5
s72.167 62.167 117.5 85.5c17.333 3.33301 39 5 65 5z" />
    <glyph glyph-name="Lacute" unicode="&#x139;" horiz-adv-x="602" 
d="M364 66c28.667 0 51.5 6.50195 68.5 19.502s29.5 35.5 37.5 67.5l120 -4c-10 -60 -23.333 -109.667 -40 -149h-491c-12.667 85.333 -19 173.666 -19 264.999s4.66699 169.666 14 234.999h288c-44 -168.667 -66.667 -309.667 -68 -423c31.333 -7.33301 61.333 -11 90 -11z
M248 680.002l111 -13.999c-9.33301 -18 -22.5 -34.667 -39.5 -50s-33.167 -27.333 -48.5 -36s-35.333 -18.667 -60 -30h-66c48 31.333 82.333 74.666 103 129.999z" />
    <glyph glyph-name="lacute" unicode="&#x13a;" horiz-adv-x="602" 
d="M364 66c28.667 0 51.5 6.50195 68.5 19.502s29.5 35.5 37.5 67.5l120 -4c-10 -60 -23.333 -109.667 -40 -149h-491c-12.667 85.333 -19 173.666 -19 264.999s4.66699 169.666 14 234.999h288c-44 -168.667 -66.667 -309.667 -68 -423c31.333 -7.33301 61.333 -11 90 -11z
M248 680.002l111 -13.999c-9.33301 -18 -22.5 -34.667 -39.5 -50s-33.167 -27.333 -48.5 -36s-35.333 -18.667 -60 -30h-66c48 31.333 82.333 74.666 103 129.999z" />
    <glyph glyph-name="uni013B" unicode="&#x13b;" horiz-adv-x="602" 
d="M364 66c28.667 0 51.5 6.50195 68.5 19.502s29.5 35.5 37.5 67.5l120 -4c-10 -60 -23.333 -109.667 -40 -149h-491c-12.667 85.333 -19 173.666 -19 264.999s4.66699 169.666 14 234.999h288c-44 -168.667 -66.667 -309.667 -68 -423c31.333 -7.33301 61.333 -11 90 -11z
M233 -32.998l165.001 -0.000976562c-14 -74 -37 -134.667 -69 -182c-20 2.66699 -35.333 5.33398 -46 8.00098c14 26 21.667 50 23 72c-41.333 0 -73 2 -95 6c13.333 30 20.666 62 21.999 96z" />
    <glyph glyph-name="uni013C" unicode="&#x13c;" horiz-adv-x="602" 
d="M364 66c28.667 0 51.5 6.50195 68.5 19.502s29.5 35.5 37.5 67.5l120 -4c-10 -60 -23.333 -109.667 -40 -149h-491c-12.667 85.333 -19 173.666 -19 264.999s4.66699 169.666 14 234.999h288c-44 -168.667 -66.667 -309.667 -68 -423c31.333 -7.33301 61.333 -11 90 -11z
M233 -32.998l165.001 -0.000976562c-14 -74 -37 -134.667 -69 -182c-20 2.66699 -35.333 5.33398 -46 8.00098c14 26 21.667 50 23 72c-41.333 0 -73 2 -95 6c13.333 30 20.666 62 21.999 96z" />
    <glyph glyph-name="Lcaron" unicode="&#x13d;" horiz-adv-x="602" 
d="M186 554l-90 115h32l82 -62l83 62h32l-90 -115h-49zM364 66c28.667 0 51.5 6.50195 68.5 19.502s29.5 35.5 37.5 67.5l120 -4c-10 -60 -23.333 -109.667 -40 -149h-491c-12.667 85.333 -19 173.666 -19 264.999s4.66699 169.666 14 234.999h288
c-44 -168.667 -66.667 -309.667 -68 -423c31.333 -7.33301 61.333 -11 90 -11z" />
    <glyph glyph-name="lcaron" unicode="&#x13e;" horiz-adv-x="615" 
d="M364 66c28.667 0 51.5 6.50195 68.5 19.502s29.5 35.5 37.5 67.5l120 -4c-10 -60 -23.333 -109.667 -40 -149h-491c-12.667 85.333 -19 173.666 -19 264.999s4.66699 169.666 14 234.999h288c-44 -168.667 -66.667 -309.667 -68 -423c31.333 -7.33301 61.333 -11 90 -11z
M401 687.002c41.333 -7.33301 96.334 -11.002 165.001 -11.002c-12.667 -67.333 -35.667 -125.666 -69 -174.999c-20 2.66699 -35.333 5.33398 -46 8.00098c14 26 21.667 50 23 72c-41.333 0 -73 2 -95 6c13.333 30 20.666 63.333 21.999 100z" />
    <glyph glyph-name="Lslash" unicode="&#x141;" horiz-adv-x="617" 
d="M12 116l-0.999023 32c0 8 0.666992 21.333 2 40c0 2.66699 14 9.33398 42 20.001c-0.666992 14.667 -1 50.167 -1 106.5s4.66699 118.166 14 185.499h289c-14.667 -55.333 -27.334 -110.333 -38.001 -165c46.667 26 83 49.667 109 71c-9.33301 -36 -21.333 -69 -36 -99
c-22 -9.33301 -50.333 -22 -85 -38c-11.333 -72 -17.333 -136.333 -18 -193c35.333 -7.33301 66.333 -11 93 -11s48.5 6.66699 65.5 20s29.167 36 36.5 68l121 -5c-10 -58.667 -23.333 -108 -40 -148h-491c-6.66699 42 -11.667 89.667 -15 143z" />
    <glyph glyph-name="lslash" unicode="&#x142;" horiz-adv-x="617" 
d="M12 116l-0.999023 32c0 8 0.666992 21.333 2 40c0 2.66699 14 9.33398 42 20.001c-0.666992 14.667 -1 50.167 -1 106.5s4.66699 118.166 14 185.499h289c-14.667 -55.333 -27.334 -110.333 -38.001 -165c46.667 26 83 49.667 109 71c-9.33301 -36 -21.333 -69 -36 -99
c-22 -9.33301 -50.333 -22 -85 -38c-11.333 -72 -17.333 -136.333 -18 -193c35.333 -7.33301 66.333 -11 93 -11s48.5 6.66699 65.5 20s29.167 36 36.5 68l121 -5c-10 -58.667 -23.333 -108 -40 -148h-491c-6.66699 42 -11.667 89.667 -15 143z" />
    <glyph glyph-name="Nacute" unicode="&#x143;" horiz-adv-x="715" 
d="M646 500c4 -70 6 -143.832 6 -221.499s-3.33301 -170.5 -10 -278.5h-96c-129.333 69.333 -248 163.666 -356 282.999c5.33301 -44.667 8 -90.5 8 -137.5s-1.66699 -95.5 -5 -145.5h-117c13.333 82 20 157.833 20 227.5s-3.33301 124.834 -10 165.501
c-26.667 40 -47.667 75.667 -63 107h284c28 -48 66.167 -97.5 114.5 -148.5s94.5 -90.833 138.5 -119.5c0 97.333 -11 186.666 -33 267.999h119zM353 680.001l111 -13.999c-9.33301 -18 -22.5 -34.667 -39.5 -50s-33.167 -27.333 -48.5 -36s-35.333 -18.667 -60 -30h-66
c48 31.333 82.333 74.666 103 129.999z" />
    <glyph glyph-name="nacute" unicode="&#x144;" horiz-adv-x="715" 
d="M646 500c4 -70 6 -143.832 6 -221.499s-3.33301 -170.5 -10 -278.5h-96c-129.333 69.333 -248 163.666 -356 282.999c5.33301 -44.667 8 -90.5 8 -137.5s-1.66699 -95.5 -5 -145.5h-117c13.333 82 20 157.833 20 227.5s-3.33301 124.834 -10 165.501
c-26.667 40 -47.667 75.667 -63 107h284c28 -48 66.167 -97.5 114.5 -148.5s94.5 -90.833 138.5 -119.5c0 97.333 -11 186.666 -33 267.999h119zM353 680.001l111 -13.999c-9.33301 -18 -22.5 -34.667 -39.5 -50s-33.167 -27.333 -48.5 -36s-35.333 -18.667 -60 -30h-66
c48 31.333 82.333 74.666 103 129.999z" />
    <glyph glyph-name="uni0145" unicode="&#x145;" horiz-adv-x="715" 
d="M646 500c4 -70 6 -147.667 6 -233s-3.33301 -174.333 -10 -267h-96c-125.333 66 -244 160.333 -356 283c5.33301 -46 8 -92.167 8 -138.5s-1.66699 -94.5 -5 -144.5h-117c13.333 82 20 157.833 20 227.5s-3.33301 124.834 -10 165.501c-29.333 45.333 -50.333 81 -63 107
h284c27.333 -48 65.5 -97.667 114.5 -149s95.167 -91 138.5 -119c0 97.333 -11 186.666 -33 267.999h119zM281 -33l165.001 -0.000976562c-13.333 -74 -36.333 -134.667 -69 -182c-2.66699 0.666992 -9.5 1.83398 -20.5 3.50098s-19.5 3.16699 -25.5 4.5
c14 27.333 21.667 51.333 23 72c-40 0 -71.667 2 -95 6c13.333 30 20.666 62 21.999 96z" />
    <glyph glyph-name="uni0146" unicode="&#x146;" horiz-adv-x="715" 
d="M646 500c4 -70 6 -143.832 6 -221.499s-3.33301 -170.5 -10 -278.5h-96c-129.333 69.333 -248 163.666 -356 282.999c5.33301 -44.667 8 -90.5 8 -137.5s-1.66699 -95.5 -5 -145.5h-117c13.333 82 20 157.833 20 227.5s-3.33301 124.834 -10 165.501
c-26.667 40 -47.667 75.667 -63 107h284c28 -48 66.167 -97.5 114.5 -148.5s94.5 -90.833 138.5 -119.5c0 97.333 -11 186.666 -33 267.999h119zM281 -32.999l165.001 -0.000976562c-14 -74 -37 -134.667 -69 -182c-20 2.66699 -35.333 5.33398 -46 8.00098
c14 26 21.667 50 23 72c-41.333 0 -73 2 -95 6c13.333 30 20.666 62 21.999 96z" />
    <glyph glyph-name="Ncaron" unicode="&#x147;" horiz-adv-x="715" 
d="M646 500c4 -70 6 -143.832 6 -221.499s-3.33301 -170.5 -10 -278.5h-96c-129.333 69.333 -248 163.666 -356 282.999c5.33301 -44.667 8 -90.5 8 -137.5s-1.66699 -95.5 -5 -145.5h-117c13.333 82 20 157.833 20 227.5s-3.33301 124.834 -10 165.501
c-26.667 40 -47.667 75.667 -63 107h284c28 -48 66.167 -97.5 114.5 -148.5s94.5 -90.833 138.5 -119.5c0 97.333 -11 186.666 -33 267.999h119zM333 554.001l-90 115h32l82 -62l83 62h32l-90 -115h-49z" />
    <glyph glyph-name="ncaron" unicode="&#x148;" horiz-adv-x="715" 
d="M646 500c4 -70 6 -143.832 6 -221.499s-3.33301 -170.5 -10 -278.5h-96c-129.333 69.333 -248 163.666 -356 282.999c5.33301 -44.667 8 -90.5 8 -137.5s-1.66699 -95.5 -5 -145.5h-117c13.333 82 20 157.833 20 227.5s-3.33301 124.834 -10 165.501
c-26.667 40 -47.667 75.667 -63 107h284c28 -48 66.167 -97.5 114.5 -148.5s94.5 -90.833 138.5 -119.5c0 97.333 -11 186.666 -33 267.999h119zM333 554.001l-90 115h32l82 -62l83 62h32l-90 -115h-49z" />
    <glyph glyph-name="Omacron" unicode="&#x14c;" horiz-adv-x="658" 
d="M54 655c104.667 -3.33301 196.333 -5 275 -5s174.667 1.66699 288 5v-75c-118.667 4.66699 -214.167 7 -286.5 7s-164.5 -2.33301 -276.5 -7v75zM122.999 3c-59.333 76 -89.001 154 -89.001 234s33.333 147.667 100 203s152 83 256 83c55.333 0 110.333 -8.33301 165 -25
c48 -60.667 72 -125.667 72 -195c0 -87.333 -35.667 -163.333 -107 -228s-157.666 -97 -258.999 -97c-43.333 0 -89.333 8.33301 -138 25zM274.998 436c-23.333 -40 -35 -86.999 -35 -140.999s11.833 -103.833 35.5 -149.5s56.167 -78.5 97.5 -98.5
c31.333 40 47 86.333 47 139s-12.833 101.667 -38.5 147s-61.167 79.666 -106.5 102.999z" />
    <glyph glyph-name="omacron" unicode="&#x14d;" horiz-adv-x="658" 
d="M54 655c105.333 -3.33301 197.5 -5 276.5 -5s174.5 1.66699 286.5 5v-75c-158.667 4.66699 -264.167 7 -316.5 7s-134.5 -2.33301 -246.5 -7v75zM123 3c-59.333 76.667 -89.001 154.833 -89.001 234.5s33.167 147.167 99.5 202.5s151.833 83 256.5 83
c55.333 0 110.333 -8.33301 165 -25c48 -60 72 -125 72 -195c0 -87.333 -35.667 -163.333 -107 -228s-157.666 -97 -258.999 -97c-44 0 -90 8.33301 -138 25zM274.999 435.999c-23.333 -40 -35 -87.166 -35 -141.499s11.833 -104.333 35.5 -150s56.167 -78.167 97.5 -97.5
c31.333 40 47 86.333 47 139s-12.833 101.667 -38.5 147s-61.167 79.666 -106.5 102.999z" />
    <glyph glyph-name="Ohungarumlaut" unicode="&#x150;" horiz-adv-x="658" 
d="M123 3c-59.333 76 -89.001 154 -89.001 234s33.333 147.667 100 203s152 83 256 83c55.333 0 110.333 -8.33301 165 -25c48 -60.667 72 -125.667 72 -195c0 -87.333 -35.667 -163.333 -107 -228s-157.666 -97 -258.999 -97c-43.333 0 -89.333 8.33301 -138 25z
M274.999 436c-23.333 -40 -35 -86.999 -35 -140.999s11.833 -103.833 35.5 -149.5s56.167 -78.5 97.5 -98.5c31.333 40 47 86.333 47 139s-12.833 101.667 -38.5 147s-61.167 79.666 -106.5 102.999zM243.999 680.001l111 -13.999c-9.33301 -18 -22.5 -34.667 -39.5 -50
s-33.167 -27.333 -48.5 -36s-35.333 -18.667 -60 -30h-66c48 31.333 82.333 74.666 103 129.999zM404.999 680.002l111 -13.999c-9.33301 -18 -22.5 -34.667 -39.5 -50s-33.167 -27.333 -48.5 -36s-35.333 -18.667 -60 -30h-66c48 31.333 82.333 74.666 103 129.999z" />
    <glyph glyph-name="ohungarumlaut" unicode="&#x151;" horiz-adv-x="658" 
d="M123 3c-59.333 76 -89.001 154 -89.001 234s33.333 147.667 100 203s152 83 256 83c55.333 0 110.333 -8.33301 165 -25c48 -60.667 72 -125.667 72 -195c0 -87.333 -35.667 -163.333 -107 -228s-157.666 -97 -258.999 -97c-43.333 0 -89.333 8.33301 -138 25z
M274.999 436c-23.333 -40 -35 -86.999 -35 -140.999s11.833 -103.833 35.5 -149.5s56.167 -78.5 97.5 -98.5c31.333 40 47 86.333 47 139s-12.833 101.667 -38.5 147s-61.167 79.666 -106.5 102.999zM243.999 680.001l111 -13.999c-9.33301 -18 -22.5 -34.667 -39.5 -50
s-33.167 -27.333 -48.5 -36s-35.333 -18.667 -60 -30h-66c48 31.333 82.333 74.666 103 129.999zM404.999 680.002l111 -13.999c-9.33301 -18 -22.5 -34.667 -39.5 -50s-33.167 -27.333 -48.5 -36s-35.333 -18.667 -60 -30h-66c48 31.333 82.333 74.666 103 129.999z" />
    <glyph glyph-name="OE" unicode="&#x152;" horiz-adv-x="952" 
d="M695 299l93.999 -6.00195c9.33301 0 16.333 0.333008 21 1l-47 -88h-9c-12.667 0 -30.667 3.5 -54 10.5s-40 10.5 -50 10.5c-27.333 0 -49 -17.667 -65 -53c-2.66699 -32.667 -4.66699 -65.334 -6 -98.001c34.667 -6.66699 62 -10 82 -10h9
c28.667 0 51.5 6.33301 68.5 19s29.167 35.334 36.5 68.001l120 -5c-10 -57.333 -23.333 -106.666 -40 -147.999h-416c-66.667 -14.667 -125.167 -22 -175.5 -22s-99.166 7.66699 -146.499 23c-58 75.333 -87 152.833 -87 232.5s32.333 147.834 97 204.501
s147.334 85 248.001 85c25.333 0 52.666 -3.5 81.999 -10.5s47 -11.167 53 -12.5h384c-11.333 -70 -22 -120.667 -32 -152c-39.333 -2 -75.333 -3.33301 -108 -4c6 16.667 9 32.667 9 48c0 28.667 -24.333 43 -73 43c-21.333 0 -41.333 -1.66699 -60 -5
c-14.667 -62 -26 -118 -34 -168c26.667 24.667 59.667 37 99 37zM265.999 430.998c-23.333 -40.667 -35 -87.1689 -35 -139.502s11.667 -100.666 35 -144.999s55 -76.166 95 -95.499c34.667 44.667 52 94.5 52 149.5s-12.5 102.667 -37.5 143s-61.5 69.5 -109.5 87.5z" />
    <glyph glyph-name="oe" unicode="&#x153;" horiz-adv-x="952" 
d="M695 299l93.999 -6.00195c9.33301 0 16.333 0.333008 21 1l-47 -88h-9c-12.667 0 -30.667 3.5 -54 10.5s-40 10.5 -50 10.5c-27.333 0 -49 -17.667 -65 -53c-2.66699 -32.667 -4.66699 -65.334 -6 -98.001c34.667 -6.66699 62 -10 82 -10h9
c28.667 0 51.5 6.33301 68.5 19s29.167 35.334 36.5 68.001l120 -5c-10 -57.333 -23.333 -106.666 -40 -147.999h-416c-66.667 -14.667 -125.167 -22 -175.5 -22s-99.166 7.66699 -146.499 23c-58 75.333 -87 152.833 -87 232.5s32.333 147.834 97 204.501
s147.334 85 248.001 85c25.333 0 52.666 -3.5 81.999 -10.5s47 -11.167 53 -12.5h384c-11.333 -70 -22 -120.667 -32 -152c-39.333 -2 -75.333 -3.33301 -108 -4c6 16.667 9 32.667 9 48c0 28.667 -24.333 43 -73 43c-21.333 0 -41.333 -1.66699 -60 -5
c-14.667 -62 -26 -118 -34 -168c26.667 24.667 59.667 37 99 37zM265.999 430.998c-23.333 -40.667 -35 -87.1689 -35 -139.502s11.667 -100.666 35 -144.999s55 -76.166 95 -95.499c34.667 44.667 52 94.5 52 149.5s-12.5 102.667 -37.5 143s-61.5 69.5 -109.5 87.5z" />
    <glyph glyph-name="Racute" unicode="&#x154;" horiz-adv-x="706" 
d="M622 326l-1.00098 -34.001c-53.333 -28.667 -120 -51 -200 -67c57.333 -15.333 112.666 -23 165.999 -23h21c36.667 -54 60.334 -121.333 71.001 -202h-259c-6.66699 46.667 -20.167 86.834 -40.5 120.501s-45.166 56.5 -74.499 68.5c-0.666992 -11.333 -1 -34 -1 -68
s2 -74.333 6 -121h-218c-19.333 96.667 -29 186.5 -29 269.5s4.66699 159.833 14 230.5h522c15.333 -67.333 23 -125.333 23 -174zM325.999 432.999c-8 -58.667 -14 -116.334 -18 -173.001c36.667 5.33301 66.667 18.333 90 39c-12.667 44.667 -36.667 89.334 -72 134.001z
M348.999 679.999l111 -13.999c-9.33301 -18 -22.5 -34.667 -39.5 -50s-33.167 -27.333 -48.5 -36s-35.333 -18.667 -60 -30h-66c48 31.333 82.333 74.666 103 129.999z" />
    <glyph glyph-name="racute" unicode="&#x155;" horiz-adv-x="706" 
d="M622 326l-1.00098 -34.001c-53.333 -28.667 -120 -51 -200 -67c57.333 -15.333 112.666 -23 165.999 -23h21c36.667 -54 60.334 -121.333 71.001 -202h-259c-6.66699 46.667 -20.167 86.834 -40.5 120.501s-45.166 56.5 -74.499 68.5c-0.666992 -11.333 -1 -34 -1 -68
s2 -74.333 6 -121h-218c-19.333 96.667 -29 186.5 -29 269.5s4.66699 159.833 14 230.5h522c15.333 -67.333 23 -125.333 23 -174zM325.999 432.999c-8 -58.667 -14 -116.334 -18 -173.001c36.667 5.33301 66.667 18.333 90 39c-12.667 44.667 -36.667 89.334 -72 134.001z
M348.999 679.999l111 -13.999c-9.33301 -18 -22.5 -34.667 -39.5 -50s-33.167 -27.333 -48.5 -36s-35.333 -18.667 -60 -30h-66c48 31.333 82.333 74.666 103 129.999z" />
    <glyph glyph-name="uni0156" unicode="&#x156;" horiz-adv-x="706" 
d="M622 326l-1.00098 -34.001c-53.333 -28.667 -120 -51 -200 -67c57.333 -15.333 112.666 -23 165.999 -23h21c36.667 -54 60.334 -121.333 71.001 -202h-259c-6.66699 46.667 -20.167 86.834 -40.5 120.501s-45.166 56.5 -74.499 68.5c-0.666992 -11.333 -1 -34 -1 -68
s2 -74.333 6 -121h-218c-19.333 96.667 -29 186.5 -29 269.5s4.66699 159.833 14 230.5h522c15.333 -67.333 23 -125.333 23 -174zM325.999 432.999c-8 -58.667 -14 -116.334 -18 -173.001c36.667 5.33301 66.667 18.333 90 39c-12.667 44.667 -36.667 89.334 -72 134.001z
M280.999 -33.001l165.001 -0.000976562c-14 -74 -37 -134.667 -69 -182c-20 2.66699 -35.333 5.33398 -46 8.00098c14 26 21.667 50 23 72c-41.333 0 -73 2 -95 6c13.333 30 20.666 62 21.999 96z" />
    <glyph glyph-name="uni0157" unicode="&#x157;" horiz-adv-x="706" 
d="M622 326l-1.00098 -34.001c-53.333 -28.667 -120 -51 -200 -67c57.333 -15.333 112.666 -23 165.999 -23h21c36.667 -54 60.334 -121.333 71.001 -202h-259c-6.66699 46.667 -20.167 86.834 -40.5 120.501s-45.166 56.5 -74.499 68.5c-0.666992 -11.333 -1 -34 -1 -68
s2 -74.333 6 -121h-218c-19.333 96.667 -29 186.5 -29 269.5s4.66699 159.833 14 230.5h522c15.333 -67.333 23 -125.333 23 -174zM325.999 432.999c-8 -58.667 -14 -116.334 -18 -173.001c36.667 5.33301 66.667 18.333 90 39c-12.667 44.667 -36.667 89.334 -72 134.001z
M280.999 -33.001l165.001 -0.000976562c-14 -74 -37 -134.667 -69 -182c-20 2.66699 -35.333 5.33398 -46 8.00098c14 26 21.667 50 23 72c-41.333 0 -73 2 -95 6c13.333 30 20.666 62 21.999 96z" />
    <glyph glyph-name="Rcaron" unicode="&#x158;" horiz-adv-x="706" 
d="M622 326l-1.00098 -34.002c-51.333 -28.667 -118 -51 -200 -67c57.333 -15.333 112.666 -23 165.999 -23h21c36.667 -53.333 60.334 -120.666 71.001 -201.999h-259c-6.66699 46.667 -20.167 86.834 -40.5 120.501s-45.166 56.5 -74.499 68.5
c-0.666992 -11.333 -1 -34 -1 -68s2 -74.333 6 -121h-218c-19.333 98.667 -29 189 -29 271s4.66699 158.333 14 229h522c15.333 -68 23 -126 23 -174zM325.999 432.998c-8 -60 -14 -117.667 -18 -173c36 5.33301 66 18.333 90 39c-12 44 -36 88.667 -72 134z
M327.999 553.998l-90 115h32l82 -62l83 62h32l-90 -115h-49z" />
    <glyph glyph-name="rcaron" unicode="&#x159;" horiz-adv-x="706" 
d="M622 326l-1.00098 -34.002c-51.333 -28.667 -118 -51 -200 -67c57.333 -15.333 112.666 -23 165.999 -23h21c36.667 -53.333 60.334 -120.666 71.001 -201.999h-259c-6.66699 46.667 -20.167 86.834 -40.5 120.501s-45.166 56.5 -74.499 68.5
c-0.666992 -11.333 -1 -34 -1 -68s2 -74.333 6 -121h-218c-19.333 98.667 -29 189 -29 271s4.66699 158.333 14 229h522c15.333 -68 23 -126 23 -174zM325.999 432.998c-8 -60 -14 -117.667 -18 -173c36 5.33301 66 18.333 90 39c-12 44 -36 88.667 -72 134z
M327.999 553.998l-90 115h32l82 -62l83 62h32l-90 -115h-49z" />
    <glyph glyph-name="Sacute" unicode="&#x15a;" horiz-adv-x="635" 
d="M423 440c-26.667 4 -55.1729 6.00293 -85.5059 6.00293s-59.833 -2 -88.5 -6c18 -30.667 39.333 -55.667 64 -75s55.834 -38.5 93.501 -57.5s68.334 -36.5 92.001 -52.5s49.834 -42.333 78.501 -79s46.667 -75 54 -115c-32 -41.333 -74.333 -77.833 -127 -109.5
s-106.667 -52.834 -162 -63.501c-37.333 3.33301 -84.5 13.833 -141.5 31.5s-99.833 26.5 -128.5 26.5s-57.334 -9 -86.001 -27c12 34 31.667 76.667 59 128h8c42.667 0 82.834 -6.66699 120.501 -20s72 -26.666 103 -39.999s56 -20 75 -20s32.833 1.33301 41.5 4
c0 44 -13.667 80.333 -41 109c-14.667 15.333 -27.167 27.166 -37.5 35.499s-26.166 19.833 -47.499 34.5l-17 12c-45.333 31.333 -82.666 63.166 -111.999 95.499s-50.666 72.166 -63.999 119.499c21.333 47.333 42.333 88.333 63 123c63.333 15.333 129 23 197 23h44
c57.333 0 123 -8 197 -24c-10.667 -44 -23.667 -83.667 -39 -119c-56 -4 -99.333 -6 -130 -6c6 15.333 11.667 37.333 17 66zM312.994 680.003l111 -13.999c-9.33301 -18 -22.5 -34.667 -39.5 -50s-33.167 -27.333 -48.5 -36s-35.333 -18.667 -60 -30h-66
c48 31.333 82.333 74.666 103 129.999z" />
    <glyph glyph-name="sacute" unicode="&#x15b;" horiz-adv-x="635" 
d="M423 440c-26.667 4 -55.1729 6.00293 -85.5059 6.00293s-59.833 -2 -88.5 -6c18 -30.667 39.333 -55.667 64 -75s55.834 -38.5 93.501 -57.5s68.334 -36.5 92.001 -52.5s49.834 -42.333 78.501 -79s46.667 -75 54 -115c-32 -41.333 -74.333 -77.833 -127 -109.5
s-106.667 -52.834 -162 -63.501c-37.333 3.33301 -84.5 13.833 -141.5 31.5s-99.833 26.5 -128.5 26.5s-57.334 -9 -86.001 -27c12 34 31.667 76.667 59 128h8c42.667 0 82.834 -6.66699 120.501 -20s72 -26.666 103 -39.999s56 -20 75 -20s32.833 1.33301 41.5 4
c0 44 -13.667 80.333 -41 109c-14.667 15.333 -27.167 27.166 -37.5 35.499s-26.166 19.833 -47.499 34.5l-17 12c-45.333 31.333 -82.666 63.166 -111.999 95.499s-50.666 72.166 -63.999 119.499c21.333 47.333 42.333 88.333 63 123c63.333 15.333 129 23 197 23h44
c57.333 0 123 -8 197 -24c-10.667 -44 -23.667 -83.667 -39 -119c-56 -4 -99.333 -6 -130 -6c6 15.333 11.667 37.333 17 66zM312.994 680.003l111 -13.999c-9.33301 -18 -22.5 -34.667 -39.5 -50s-33.167 -27.333 -48.5 -36s-35.333 -18.667 -60 -30h-66
c48 31.333 82.333 74.666 103 129.999z" />
    <glyph glyph-name="Scircumflex" unicode="&#x15c;" horiz-adv-x="635" 
d="M378 523c57.333 0 122.997 -7.99902 196.997 -23.999c-10.667 -44 -23.667 -83.667 -39 -119c-56 -4 -99.333 -6 -130 -6c6 15.333 11.667 37.333 17 66c-27.333 4 -55.833 6 -85.5 6s-59.167 -2 -88.5 -6c18 -30.667 39.333 -55.667 64 -75s56 -38.666 94 -57.999
s68.5 -36.666 91.5 -51.999s49 -41.5 78 -78.5s47.167 -75.5 54.5 -115.5c-32 -41.333 -74.333 -77.833 -127 -109.5s-106.667 -52.834 -162 -63.501c-37.333 3.33301 -84.5 13.833 -141.5 31.5s-99.833 26.5 -128.5 26.5s-57.334 -9 -86.001 -27
c12 34 31.667 76.667 59 128h8c42.667 0 82.834 -6.66699 120.501 -20s72 -26.666 103 -39.999s56 -20 75 -20s32.833 1.33301 41.5 4c0 44 -13.667 80.333 -41 109c-14.667 15.333 -27.167 27.166 -37.5 35.499s-26.166 19.833 -47.499 34.5l-17 12
c-45.333 31.333 -82.666 63.166 -111.999 95.499s-50.666 72.166 -63.999 119.499c21.333 47.333 42.333 88.333 63 123c63.333 15.333 129 23 197 23h44zM202.997 558.001l90 115h49l90 -115h-32l-83 62l-82 -62h-32z" />
    <glyph glyph-name="scircumflex" unicode="&#x15d;" horiz-adv-x="635" 
d="M378 523c57.333 0 122.997 -7.99902 196.997 -23.999c-10.667 -44 -23.667 -83.667 -39 -119c-56 -4 -99.333 -6 -130 -6c6 15.333 11.667 37.333 17 66c-27.333 4 -55.833 6 -85.5 6s-59.167 -2 -88.5 -6c18 -30.667 39.333 -55.667 64 -75s56 -38.666 94 -57.999
s68.5 -36.666 91.5 -51.999s49 -41.5 78 -78.5s47.167 -75.5 54.5 -115.5c-32 -41.333 -74.333 -77.833 -127 -109.5s-106.667 -52.834 -162 -63.501c-37.333 3.33301 -84.5 13.833 -141.5 31.5s-99.833 26.5 -128.5 26.5s-57.334 -9 -86.001 -27
c12 34 31.667 76.667 59 128h8c42.667 0 82.834 -6.66699 120.501 -20s72 -26.666 103 -39.999s56 -20 75 -20s32.833 1.33301 41.5 4c0 44 -13.667 80.333 -41 109c-14.667 15.333 -27.167 27.166 -37.5 35.499s-26.166 19.833 -47.499 34.5l-17 12
c-45.333 31.333 -82.666 63.166 -111.999 95.499s-50.666 72.166 -63.999 119.499c21.333 47.333 42.333 88.333 63 123c63.333 15.333 129 23 197 23h44zM202.997 558.001l90 115h49l90 -115h-32l-83 62l-82 -62h-32z" />
    <glyph glyph-name="Scedilla" unicode="&#x15e;" horiz-adv-x="577" 
d="M286 -58l42.998 7.00195c11.333 0 21.833 -3.16699 31.5 -9.5s15.167 -14.5 16.5 -24.5v-5c0 -26 -11.833 -49.833 -35.5 -71.5s-53.834 -32.834 -90.501 -33.501l-6 21c20 0 35.5 4.83301 46.5 14.5s16.5 20.5 16.5 32.5c0 17.333 -10.667 26 -32 26
c-4 0 -19.333 -5 -46 -15l32 93c-102 0 -183 8 -243 24c9.33301 59.333 19 103 29 131l110 5c-6 -18 -9 -33 -9 -45c0 -32 23.833 -48 71.5 -48s90.5 3.66699 128.5 11c-21.333 26.667 -73.666 71.667 -156.999 135c-26.667 20.667 -53.334 48.5 -80.001 83.5
s-45.667 72.833 -57 113.5c18.667 42.667 37.667 80 57 112c60.667 16 128.334 24 203.001 24s147.667 -8 219 -24c-10 -56 -18.667 -95.667 -26 -119l-110 -5c5.33301 17.333 8 32.5 8 45.5s-6.16699 22.167 -18.5 27.5s-36.166 8 -71.499 8s-67.333 -3.66699 -96 -11
c18.667 -31.333 43 -58 73 -80s58.833 -38.667 86.5 -50s58.334 -28.333 92.001 -51s62.5 -49.667 86.5 -81c-12 -64.667 -33 -125.334 -63 -182.001c-46 -14 -111.667 -22 -197 -24z" />
    <glyph glyph-name="scedilla" unicode="&#x15f;" horiz-adv-x="577" 
d="M286 -58l42.998 7.00195c11.333 0 21.833 -3.16699 31.5 -9.5s15.167 -14.5 16.5 -24.5v-5c0 -26 -11.833 -49.833 -35.5 -71.5s-53.834 -32.834 -90.501 -33.501l-6 21c20 0 35.5 4.83301 46.5 14.5s16.5 20.5 16.5 32.5c0 17.333 -10.667 26 -32 26
c-4 0 -19.333 -5 -46 -15l32 93c-102 0 -183 8 -243 24c9.33301 59.333 19 103 29 131l110 5c-6 -18 -9 -33 -9 -45c0 -32 23.833 -48 71.5 -48s90.5 3.66699 128.5 11c-21.333 26.667 -73.666 71.667 -156.999 135c-26.667 20.667 -53.334 48.5 -80.001 83.5
s-45.667 72.833 -57 113.5c18.667 42.667 37.667 80 57 112c60.667 16 128.334 24 203.001 24s147.667 -8 219 -24c-10 -56 -18.667 -95.667 -26 -119l-110 -5c5.33301 17.333 8 32.5 8 45.5s-6.16699 22.167 -18.5 27.5s-36.166 8 -71.499 8s-67.333 -3.66699 -96 -11
c18.667 -31.333 43 -58 73 -80s58.833 -38.667 86.5 -50s58.334 -28.333 92.001 -51s62.5 -49.667 86.5 -81c-12 -64.667 -33 -125.334 -63 -182.001c-46 -14 -111.667 -22 -197 -24z" />
    <glyph glyph-name="Scaron" unicode="&#x160;" horiz-adv-x="635" 
d="M423 440c-26.667 4 -55.1729 6.00293 -85.5059 6.00293s-59.833 -2 -88.5 -6c18 -30.667 39.333 -55.667 64 -75s55.834 -38.5 93.501 -57.5s68.334 -36.5 92.001 -52.5s49.834 -42.333 78.501 -79s46.667 -75 54 -115c-32 -41.333 -74.333 -77.833 -127 -109.5
s-106.667 -52.834 -162 -63.501c-37.333 3.33301 -84.5 13.833 -141.5 31.5s-99.833 26.5 -128.5 26.5s-57.334 -9 -86.001 -27c12 34 31.667 76.667 59 128h8c42.667 0 82.834 -6.66699 120.501 -20s72 -26.666 103 -39.999s56 -20 75 -20s32.833 1.33301 41.5 4
c0 44 -13.667 80.333 -41 109c-14.667 15.333 -27.167 27.166 -37.5 35.499s-26.166 19.833 -47.499 34.5l-17 12c-45.333 31.333 -82.666 63.166 -111.999 95.499s-50.666 72.166 -63.999 119.499c21.333 47.333 42.333 88.333 63 123c63.333 15.333 129 23 197 23h44
c57.333 0 123 -8 197 -24c-10.667 -44 -23.667 -83.667 -39 -119c-56 -4 -99.333 -6 -130 -6c6 15.333 11.667 37.333 17 66zM292.994 554.003l-90 115h32l82 -62l83 62h32l-90 -115h-49z" />
    <glyph glyph-name="scaron" unicode="&#x161;" horiz-adv-x="635" 
d="M423 440c-26.667 4 -55.1729 6.00293 -85.5059 6.00293s-59.833 -2 -88.5 -6c18 -30.667 39.333 -55.667 64 -75s55.834 -38.5 93.501 -57.5s68.334 -36.5 92.001 -52.5s49.834 -42.333 78.501 -79s46.667 -75 54 -115c-32 -41.333 -74.333 -77.833 -127 -109.5
s-106.667 -52.834 -162 -63.501c-37.333 3.33301 -84.5 13.833 -141.5 31.5s-99.833 26.5 -128.5 26.5s-57.334 -9 -86.001 -27c12 34 31.667 76.667 59 128h8c42.667 0 82.834 -6.66699 120.501 -20s72 -26.666 103 -39.999s56 -20 75 -20s32.833 1.33301 41.5 4
c0 44 -13.667 80.333 -41 109c-14.667 15.333 -27.167 27.166 -37.5 35.499s-26.166 19.833 -47.499 34.5l-17 12c-45.333 31.333 -82.666 63.166 -111.999 95.499s-50.666 72.166 -63.999 119.499c21.333 47.333 42.333 88.333 63 123c63.333 15.333 129 23 197 23h44
c57.333 0 123 -8 197 -24c-10.667 -44 -23.667 -83.667 -39 -119c-56 -4 -99.333 -6 -130 -6c6 15.333 11.667 37.333 17 66zM292.994 554.003l-90 115h32l82 -62l83 62h32l-90 -115h-49z" />
    <glyph glyph-name="uni0162" unicode="&#x162;" horiz-adv-x="705" 
d="M472 435c-17.333 -105.333 -26 -191.334 -26 -258.001s2.66699 -125.667 8 -177h-218c-22.667 106 -34 220 -34 342c0 20.667 0.666992 51.667 2 93c-56.667 -16.667 -91.334 -55 -104.001 -115l-99 6l36 174h665c-13.333 -73.333 -28.666 -133.333 -45.999 -180l-101 6
c2.66699 10.667 4 21.334 4 32.001c0 26 -8 45.333 -24 58s-37 19 -63 19zM472 434.999c26 0 47 -6.33203 63 -18.999s24 -32 24 -58c0 -10.667 -1.33301 -21.334 -4 -32.001l101 -6c17.333 46.667 32.666 106.667 45.999 180h-665l-36 -174l99 -6
c12.667 60 47.334 98.333 104.001 115c-1.33301 -41.333 -2 -72.333 -2 -93c0 -122 11.333 -236 34 -342h218c-5.33301 51.333 -8 110.333 -8 177s8.66699 152.667 26 258zM272 -33l165.001 -0.000976562c-14 -74 -37 -134.667 -69 -182
c-20 2.66699 -35.333 5.33398 -46 8.00098c14 26 21.667 50 23 72c-41.333 0 -73 2 -95 6c13.333 30 20.666 62 21.999 96z" />
    <glyph glyph-name="uni0163" unicode="&#x163;" horiz-adv-x="705" 
d="M472 435c-17.333 -105.333 -26 -191.334 -26 -258.001s2.66699 -125.667 8 -177h-218c-22.667 106 -34 220 -34 342c0 20.667 0.666992 51.667 2 93c-56.667 -16.667 -91.334 -55 -104.001 -115l-99 6l36 174h665c-13.333 -73.333 -28.666 -133.333 -45.999 -180l-101 6
c2.66699 10.667 4 21.334 4 32.001c0 26 -8 45.333 -24 58s-37 19 -63 19zM472 434.999c26 0 47 -6.33203 63 -18.999s24 -32 24 -58c0 -10.667 -1.33301 -21.334 -4 -32.001l101 -6c17.333 46.667 32.666 106.667 45.999 180h-665l-36 -174l99 -6
c12.667 60 47.334 98.333 104.001 115c-1.33301 -41.333 -2 -72.333 -2 -93c0 -122 11.333 -236 34 -342h218c-5.33301 51.333 -8 110.333 -8 177s8.66699 152.667 26 258zM272 -33l165.001 -0.000976562c-14 -74 -37 -134.667 -69 -182
c-20 2.66699 -35.333 5.33398 -46 8.00098c14 26 21.667 50 23 72c-41.333 0 -73 2 -95 6c13.333 30 20.666 62 21.999 96z" />
    <glyph glyph-name="Tcaron" unicode="&#x164;" horiz-adv-x="705" 
d="M472 435c-17.333 -105.333 -26 -191.334 -26 -258.001s2.66699 -125.667 8 -177h-218c-22.667 106 -34 220 -34 342c0 20.667 0.666992 51.667 2 93c-56.667 -16.667 -91.334 -55 -104.001 -115l-99 6l36 174h665c-13.333 -73.333 -28.666 -133.333 -45.999 -180l-101 6
c2.66699 10.667 4 21.334 4 32.001c0 26 -8 45.333 -24 58s-37 19 -63 19zM328 554.999l-90 115h32l82 -62l83 62h32l-90 -115h-49z" />
    <glyph glyph-name="tcaron" unicode="&#x165;" horiz-adv-x="886" 
d="M472 435c-17.333 -105.333 -26 -191.334 -26 -258.001s2.66699 -125.667 8 -177h-218c-22.667 106 -34 220 -34 342c0 20.667 0.666992 51.667 2 93c-56.667 -16.667 -91.334 -55 -104.001 -115l-99 6l36 174h665c-13.333 -73.333 -28.666 -133.333 -45.999 -180l-101 6
c2.66699 10.667 4 21.334 4 32.001c0 26 -8 45.333 -24 58s-37 19 -63 19zM709 686.999c41.333 -7.33301 96.334 -11.002 165.001 -11.002c-12.667 -67.333 -35.667 -125.666 -69 -174.999c-20 2.66699 -35.333 5.33398 -46 8.00098c14 26 21.667 50 23 72
c-41.333 0 -73 2 -95 6c13.333 30 20.666 63.333 21.999 100z" />
    <glyph glyph-name="Utilde" unicode="&#x168;" 
d="M658 500c2.66699 -43.333 4 -106.5 4 -189.5s-5.33301 -171.5 -16 -265.5c-69.333 -44.667 -152.333 -67 -249 -67c-128.667 0 -232.667 22.333 -312 67c-8.66699 72 -13 141.833 -13 209.5s5 149.5 15 245.5h269c-26.667 -144.667 -40.667 -283.667 -42 -417
c28 -25.333 68.333 -38 121 -38s93 9.33301 121 28c1.33301 22 2 53.667 2 95c0 105.333 -9.33301 216 -28 332h128zM436.5 586.5c-13.667 -7.66699 -30.3281 -11.501 -49.9951 -11.501s-40.834 6.83301 -63.501 20.5s-39.334 20.5 -50.001 20.5
c-24.667 0 -46.667 -11 -66 -33l13 40c8 9.33301 18.167 17.833 30.5 25.5s25.666 11.5 39.999 11.5s31.666 -3.66699 51.999 -11s37.833 -11 52.5 -11c36 0 69 15.667 99 47c-2.66699 -5.33301 -7.33398 -17.666 -14.001 -36.999s-12.167 -32.5 -16.5 -39.5
s-13.333 -14.333 -27 -22z" />
    <glyph glyph-name="utilde" unicode="&#x169;" 
d="M658 500c2.66699 -43.333 4 -106.5 4 -189.5s-5.33301 -171.5 -16 -265.5c-69.333 -44.667 -152.333 -67 -249 -67c-128.667 0 -232.667 22.333 -312 67c-8.66699 72 -13 141.833 -13 209.5s5 149.5 15 245.5h269c-26.667 -144.667 -40.667 -283.667 -42 -417
c28 -25.333 68.333 -38 121 -38s93 9.33301 121 28c1.33301 22 2 53.667 2 95c0 105.333 -9.33301 216 -28 332h128zM436.5 586.5c-13.667 -7.66699 -30.3281 -11.501 -49.9951 -11.501s-40.834 6.83301 -63.501 20.5s-39.334 20.5 -50.001 20.5
c-24.667 0 -46.667 -11 -66 -33l13 40c8 9.33301 18.167 17.833 30.5 25.5s25.666 11.5 39.999 11.5s31.666 -3.66699 51.999 -11s37.833 -11 52.5 -11c36 0 69 15.667 99 47c-2.66699 -5.33301 -7.33398 -17.666 -14.001 -36.999s-12.167 -32.5 -16.5 -39.5
s-13.333 -14.333 -27 -22z" />
    <glyph glyph-name="Umacron" unicode="&#x16a;" 
d="M90 655c104.667 -3.33301 196.333 -5 275 -5s174.667 1.66699 288 5v-75c-118.667 4.66699 -214.167 7 -286.5 7s-164.5 -2.33301 -276.5 -7v75zM657.999 500c2.66699 -43.333 4 -106.5 4 -189.5s-5.33301 -171.5 -16 -265.5c-69.333 -44.667 -152.333 -67 -249 -67
c-128.667 0 -232.667 22.333 -312 67c-8.66699 72 -13 141.833 -13 209.5s5 149.5 15 245.5h269c-26.667 -144.667 -40.667 -283.667 -42 -417c28 -25.333 68.333 -38 121 -38s93 9.33301 121 28c1.33301 22 2 53.667 2 95c0 105.333 -9.33301 216 -28 332h128z" />
    <glyph glyph-name="umacron" unicode="&#x16b;" 
d="M90 655c104.667 -3.33301 196.333 -5 275 -5s174.667 1.66699 288 5v-75c-118.667 4.66699 -214.167 7 -286.5 7s-164.5 -2.33301 -276.5 -7v75zM657.999 500c2.66699 -43.333 4 -106.5 4 -189.5s-5.33301 -171.5 -16 -265.5c-69.333 -44.667 -152.333 -67 -249 -67
c-128.667 0 -232.667 22.333 -312 67c-8.66699 72 -13 141.833 -13 209.5s5 149.5 15 245.5h269c-26.667 -144.667 -40.667 -283.667 -42 -417c28 -25.333 68.333 -38 121 -38s93 9.33301 121 28c1.33301 22 2 53.667 2 95c0 105.333 -9.33301 216 -28 332h128z" />
    <glyph glyph-name="Ubreve" unicode="&#x16c;" horiz-adv-x="675" 
d="M388 523c61.333 0 129.67 -8.33398 205.003 -25.001c-11.333 -45.333 -24.333 -85.333 -39 -120c-40 -2.66699 -83.667 -4.66699 -131 -6c7.33301 22.667 12.666 45 15.999 67c-20.667 4 -42.334 6 -65.001 6s-49.334 -3.66699 -80.001 -11
c-10.667 -45.333 -16 -86.333 -16 -123c0 -55.333 12.5 -107.166 37.5 -155.499s58.5 -83.833 100.5 -106.5c0 4.66699 0.166992 11.834 0.5 21.501s0.5 27.334 0.5 53.001s-4 71.167 -12 136.5h216c0 -94.667 -4.66699 -181.334 -14 -260.001
c-103.333 -14.667 -210.333 -22 -321 -22h-64c-60.667 26 -108 64.167 -142 114.5s-51 103.833 -51 160.5c0 75.333 30.5 139.166 91.5 191.499s150.167 78.5 267.5 78.5zM223.004 557.999l90 115h49l90 -115h-32l-83 62l-82 -62h-32z" />
    <glyph glyph-name="ubreve" unicode="&#x16d;" 
d="M658 500c2.66699 -43.333 4 -106.5 4 -189.5s-5.33301 -171.5 -16 -265.5c-69.333 -44.667 -152.333 -67 -249 -67c-128.667 0 -232.667 22.333 -312 67c-8.66699 72 -13 141.833 -13 209.5s5 149.5 15 245.5h269c-26.667 -144.667 -40.667 -283.667 -42 -417
c28 -25.333 68.333 -38 121 -38s93 9.33301 121 28c1.33301 22 2 53.667 2 95c0 105.333 -9.33301 216 -28 332h128zM352 615c22.667 -14.667 49.998 -22 81.998 -22s60.333 11 85 33c1.33301 0 -1.66699 -6.5 -9 -19.5s-19.666 -26.5 -36.999 -40.5
c-22 -18.667 -51.167 -28 -87.5 -28s-71.166 10.333 -104.499 31l-14 8c3.33301 20 9.5 42.167 18.5 66.5s13.833 36.5 14.5 36.5z" />
    <glyph glyph-name="Uring" unicode="&#x16e;" 
d="M558 168c0 105.333 -9.33301 216 -28 332h128c2.66699 -43.333 4 -106.5 4 -189.5s-5.33301 -171.5 -16 -265.5c-69.333 -44.667 -152.333 -67 -249 -67c-128.667 0 -232.667 22.333 -312 67c-8.66699 72 -13 141.833 -13 209.5s5 149.5 15 245.5h269
c-26.667 -144.667 -40.667 -283.667 -42 -417c28 -25.333 68.333 -38 121 -38s93 9.33301 121 28c1.33301 22 2 53.667 2 95zM332 558c-19.333 14.667 -29.001 30.8311 -29.001 48.498s9.5 33.667 28.5 48s39.833 21.5 62.5 21.5s38.167 -5.16699 46.5 -15.5
s12.5 -23.666 12.5 -39.999s-9 -31.666 -27 -45.999s-39 -21.5 -63 -21.5c-9.33301 0 -19.666 1.66699 -30.999 5zM357.999 623.997c0 -28 10.333 -46.666 31 -55.999c6.66699 8.66699 10 19.667 10 33c0 26.667 -11 45 -33 55c-5.33301 -10.667 -8 -21.334 -8 -32.001z" />
    <glyph glyph-name="uring" unicode="&#x16f;" 
d="M558 168c0 105.333 -9.33301 216 -28 332h128c2.66699 -43.333 4 -106.5 4 -189.5s-5.33301 -171.5 -16 -265.5c-69.333 -44.667 -152.333 -67 -249 -67c-128.667 0 -232.667 22.333 -312 67c-8.66699 72 -13 141.833 -13 209.5s5 149.5 15 245.5h269
c-26.667 -144.667 -40.667 -283.667 -42 -417c28 -25.333 68.333 -38 121 -38s93 9.33301 121 28c1.33301 22 2 53.667 2 95zM332 558c-19.333 14.667 -29.001 30.8311 -29.001 48.498s9.5 33.667 28.5 48s39.833 21.5 62.5 21.5s38.167 -5.16699 46.5 -15.5
s12.5 -23.666 12.5 -39.999s-9 -31.666 -27 -45.999s-39 -21.5 -63 -21.5c-9.33301 0 -19.666 1.66699 -30.999 5zM357.999 623.997c0 -28 10.333 -46.666 31 -55.999c6.66699 8.66699 10 19.667 10 33c0 26.667 -11 45 -33 55c-5.33301 -10.667 -8 -21.334 -8 -32.001z" />
    <glyph glyph-name="Uhungarumlaut" unicode="&#x170;" 
d="M658 500c2.66699 -43.333 4 -106.5 4 -189.5s-5.33301 -171.5 -16 -265.5c-69.333 -44.667 -152.333 -67 -249 -67c-128.667 0 -232.667 22.333 -312 67c-8.66699 72 -13 141.833 -13 209.5s5 149.5 15 245.5h269c-26.667 -144.667 -40.667 -283.667 -42 -417
c28 -25.333 68.333 -38 121 -38s93 9.33301 121 28c1.33301 22 2 53.667 2 95c0 105.333 -9.33301 216 -28 332h128zM313 680l111 -13.999c-9.33301 -18 -22.5 -34.667 -39.5 -50s-33.167 -27.333 -48.5 -36s-35.333 -18.667 -60 -30h-66
c48 31.333 82.333 74.666 103 129.999zM474 680.001l111 -13.999c-9.33301 -18 -22.5 -34.667 -39.5 -50s-33.167 -27.333 -48.5 -36s-35.333 -18.667 -60 -30h-66c48 31.333 82.333 74.666 103 129.999z" />
    <glyph glyph-name="uhungarumlaut" unicode="&#x171;" 
d="M658 500c2.66699 -43.333 4 -106.5 4 -189.5s-5.33301 -171.5 -16 -265.5c-69.333 -44.667 -152.333 -67 -249 -67c-128.667 0 -232.667 22.333 -312 67c-8.66699 72 -13 141.833 -13 209.5s5 149.5 15 245.5h269c-26.667 -144.667 -40.667 -283.667 -42 -417
c28 -25.333 68.333 -38 121 -38s93 9.33301 121 28c1.33301 22 2 53.667 2 95c0 105.333 -9.33301 216 -28 332h128zM313 680l111 -13.999c-9.33301 -18 -22.5 -34.667 -39.5 -50s-33.167 -27.333 -48.5 -36s-35.333 -18.667 -60 -30h-66
c48 31.333 82.333 74.666 103 129.999zM474 680.001l111 -13.999c-9.33301 -18 -22.5 -34.667 -39.5 -50s-33.167 -27.333 -48.5 -36s-35.333 -18.667 -60 -30h-66c48 31.333 82.333 74.666 103 129.999z" />
    <glyph glyph-name="Uogonek" unicode="&#x172;" 
d="M422 -21c-20 -24.667 -30 -49.999 -30 -75.999s12 -39 36 -39c11.333 0 23.666 6 36.999 18c0.666992 -7.33301 2.33398 -14.333 5.00098 -21c-17.333 -23.333 -38.5 -35 -63.5 -35s-44.5 7 -58.5 21s-21 29.667 -21 47c0 30.667 14 58.667 42 84
c-116 3.33301 -210.667 25.666 -284 66.999c-8.66699 72 -13 141.833 -13 209.5s5 149.5 15 245.5h269c-26.667 -144.667 -40.667 -283.667 -42 -417c28 -25.333 68.333 -38 121 -38s93 9.33301 121 28c1.33301 22 2 53.667 2 95c0 105.333 -9.33301 216 -28 332h128
c2.66699 -43.333 4 -106.5 4 -189.5s-5.33301 -171.5 -16 -265.5c-62 -40 -136.667 -62 -224 -66z" />
    <glyph glyph-name="uogonek" unicode="&#x173;" 
d="M422 -21c-20 -24.667 -30 -49.999 -30 -75.999s12 -39 36 -39c11.333 0 23.666 6 36.999 18c0.666992 -7.33301 2.33398 -14.333 5.00098 -21c-17.333 -23.333 -38.5 -35 -63.5 -35s-44.5 7 -58.5 21s-21 29.667 -21 47c0 30.667 14 58.667 42 84
c-116 3.33301 -210.667 25.666 -284 66.999c-8.66699 72 -13 141.833 -13 209.5s5 149.5 15 245.5h269c-26.667 -144.667 -40.667 -283.667 -42 -417c28 -25.333 68.333 -38 121 -38s93 9.33301 121 28c1.33301 22 2 53.667 2 95c0 105.333 -9.33301 216 -28 332h128
c2.66699 -43.333 4 -106.5 4 -189.5s-5.33301 -171.5 -16 -265.5c-62 -40 -136.667 -62 -224 -66z" />
    <glyph glyph-name="Wcircumflex" unicode="&#x174;" horiz-adv-x="1040" 
d="M419 354c0 44.667 -5.66699 93.3301 -17 145.997h238c10.667 -132 42 -251 94 -357c34 62.667 51 130.334 51 203.001c0 52 -8 103.333 -24 154h268c0.666992 -10 1 -24.667 1 -44c0 -85.333 -11.333 -156 -34 -212c-59.333 -17.333 -108.666 -40.333 -147.999 -69
s-59 -58.167 -59 -88.5s13.667 -59.166 41 -86.499h-252c-41.333 61.333 -76.333 132.333 -105 213c-22 -50 -33 -92.167 -33 -126.5s9.66699 -63.166 29 -86.499h-251c-51.333 68 -95 146.667 -131 236s-60.333 177.333 -73 264h266
c11.333 -143.333 40.666 -262.333 87.999 -357c34 58 51 128.333 51 211zM405 557.996l90 115h49l90 -115h-32l-83 62l-82 -62h-32z" />
    <glyph glyph-name="wcircumflex" unicode="&#x175;" horiz-adv-x="1040" 
d="M419 354c0 44.667 -5.66699 93.3301 -17 145.997h238c10.667 -132 42 -251 94 -357c34 62.667 51 130.334 51 203.001c0 52 -8 103.333 -24 154h268c0.666992 -10 1 -24.667 1 -44c0 -85.333 -11.333 -156 -34 -212c-59.333 -17.333 -108.666 -40.333 -147.999 -69
s-59 -58.167 -59 -88.5s13.667 -59.166 41 -86.499h-252c-41.333 61.333 -76.333 132.333 -105 213c-22 -50 -33 -92.167 -33 -126.5s9.66699 -63.166 29 -86.499h-251c-51.333 68 -95 146.667 -131 236s-60.333 177.333 -73 264h266
c11.333 -143.333 40.666 -262.333 87.999 -357c34 58 51 128.333 51 211zM405 557.996l90 115h49l90 -115h-32l-83 62l-82 -62h-32z" />
    <glyph glyph-name="Ycircumflex" unicode="&#x176;" horiz-adv-x="732" 
d="M384 64l24.002 94.498c11.333 45 19.666 77.167 24.999 96.5s13.5 46.666 24.5 81.999s21 61.833 30 79.5s20.167 37.5 33.5 59.5s27.833 39.167 43.5 51.5s31 21 46 26s39.833 9.33301 74.5 13s59.667 10.5 75 20.5c-18 -41.333 -36.667 -76.666 -56 -105.999
c-22.667 -5.33301 -41.667 -8 -57 -8s-30 1 -44 3c-20.667 -24.667 -39.334 -57.667 -56.001 -99s-29.167 -78.333 -37.5 -111s-17.5 -72.667 -27.5 -120c-50.667 -241.333 -101.334 -412.666 -152.001 -513.999c-33.333 -10 -74.666 -19.667 -123.999 -29
c66.667 114 120.667 246.333 162 397h-207c-52.667 170.667 -80 337.334 -82 500.001h292c-14 -62 -21 -127.833 -21 -197.5s11.333 -149.167 34 -238.5zM251.002 557.998l90 115h49l90 -115h-32l-83 62l-82 -62h-32z" />
    <glyph glyph-name="ycircumflex" unicode="&#x177;" horiz-adv-x="732" 
d="M384 64l24.002 94.498c11.333 45 19.666 77.167 24.999 96.5s13.5 46.666 24.5 81.999s21 61.833 30 79.5s20.167 37.5 33.5 59.5s27.833 39.167 43.5 51.5s31 21 46 26s39.833 9.33301 74.5 13s59.667 10.5 75 20.5c-18 -41.333 -36.667 -76.666 -56 -105.999
c-22.667 -5.33301 -41.667 -8 -57 -8s-30 1 -44 3c-20.667 -24.667 -39.334 -57.667 -56.001 -99s-29.167 -78.333 -37.5 -111s-17.5 -72.667 -27.5 -120c-50.667 -241.333 -101.334 -412.666 -152.001 -513.999c-33.333 -10 -74.666 -19.667 -123.999 -29
c66.667 114 120.667 246.333 162 397h-207c-52.667 170.667 -80 337.334 -82 500.001h292c-14 -62 -21 -127.833 -21 -197.5s11.333 -149.167 34 -238.5zM251.002 557.998l90 115h49l90 -115h-32l-83 62l-82 -62h-32z" />
    <glyph glyph-name="Ydieresis" unicode="&#x178;" horiz-adv-x="732" 
d="M704 481c-22.667 -5.33301 -41.665 -8.00195 -56.998 -8.00195s-30 1 -44 3c-20.667 -24.667 -39.334 -57.667 -56.001 -99s-29.167 -78.333 -37.5 -111s-17.5 -72.667 -27.5 -120c-50.667 -241.333 -101.334 -412.666 -152.001 -513.999
c-33.333 -10 -74.666 -19.667 -123.999 -29c66.667 114 120.667 246.333 162 397h-207c-52.667 170.667 -80 337.334 -82 500.001h292c-14 -62 -21 -127.833 -21 -197.5s11.333 -149.167 34 -238.5l24 94.5c11.333 45 19.666 77.167 24.999 96.5s13.5 46.666 24.5 81.999
s21 61.833 30 79.5s20.167 37.5 33.5 59.5c24 39.333 55.667 66 95 80c11.333 3.33301 34.333 6.83301 69 10.5s59.667 10.5 75 20.5c-18 -41.333 -36.667 -76.666 -56 -105.999zM308.002 575.998l-40.001 -1c-13.333 0 -32.666 0.666992 -57.999 2
c16.667 39.333 26.667 73 30 101c35.333 -3.33301 69.333 -5.33301 102 -6c-8 -36 -19.333 -68 -34 -96zM487.001 575.998l-41.001 -1.00098c-12.667 0 -31.667 0.666992 -57 2c16 40.667 26 74.334 30 101.001c34.667 -3.33301 68.667 -5.33301 102 -6
c-9.33301 -37.333 -20.666 -69.333 -33.999 -96z" />
    <glyph glyph-name="Zacute" unicode="&#x179;" horiz-adv-x="638" 
d="M396 67l9.00098 0.000976562c28 0 50.667 6.33301 68 19s29.666 35 36.999 67c49.333 -1.33301 89.333 -2.66602 120 -3.99902c-10 -58 -23.333 -107.667 -40 -149h-571c90 161.333 188.667 304.666 296 429.999c-16 3.33301 -38 5 -66 5s-53.333 -8.5 -76 -25.5
s-37 -39.5 -43 -67.5c-51.333 3.33301 -84 5.66602 -98 6.99902l31 151h557c-118 -128 -220.667 -269 -308 -423c34.667 -6.66699 62.667 -10 84 -10zM315.001 680.001l111 -13.999c-9.33301 -18 -22.5 -34.667 -39.5 -50s-33.167 -27.333 -48.5 -36
s-35.333 -18.667 -60 -30h-66c48 31.333 82.333 74.666 103 129.999z" />
    <glyph glyph-name="zacute" unicode="&#x17a;" horiz-adv-x="638" 
d="M396 67l9.00098 0.000976562c28 0 50.667 6.33301 68 19s29.666 35 36.999 67c49.333 -1.33301 89.333 -2.66602 120 -3.99902c-10 -58 -23.333 -107.667 -40 -149h-571c90 161.333 188.667 304.666 296 429.999c-16 3.33301 -38 5 -66 5s-53.333 -8.5 -76 -25.5
s-37 -39.5 -43 -67.5c-51.333 3.33301 -84 5.66602 -98 6.99902l31 151h557c-118 -128 -220.667 -269 -308 -423c34.667 -6.66699 62.667 -10 84 -10zM315.001 680.001l111 -13.999c-9.33301 -18 -22.5 -34.667 -39.5 -50s-33.167 -27.333 -48.5 -36
s-35.333 -18.667 -60 -30h-66c48 31.333 82.333 74.666 103 129.999z" />
    <glyph glyph-name="Zdotaccent" unicode="&#x17b;" horiz-adv-x="638" 
d="M396 67l9.00098 0.000976562c28 0 50.667 6.33301 68 19s29.666 35 36.999 67c49.333 -1.33301 89.333 -2.66602 120 -3.99902c-10 -58 -23.333 -107.667 -40 -149h-571c90 161.333 188.667 304.666 296 429.999c-16 3.33301 -38 5 -66 5s-53.333 -8.5 -76 -25.5
s-37 -39.5 -43 -67.5c-51.333 3.33301 -84 5.66602 -98 6.99902l31 151h557c-118 -128 -220.667 -269 -308 -423c34.667 -6.66699 62.667 -10 84 -10zM351.001 576.001l-40.001 -1c-13.333 0 -32.666 0.666992 -57.999 2c16.667 39.333 26.667 73 30 101
c35.333 -3.33301 69.333 -5.33301 102 -6c-8 -36 -19.333 -68 -34 -96z" />
    <glyph glyph-name="zdotaccent" unicode="&#x17c;" horiz-adv-x="638" 
d="M396 67l9.00098 0.000976562c28 0 50.667 6.33301 68 19s29.666 35 36.999 67c49.333 -1.33301 89.333 -2.66602 120 -3.99902c-10 -58 -23.333 -107.667 -40 -149h-571c90 161.333 188.667 304.666 296 429.999c-16 3.33301 -38 5 -66 5s-53.333 -8.5 -76 -25.5
s-37 -39.5 -43 -67.5c-51.333 3.33301 -84 5.66602 -98 6.99902l31 151h557c-118 -128 -220.667 -269 -308 -423c34.667 -6.66699 62.667 -10 84 -10zM351.001 576.001l-40.001 -1c-13.333 0 -32.666 0.666992 -57.999 2c16.667 39.333 26.667 73 30 101
c35.333 -3.33301 69.333 -5.33301 102 -6c-8 -36 -19.333 -68 -34 -96z" />
    <glyph glyph-name="Zcaron" unicode="&#x17d;" horiz-adv-x="638" 
d="M396 67l9.00098 0.000976562c28 0 50.667 6.33301 68 19s29.666 35 36.999 67c49.333 -1.33301 89.333 -2.66602 120 -3.99902c-10 -58 -23.333 -107.667 -40 -149h-571c90 161.333 188.667 304.666 296 429.999c-16 3.33301 -38 5 -66 5s-53.333 -8.5 -76 -25.5
s-37 -39.5 -43 -67.5c-51.333 3.33301 -84 5.66602 -98 6.99902l31 151h557c-118 -128 -220.667 -269 -308 -423c34.667 -6.66699 62.667 -10 84 -10zM294.001 554.001l-90 115h32l82 -62l83 62h32l-90 -115h-49z" />
    <glyph glyph-name="zcaron" unicode="&#x17e;" horiz-adv-x="638" 
d="M396 67l9.00098 0.000976562c28 0 50.667 6.33301 68 19s29.666 35 36.999 67c49.333 -1.33301 89.333 -2.66602 120 -3.99902c-10 -58 -23.333 -107.667 -40 -149h-571c90 161.333 188.667 304.666 296 429.999c-16 3.33301 -38 5 -66 5s-53.333 -8.5 -76 -25.5
s-37 -39.5 -43 -67.5c-51.333 3.33301 -84 5.66602 -98 6.99902l31 151h557c-118 -128 -220.667 -269 -308 -423c34.667 -6.66699 62.667 -10 84 -10zM294.001 554.001l-90 115h32l82 -62l83 62h32l-90 -115h-49z" />
    <glyph glyph-name="florin" unicode="&#x192;" horiz-adv-x="565" 
d="M435 223c1.33301 -45.333 1.99805 -83.502 1.99805 -114.502s-1 -66.5 -3 -106.5c-25.333 -23.333 -49.666 -41.5 -72.999 -54.5l-45 -25c-6.66699 -3.66699 -21.667 -10.667 -45 -21s-35.333 -15.833 -36 -16.5c-85.333 6.66699 -157.333 21.667 -216 45
c1.33301 44.667 3.33301 85 6 121c59.333 -43.333 119 -75.333 179 -96c8.66699 87.333 14.334 177 17.001 269c-40 -1.33301 -70 -2.66602 -90 -3.99902v53l91 -3c0 92 -2 168.333 -6 229c56 22.667 113.333 39 172 49c55.333 -3.33301 108.333 -13 159 -29
c0 -43.333 -1.66699 -78.666 -5 -105.999c-40 38 -84.333 65.667 -133 83c11.333 -74.667 19.333 -149.667 24 -225c17.333 0 44 0.666992 80 2v-53z" />
    <glyph glyph-name="uni0218" unicode="&#x218;" horiz-adv-x="577" 
d="M112 499c60.667 16 128.331 24.001 202.998 24.001s147.667 -8 219 -24c-10 -56 -18.667 -95.667 -26 -119l-110 -5c5.33301 17.333 8 32.5 8 45.5s-6.16699 22.167 -18.5 27.5s-36.166 8 -71.499 8s-67.333 -3.66699 -96 -11c18.667 -31.333 43 -58 73 -80
s58.833 -38.667 86.5 -50s58.334 -28.333 92.001 -51s62.5 -49.667 86.5 -81c-12 -64.667 -33 -125.334 -63 -182.001c-46 -14 -111.667 -22 -197 -24h-36c-102 0 -183 8 -243 24c9.33301 59.333 19 103 29 131l110 5c-6 -18 -9 -33 -9 -45c0 -32 23.833 -48 71.5 -48
s90.5 3.66699 128.5 11c-21.333 26.667 -73.666 71.667 -156.999 135c-26.667 20.667 -53.334 48.5 -80.001 83.5s-45.667 72.833 -57 113.5c18.667 42.667 37.667 80 57 112zM193.997 -32.999l165.001 -0.000976562c-14 -74 -37 -134.667 -69 -182
c-20 2.66699 -35.333 5.33398 -46 8.00098c14 26 21.667 50 23 72c-41.333 0 -73 2 -95 6c13.333 30 20.666 62 21.999 96z" />
    <glyph glyph-name="uni0219" unicode="&#x219;" horiz-adv-x="577" 
d="M112 499c60.667 16 128.331 24.001 202.998 24.001s147.667 -8 219 -24c-10 -56 -18.667 -95.667 -26 -119l-110 -5c5.33301 17.333 8 32.5 8 45.5s-6.16699 22.167 -18.5 27.5s-36.166 8 -71.499 8s-67.333 -3.66699 -96 -11c18.667 -31.333 43 -58 73 -80
s58.833 -38.667 86.5 -50s58.334 -28.333 92.001 -51s62.5 -49.667 86.5 -81c-12 -64.667 -33 -125.334 -63 -182.001c-46 -14 -111.667 -22 -197 -24h-36c-102 0 -183 8 -243 24c9.33301 59.333 19 103 29 131l110 5c-6 -18 -9 -33 -9 -45c0 -32 23.833 -48 71.5 -48
s90.5 3.66699 128.5 11c-21.333 26.667 -73.666 71.667 -156.999 135c-26.667 20.667 -53.334 48.5 -80.001 83.5s-45.667 72.833 -57 113.5c18.667 42.667 37.667 80 57 112zM193.997 -32.999l165.001 -0.000976562c-14 -74 -37 -134.667 -69 -182
c-20 2.66699 -35.333 5.33398 -46 8.00098c14 26 21.667 50 23 72c-41.333 0 -73 2 -95 6c13.333 30 20.666 62 21.999 96z" />
    <glyph glyph-name="uni021A" unicode="&#x21a;" horiz-adv-x="705" 
d="M472 435c-17.333 -105.333 -26 -191.334 -26 -258.001s2.66699 -125.667 8 -177h-218c-22.667 106 -34 220 -34 342c0 20.667 0.666992 51.667 2 93c-56.667 -16.667 -91.334 -55 -104.001 -115l-99 6l36 174h665c-13.333 -73.333 -28.666 -133.333 -45.999 -180l-101 6
c2.66699 10.667 4 21.334 4 32.001c0 26 -8 45.333 -24 58s-37 19 -63 19zM472 434.999c26 0 47 -6.33203 63 -18.999s24 -32 24 -58c0 -10.667 -1.33301 -21.334 -4 -32.001l101 -6c17.333 46.667 32.666 106.667 45.999 180h-665l-36 -174l99 -6
c12.667 60 47.334 98.333 104.001 115c-1.33301 -41.333 -2 -72.333 -2 -93c0 -122 11.333 -236 34 -342h218c-5.33301 51.333 -8 110.333 -8 177s8.66699 152.667 26 258zM272 -33l165.001 -0.000976562c-14 -74 -37 -134.667 -69 -182
c-20 2.66699 -35.333 5.33398 -46 8.00098c14 26 21.667 50 23 72c-41.333 0 -73 2 -95 6c13.333 30 20.666 62 21.999 96z" />
    <glyph glyph-name="uni021B" unicode="&#x21b;" horiz-adv-x="705" 
d="M472 435c-17.333 -105.333 -26 -191.334 -26 -258.001s2.66699 -125.667 8 -177h-218c-22.667 106 -34 220 -34 342c0 20.667 0.666992 51.667 2 93c-56.667 -16.667 -91.334 -55 -104.001 -115l-99 6l36 174h665c-13.333 -73.333 -28.666 -133.333 -45.999 -180l-101 6
c2.66699 10.667 4 21.334 4 32.001c0 26 -8 45.333 -24 58s-37 19 -63 19zM472 434.999c26 0 47 -6.33203 63 -18.999s24 -32 24 -58c0 -10.667 -1.33301 -21.334 -4 -32.001l101 -6c17.333 46.667 32.666 106.667 45.999 180h-665l-36 -174l99 -6
c12.667 60 47.334 98.333 104.001 115c-1.33301 -41.333 -2 -72.333 -2 -93c0 -122 11.333 -236 34 -342h218c-5.33301 51.333 -8 110.333 -8 177s8.66699 152.667 26 258zM272 -33l165.001 -0.000976562c-14 -74 -37 -134.667 -69 -182
c-20 2.66699 -35.333 5.33398 -46 8.00098c14 26 21.667 50 23 72c-41.333 0 -73 2 -95 6c13.333 30 20.666 62 21.999 96z" />
    <glyph glyph-name="circumflex" unicode="&#x2c6;" horiz-adv-x="261" 
d="M17 558l90 115h49l90 -115h-32l-83 62l-82 -62h-32z" />
    <glyph glyph-name="caron" unicode="&#x2c7;" horiz-adv-x="261" 
d="M107 554l-90 115h32l82 -62l83 62h32l-90 -115h-49z" />
    <glyph glyph-name="breve" unicode="&#x2d8;" horiz-adv-x="303" 
d="M114 615c22.667 -14.667 49.998 -22 81.998 -22s60.333 11 85 33c1.33301 0 -1.66699 -6.5 -9 -19.5s-19.666 -26.5 -36.999 -40.5c-22 -18.667 -51.167 -28 -87.5 -28s-71.166 10.333 -104.499 31l-14 8c3.33301 20 9.5 42.167 18.5 66.5s13.833 36.5 14.5 36.5z" />
    <glyph glyph-name="dotaccent" unicode="&#x2d9;" horiz-adv-x="150" 
d="M109 576l-40.001 -1c-13.333 0 -32.666 0.666992 -57.999 2c16.667 39.333 26.667 73 30 101c35.333 -3.33301 69.333 -5.33301 102 -6c-8 -36 -19.333 -68 -34 -96z" />
    <glyph glyph-name="ring" unicode="&#x2da;" horiz-adv-x="194" 
d="M52 558c-19.333 14.667 -29.001 30.8311 -29.001 48.498s9.5 33.667 28.5 48s39.833 21.5 62.5 21.5s38.167 -5.16699 46.5 -15.5s12.5 -23.666 12.5 -39.999s-9 -31.666 -27 -45.999s-39 -21.5 -63 -21.5c-9.33301 0 -19.666 1.66699 -30.999 5zM77.999 623.997
c0 -28 10.333 -46.666 31 -55.999c6.66699 8.66699 10 19.667 10 33c0 26.667 -11 45 -33 55c-5.33301 -10.667 -8 -21.334 -8 -32.001z" />
    <glyph glyph-name="ogonek" unicode="&#x2db;" horiz-adv-x="176" 
d="M81 -96c0 -26.667 11.667 -40 35 -40c12 0 24.667 6 38 18c1.33301 -6.66699 3 -13.667 5 -21c-17.333 -23.333 -38.5 -35 -63.5 -35s-44.5 7 -58.5 21s-21 31.667 -21 53s9.33301 42.5 28 63.5s38.667 36.833 60 47.5h44c-44.667 -30 -67 -65.667 -67 -107z" />
    <glyph glyph-name="tilde" unicode="&#x2dc;" horiz-adv-x="311" 
d="M243.5 586.5c-13.667 -7.66699 -30.3281 -11.501 -49.9951 -11.501s-40.834 6.83301 -63.501 20.5s-39.334 20.5 -50.001 20.5c-24.667 0 -46.667 -11 -66 -33l13 40c8 9.33301 18.167 17.833 30.5 25.5s25.666 11.5 39.999 11.5s31.666 -3.66699 51.999 -11
s37.833 -11 52.5 -11c36 0 69 15.667 99 47c-2.66699 -5.33301 -7.33398 -17.666 -14.001 -36.999s-12.167 -32.5 -16.5 -39.5s-13.333 -14.333 -27 -22z" />
    <glyph glyph-name="hungarumlaut" unicode="&#x2dd;" horiz-adv-x="410" 
d="M123 680l111 -13.999c-9.33301 -18 -22.5 -34.667 -39.5 -50s-33.167 -27.333 -48.5 -36s-35.333 -18.667 -60 -30h-66c48 31.333 82.333 74.666 103 129.999zM284 680.001l111 -13.999c-9.33301 -18 -22.5 -34.667 -39.5 -50s-33.167 -27.333 -48.5 -36
s-35.333 -18.667 -60 -30h-66c48 31.333 82.333 74.666 103 129.999z" />
    <glyph glyph-name="uni0401" unicode="&#x401;" horiz-adv-x="643" 
d="M395 299l91.999 -5.99707c8.66699 0 15.334 0.333008 20.001 1l-46 -88h-9c-12.667 0 -30.334 3.5 -53.001 10.5s-38.667 10.5 -48 10.5c-26.667 0 -47.667 -17.667 -63 -53c-3.33301 -33.333 -5.33301 -65.666 -6 -96.999c30 -7.33301 59 -11 87 -11s50.333 6.5 67 19.5
s28.667 35.5 36 67.5l117 -4c-10.667 -62 -23.667 -111.667 -39 -149h-477c-12.667 85.333 -19 173.166 -19 263.499s4.33301 169.166 13 236.499h521c-11.333 -68.667 -21.666 -119.334 -30.999 -152.001c-38.667 -2 -73.667 -3.33301 -105 -4
c5.33301 15.333 8 29.666 8 42.999c0 31.333 -23.667 47 -71 47h-9c-12.667 0 -29 -1.66699 -49 -5c-14 -58 -24.667 -113.667 -32 -167c26 24.667 58 37 96 37zM277.999 576.003l-40.001 -1c-13.333 0 -32.666 0.666992 -57.999 2c16.667 39.333 26.667 73 30 101
c35.333 -3.33301 69.333 -5.33301 102 -6c-8 -36 -19.333 -68 -34 -96zM456.998 576.003l-41.001 -1.00098c-12.667 0 -31.667 0.666992 -57 2c16 40.667 26 74.334 30 101.001c34.667 -3.33301 68.667 -5.33301 102 -6c-9.33301 -37.333 -20.666 -69.333 -33.999 -96z" />
    <glyph glyph-name="uni0402" unicode="&#x402;" horiz-adv-x="774" 
d="M757 208l1.00293 -42.9971c0 -96 -10.333 -174 -31 -234c-56.667 -39.333 -120.334 -72.333 -191.001 -99c-52.667 12 -101.667 26.667 -147 44c0 32 1.66699 68.667 5 110c41.333 -37.333 80.666 -65.333 117.999 -84c16.667 60.667 25 132.667 25 216
c0 25.333 -1 51.666 -3 78.999c-28.667 15.333 -55 24 -79 26c-1.33301 -34.667 -2 -69.334 -2 -104.001s2.33301 -74.334 7 -119.001h-218c-22.667 106.667 -34 220.334 -34 341.001c0 20.667 0.666992 51.667 2 93c-56 -15.333 -90.333 -53.333 -103 -114
c-53.333 3.33301 -86.333 5.66602 -99 6.99902l36 173h664c-12.667 -71.333 -27.667 -131.333 -45 -180c-36 2 -70 4.33301 -102 7c2.66699 10.667 4 21.334 4 32.001c0 25.333 -8 44.166 -24 56.499s-37 18.5 -63 18.5c-8 -46 -14 -93 -18 -141
c61.333 -7.33301 114.666 -17.333 159.999 -30s91 -31 137 -55z" />
    <glyph glyph-name="uni0403" unicode="&#x403;" horiz-adv-x="603" 
d="M306 680l111 -13.999c-9.33301 -18 -22.5 -34.667 -39.5 -50s-33.167 -27.333 -48.5 -36s-35.333 -18.667 -60 -30h-66c48 31.333 82.333 74.666 103 129.999zM468 387.001c0 32 -24 48.001 -72 48.001c-18 0 -38 -2 -60 -6c-33.333 -136.667 -50 -258 -50 -364
c0 -29.333 0.666992 -51 2 -65h-217c-13.333 90 -20 179.5 -20 268.5s4.66699 166.167 14 231.5h535c-11.333 -65.333 -22 -116 -32 -152c-34 -0.666992 -70 -2 -108 -4c5.33301 15.333 8 29.666 8 42.999z" />
    <glyph glyph-name="uni0404" unicode="&#x404;" horiz-adv-x="617" 
d="M461 241l-90.0049 8.99805c-31.333 0 -56 -17 -74 -51c20.667 -50 60 -92 118 -126c59.333 38.667 114.333 89.334 165 152.001c2.66699 -36.667 4.66699 -77.334 6 -122.001c-32 -25.333 -60.833 -45.666 -86.5 -60.999s-61.667 -29.833 -108 -43.5
s-96.166 -20.5 -149.499 -20.5h-23c-60 26 -107.167 64.333 -141.5 115s-51.5 104 -51.5 160c0 74.667 30.833 138.334 92.5 191.001s150.834 79 267.501 79c61.333 0 129.666 -8.33301 204.999 -25c-12 -47.333 -25.333 -87.333 -40 -120
c-40 -2.66699 -83.333 -4.66699 -130 -6c6.66699 18.667 12.334 40.667 17.001 66c-23.333 4 -46.166 6 -68.499 6s-48.166 -3.66699 -77.499 -11c-10.667 -44.667 -16 -79.667 -16 -105s1 -45 3 -59c16.667 25.333 35.334 42.333 56.001 51s45 13 73 13l87 -3
c12.667 0 22 0.333008 28 1l-49 -89z" />
    <glyph glyph-name="uni0405" unicode="&#x405;" horiz-adv-x="635" 
d="M423 440c-26.667 4 -55.1729 6.00293 -85.5059 6.00293s-59.833 -2 -88.5 -6c18 -30.667 39.333 -55.667 64 -75s55.834 -38.5 93.501 -57.5s68.334 -36.5 92.001 -52.5s49.834 -42.333 78.501 -79s46.667 -75 54 -115c-32 -41.333 -74.333 -77.833 -127 -109.5
s-106.667 -52.834 -162 -63.501c-37.333 3.33301 -84.5 13.833 -141.5 31.5s-99.833 26.5 -128.5 26.5s-57.334 -9 -86.001 -27c12 34 31.667 76.667 59 128h8c42.667 0 82.834 -6.66699 120.501 -20s72 -26.666 103 -39.999s56 -20 75 -20s32.833 1.33301 41.5 4
c0 44 -13.667 80.333 -41 109c-14.667 15.333 -27.167 27.166 -37.5 35.499s-26.166 19.833 -47.499 34.5l-17 12c-45.333 31.333 -82.666 63.166 -111.999 95.499s-50.666 72.166 -63.999 119.499c21.333 47.333 42.333 88.333 63 123c63.333 15.333 129 23 197 23h44
c57.333 0 123 -8 197 -24c-10.667 -44 -23.667 -83.667 -39 -119c-56 -4 -99.333 -6 -130 -6c6 15.333 11.667 37.333 17 66z" />
    <glyph glyph-name="uni0406" unicode="&#x406;" horiz-adv-x="396" 
d="M341 500v-26.998c0 -176 -11 -333.667 -33 -473h-240c12.667 61.333 19 132.166 19 212.499s-5.33301 176.166 -16 287.499h270z" />
    <glyph glyph-name="uni0407" unicode="&#x407;" horiz-adv-x="396" 
d="M332 398c0 -139.333 -11.333 -272.001 -34 -398.001h-227c9.33301 71.333 14 149.833 14 235.5s-6.33301 173.834 -19 264.501h264c1.33301 -45.333 2 -79.333 2 -102zM71 677.999c35.333 -3.33301 70 -5.33398 104 -6.00098c-8 -35.333 -19.667 -67.666 -35 -96.999
c-44.667 0 -78 0.333008 -100 1c16.667 40 27 74 31 102zM254 677.998c35.333 -3.33301 70.335 -5.33301 105.002 -6c-8.66699 -36 -20.334 -68.333 -35.001 -97c-44.667 0 -78.334 0.333008 -101.001 1c16.667 40 27 74 31 102z" />
    <glyph glyph-name="uni0408" unicode="&#x408;" horiz-adv-x="531" 
d="M192 -45c4.66699 52 7 123.834 7 215.501s-7.66699 201.5 -23 329.5h270c1.33301 -25.333 2 -64.333 2 -117c0 -141.333 -9.33301 -269 -28 -383c-26 -24.667 -50 -42.834 -72 -54.501l-45 -24c-8 -4.33301 -22.333 -11 -43 -20s-33 -14.5 -37 -16.5
c-85.333 6.66699 -158 21.667 -218 45c1.33301 44 3.33301 84.667 6 122c62 -44.667 122.333 -77 181 -97z" />
    <glyph glyph-name="uni0409" unicode="&#x409;" horiz-adv-x="964" 
d="M383 242c0 15.333 0.669922 37.666 2.00293 66.999c-40 -25.333 -69.333 -59.666 -88 -102.999s-28 -89.333 -28 -138c0 -24 2 -46.667 6 -68h-260c8 95.333 22.667 176.666 44 243.999c139.333 39.333 251.666 98 336.999 176c3.33301 25.333 8.66602 52 15.999 80h247
c-10.667 -62 -17.667 -118.667 -21 -170c117.333 -13.333 220.666 -42.666 309.999 -87.999c-2 -92.667 -12.333 -173.334 -31 -242.001h-510c-16 66.667 -24 147.334 -24 242.001zM636.003 261c0 -70 8.33301 -134.667 25 -194c35.333 44 57 99.667 65 167
c-28 15.333 -58 24.333 -90 27z" />
    <glyph glyph-name="uni040A" unicode="&#x40a;" horiz-adv-x="990" 
d="M674 500c1.33301 -8 2.00195 -36.3379 2.00195 -85.0049s-0.666992 -77 -2 -85c117.333 -13.333 220 -42.666 308 -87.999c-5.33301 -93.333 -29.333 -173.666 -72 -240.999h-510c12 87.333 19 172 21 254c-34.667 21.333 -73.334 34.333 -116.001 39
c-4 -98 -14.667 -195.667 -32 -293h-227c9.33301 64.667 14 140.834 14 228.501s-6 177.834 -18 270.501h263c1.33301 -40 2 -69.667 2 -89v-32c45.333 -15.333 83.666 -31.666 114.999 -48.999c0 61.333 -2.33301 118 -7 170h259zM671.002 260.995
c-5.33301 -68.667 -12.666 -133.335 -21.999 -194.002c27.333 18.667 51.666 43.334 72.999 74.001s34 62 38 94c-29.333 14.667 -59 23.334 -89 26.001z" />
    <glyph glyph-name="uni040B" unicode="&#x40b;" horiz-adv-x="838" 
d="M703 254c21.333 0 37.667 0.332031 49 0.999023c36 -75.333 58.333 -160.333 67 -255h-255c0 102.667 -13.333 166 -40 190c-12.667 11.333 -32.334 20 -59.001 26c-0.666992 -14.667 -1 -42.667 -1 -84s2.33301 -85.333 7 -132h-218
c-22.667 106.667 -34 220.667 -34 342c0 20.667 0.666992 51.667 2 93c-57.333 -16.667 -91.666 -55 -102.999 -115l-99 6l35 174h665c-11.333 -66.667 -26.333 -126.667 -45 -180l-102 6c2.66699 10.667 4 21.334 4 32.001c0 26 -8 45.333 -24 58s-37 19 -63 19
c-8 -47.333 -14 -95 -18 -143c72.667 -25.333 150 -38 232 -38z" />
    <glyph glyph-name="uni040C" unicode="&#x40c;" horiz-adv-x="707" 
d="M570 507h32.9961c42.667 0 74.334 5 95.001 15c-29.333 -43.333 -57.666 -81 -84.999 -113h-16c-34 0 -67 5.33301 -99 16c-45.333 -37.333 -81.666 -87 -108.999 -149c70.667 -18 149.334 -28.667 236.001 -32c20 -50.667 33.667 -132 41 -244h-259
c-11.333 49.333 -28.5 94.833 -51.5 136.5s-46.833 70.167 -71.5 85.5c-4.66699 -54.667 -7 -98.667 -7 -132s1 -63.333 3 -90h-220c-12.667 98 -19 180.833 -19 248.5s5 151.5 15 251.5h278c-20 -82.667 -33.667 -152 -41 -208c30 49.333 61.5 90.833 94.5 124.5
s72.167 62.167 117.5 85.5c17.333 3.33301 39 5 65 5zM353.996 680l111 -13.999c-9.33301 -18 -22.5 -34.667 -39.5 -50s-33.167 -27.333 -48.5 -36s-35.333 -18.667 -60 -30h-66c48 31.333 82.333 74.666 103 129.999z" />
    <glyph glyph-name="uni040E" unicode="&#x40e;" horiz-adv-x="732" 
d="M362 615c23.333 -14.667 50.8311 -22 82.498 -22s60.167 11 85.5 33c1.33301 0 -1.66699 -6.5 -9 -19.5s-19.666 -26.5 -36.999 -40.5c-22 -18.667 -51.167 -28 -87.5 -28s-71.166 10.333 -104.499 31l-14 8c3.33301 20 9.5 42.167 18.5 66.5s13.833 36.5 14.5 36.5z
M703.998 481c-22.667 -5.33301 -41.665 -8.00195 -56.998 -8.00195s-30 1 -44 3c-20.667 -24.667 -39.334 -57.667 -56.001 -99s-29.167 -78.333 -37.5 -111s-17.5 -72.667 -27.5 -120c-50.667 -241.333 -101.334 -412.666 -152.001 -513.999
c-33.333 -10 -74.666 -19.667 -123.999 -29c66.667 114 120.667 246.333 162 397h-207c-52.667 170.667 -80 337.334 -82 500.001h292c-14 -62 -21 -127.833 -21 -197.5s11.333 -149.167 34 -238.5l24 94.5c11.333 45 19.666 77.167 24.999 96.5s13.5 46.666 24.5 81.999
s21 61.833 30 79.5s20.167 37.5 33.5 59.5c24 39.333 55.667 66 95 80c11.333 3.33301 34.333 6.83301 69 10.5s59.667 10.5 75 20.5c-18 -41.333 -36.667 -76.666 -56 -105.999z" />
    <glyph glyph-name="uni040F" unicode="&#x40f;" horiz-adv-x="652" 
d="M610 500c2.66699 -42.667 4 -103.166 4 -181.499s-5 -163.5 -15 -255.5c-61.333 -38 -134.333 -59 -219 -63c-2.66699 -26 -8 -57.667 -16 -95c-4 -0.666992 -15.5 -1 -34.5 -1s-34.5 2.33301 -46.5 7c6 26.667 9.66699 57 11 91c-92 6 -169.667 26.333 -233 61
c-8 72 -12 139.167 -12 201.5s4.66699 140.833 14 235.5h258c-26.667 -142.667 -40 -276.334 -40 -401.001c28.667 -24 67.5 -36 116.5 -36s87.5 9 115.5 27c1.33301 37.333 2 65 2 83c0 102.667 -9 211.667 -27 327h122z" />
    <glyph glyph-name="uni0410" unicode="&#x410;" horiz-adv-x="767" 
d="M690 8l0.000976562 -8h-232c-2.66699 38 -8.33398 77.333 -17.001 118c-41.333 -42 -88 -81.333 -140 -118h-233c-4.66699 27.333 -7 63.5 -7 108.5s6.66699 90.167 20 135.5c48 14 94.167 37.667 138.5 71s76.5 69.333 96.5 108c-18 28 -37 53.667 -57 77h332
c66 -143.333 99 -307.333 99 -492zM423.001 191c-17.333 59.333 -40 115.333 -68 168c-31.333 -92 -49.333 -179 -54 -261c48 24.667 88.667 55.667 122 93z" />
    <glyph glyph-name="uni0411" unicode="&#x411;" horiz-adv-x="706" 
d="M305 66c46 0 83.333 3.66504 112 10.998c-9.33301 68.667 -43.333 126.334 -102 173.001c-6.66699 -59.333 -10 -120.666 -10 -183.999zM53 303.998c0 68 6.33301 133.335 19 196.002h599c-9.33301 -46.667 -20 -87 -32 -121
c-16 -0.666992 -39.167 -1.33398 -69.5 -2.00098s-53.5 -1.33398 -69.5 -2.00098c7.33301 22.667 11.333 42.667 12 60c-68.667 0 -125 -2 -169 -6c-5.33301 -24 -12 -60.667 -20 -110c136 -16.667 241.333 -49.667 316 -99c-8 -84.667 -22.333 -158 -43 -220h-502
c-27.333 96 -41 197.333 -41 304z" />
    </font>
</defs>
</svg>
